<svg width="45" height="58" viewBox="0 0 45 58" fill="none" xmlns="http://www.w3.org/2000/svg">
<g clip-path="url(#clip0_1006_3489)">
<path d="M9.30009 57.9177C8.93772 57.6007 8.71125 57.193 8.48477 56.7703C5.97842 51.9991 4.227 46.9713 3.54757 41.6114C2.89833 36.5685 3.36638 31.6464 5.67645 27.0262C6.73334 24.8974 7.82043 22.7987 8.54516 20.5339C9.46617 17.6803 10.0248 14.7512 10.206 11.7466C10.4174 8.21354 10.0852 4.75599 9.1491 1.35883C8.98302 0.754894 9.1944 0.286841 9.67755 0.0905611C10.1607 -0.0906207 10.6439 0.0603641 10.9005 0.588811C11.0817 0.951174 11.3535 0.920977 11.6554 0.920977C15.6113 0.920977 19.5671 0.920977 23.5229 0.920977C26.6633 0.920977 29.8189 0.920977 32.9594 0.920977C33.2916 0.920977 33.5633 0.920977 33.7445 0.528417C33.971 0.0452656 34.4843 -0.105719 34.9373 0.0754626C35.4054 0.256644 35.6469 0.724697 35.4808 1.28334C34.9977 2.97437 34.6957 4.6956 34.5145 6.43192C34.2126 9.25534 34.3032 12.0637 34.7259 14.872C35.345 19.0543 36.7642 22.9497 38.7572 26.6639C40.252 29.4571 41.0069 32.4768 41.2183 35.6324C41.6561 41.9284 40.101 47.832 37.6701 53.5694C37.2021 54.6565 36.6736 55.7134 36.1301 56.7703C35.9187 57.193 35.6771 57.6007 35.3148 57.9177C26.6331 57.9177 17.9666 57.9177 9.30009 57.9177ZM21.4393 50.595C21.4393 52.0595 21.4393 53.5392 21.4393 55.0037C21.4393 56.1965 21.2883 56.0304 22.4811 56.0757C23.0397 56.1059 23.1756 55.8945 23.1756 55.3661C23.1454 52.5729 23.2662 49.7797 23.1303 47.0015C23.0548 45.5068 23.6587 44.6462 24.8062 43.8762C27.071 42.3512 29.5471 41.249 32.1139 40.3582C34.2881 39.6033 36.5075 38.9993 38.7572 38.5313C39.1951 38.4407 39.4216 38.2595 39.3612 37.7764C39.3159 37.3838 39.331 36.9912 39.3461 36.5836C39.3612 36.1608 39.2706 35.9494 38.7723 36.0702C38.3949 36.1759 37.9872 36.2061 37.5946 36.2212C37.0209 36.2514 36.6132 35.9193 36.5377 35.421C36.4623 34.9228 36.8397 34.4547 37.3984 34.349C37.8362 34.2584 38.2892 34.1829 38.727 34.1225C38.9837 34.0923 39.0894 33.9715 39.029 33.7149C38.9233 33.2317 38.8629 32.7486 38.7421 32.2805C38.4402 31.0122 38.5458 31.1632 37.3984 31.4501C33.7747 32.3711 30.1058 33.0052 26.3916 33.2619C24.0211 33.428 21.6506 33.4582 19.2802 33.3223C17.0758 33.1864 14.9016 32.975 12.7274 32.6278C10.7193 32.3107 8.71125 31.8578 6.73334 31.3444C6.25019 31.2236 6.03881 31.3444 5.94822 31.8276C5.84253 32.4617 5.70665 33.0807 5.57076 33.6998C5.51037 33.9866 5.58586 34.1074 5.88783 34.1527C10.7646 34.8624 15.5811 35.9042 20.5334 36.0249C22.5264 36.0702 24.5194 36.0098 26.5124 35.8891C27.4938 35.8287 28.4601 35.6928 29.4415 35.6475C30.0001 35.6173 30.4078 35.9947 30.4682 36.493C30.5135 36.961 30.2115 37.3838 29.6981 37.5197C29.5471 37.565 29.4113 37.5801 29.2603 37.5952C26.3161 37.9273 23.3719 38.0481 20.4126 37.9575C18.0723 37.8821 15.7622 37.6556 13.4522 37.3234C10.8854 36.9459 8.31869 36.5232 5.76704 36.1004C5.40468 36.04 5.28389 36.1306 5.28389 36.4779C5.29899 36.8705 5.31409 37.2781 5.26879 37.6707C5.2084 38.2142 5.40468 38.4558 5.96332 38.5766C9.22459 39.2862 12.4255 40.1921 15.4905 41.5359C17.4684 42.3965 19.3557 43.4081 20.9863 44.8576C21.3185 45.1595 21.4695 45.4766 21.4695 45.9295C21.4242 47.4696 21.4393 49.0398 21.4393 50.595ZM24.8666 19.8545C24.2627 19.9753 23.5078 19.9451 22.7679 19.9753C22.1942 20.0055 21.862 20.3829 21.8771 20.8661C21.8922 21.3341 22.2546 21.6814 22.7981 21.6663C23.5832 21.6361 24.3684 21.5908 25.1535 21.5002C25.7423 21.4398 26.0141 21.1076 25.9839 20.6396C25.9688 20.1564 25.6064 19.8696 24.8666 19.8545ZM19.869 21.5908C20.5937 21.6059 20.9561 21.3492 21.0165 20.8812C21.092 20.3829 20.8051 20.0357 20.2012 19.93C19.4614 19.8092 18.7064 19.7186 17.9666 19.6431C17.3929 19.5827 16.9852 19.8545 16.9097 20.3376C16.8493 20.7906 17.1211 21.1831 17.6797 21.2737C18.4649 21.4247 19.25 21.5002 19.869 21.5908ZM29.8944 18.9184C29.1697 19.0995 28.3091 19.2958 27.4636 19.5223C26.9804 19.6582 26.7539 20.0357 26.8747 20.5188C26.9955 21.002 27.3428 21.2133 27.7957 21.1378C28.6714 21.002 29.517 20.7755 30.3474 20.4886C30.7852 20.3376 30.9362 19.9753 30.8456 19.5374C30.755 19.0995 30.438 18.9335 29.8944 18.9184ZM13.1351 18.3899C12.5765 18.3899 12.2896 18.5711 12.1839 18.9637C12.0631 19.3864 12.199 19.779 12.6067 19.9602C13.4371 20.3074 14.2977 20.5792 15.1734 20.7604C15.6113 20.851 15.9434 20.6094 16.0944 20.1866C16.2454 19.7639 16.0793 19.3864 15.7018 19.2354C14.8261 18.8882 13.9051 18.6315 13.1351 18.3899ZM22.315 26.5733C22.783 26.5733 23.1303 26.2109 23.1152 25.7278C23.1152 25.2597 22.7679 24.9276 22.2848 24.9276C21.8318 24.9427 21.4544 25.3201 21.4695 25.758C21.4846 26.2109 21.862 26.5733 22.315 26.5733Z" fill="white"/>
<path d="M2.59694 14.6455C2.11379 14.6455 1.61554 14.6606 1.13239 14.6455C0.407659 14.6304 0 14.268 0 13.6641C0 13.0602 0.407659 12.6978 1.13239 12.6827C2.08359 12.6676 3.04989 12.6827 4.0011 12.6676C4.13698 12.6676 4.33326 12.728 4.40876 12.5619C4.48425 12.4109 4.31817 12.2901 4.24267 12.1693C3.71423 11.3691 3.69913 10.8105 4.24267 10.4481C4.77112 10.1009 5.25427 10.282 5.81291 11.0521C6.26587 11.6862 6.71882 12.3505 7.17178 12.9847C7.50394 13.4376 7.50394 13.8755 7.20197 14.3435C6.67353 15.1286 6.17528 15.9138 5.63173 16.6838C5.23917 17.2424 4.69563 17.3632 4.22757 17.0311C3.75952 16.6989 3.69913 16.1553 4.04639 15.5816C4.21248 15.2947 4.63523 14.9928 4.48425 14.7361C4.31817 14.4492 3.83501 14.6455 3.48775 14.6304C3.20088 14.6304 2.89891 14.6455 2.59694 14.6455Z" fill="white"/>
<path d="M41.9739 14.872C41.4606 14.872 40.9623 14.872 40.449 14.872C40.1319 14.872 40.0866 14.9928 40.2678 15.2495C40.4037 15.4306 40.5396 15.6118 40.6301 15.8081C40.8717 16.2762 40.7358 16.7895 40.3433 17.0613C39.9356 17.3482 39.4072 17.318 39.075 16.8801C38.4409 16.0346 37.852 15.174 37.2481 14.2983C37.0065 13.951 37.082 13.5735 37.3085 13.2414C37.852 12.426 38.3805 11.6107 38.9391 10.8105C39.3015 10.2821 39.845 10.1613 40.298 10.4632C40.7509 10.7652 40.8566 11.3088 40.5546 11.8523C40.5094 11.9278 40.449 12.0033 40.4037 12.0939C40.2829 12.3355 39.9205 12.5468 40.0715 12.8035C40.2074 13.03 40.5999 12.8941 40.8717 12.8941C41.7323 12.9092 42.608 12.8941 43.4687 12.9092C44.1632 12.9243 44.5557 13.2565 44.5859 13.8453C44.601 14.419 44.2236 14.8116 43.5441 14.8569C43.0308 14.8871 42.5024 14.8569 41.9739 14.872C41.9739 14.8569 41.9739 14.8569 41.9739 14.872Z" fill="white"/>
<path d="M33.5336 35.0133C34.0621 34.9982 34.515 35.4512 34.515 35.9494C34.515 36.4779 34.0772 36.9157 33.5487 36.9157C33.0505 36.9157 32.6126 36.493 32.5824 35.9947C32.5673 35.4814 33.0052 35.0133 33.5336 35.0133Z" fill="white"/>
</g>
<defs>
<clipPath id="clip0_1006_3489">
<rect width="44.6009" height="57.9178" fill="white"/>
</clipPath>
</defs>
</svg>
