<svg width="37" height="62" viewBox="0 0 37 62" fill="none" xmlns="http://www.w3.org/2000/svg">
<g clip-path="url(#clip0_1006_3481)">
<path d="M19.3188 0.947388C20.4951 1.52767 20.9028 2.46867 20.9028 3.77038C20.8715 10.0907 20.8871 16.4111 20.8871 22.7315C20.8871 23.3274 20.9969 23.8607 21.4517 24.2684C21.9379 24.7076 22.5025 24.8801 23.1299 24.6448C23.7729 24.4096 24.165 23.9391 24.2277 23.2647C24.2591 22.9667 24.2591 22.6844 24.2591 22.3864C24.2591 17.5873 24.2591 12.8039 24.2591 8.00486C24.2591 7.67551 24.2747 7.34617 24.3061 7.01682C24.4629 5.68374 25.3882 4.85252 26.6586 4.89957C27.8192 4.93094 28.7758 5.91899 28.8386 7.17365C28.8543 7.33048 28.8386 7.48732 28.8386 7.64415C28.8386 16.6307 28.8386 25.6015 28.8543 34.588C28.8543 35.231 28.6817 35.4977 28.0387 35.6545C24.1963 36.6425 21.3733 39.9517 20.9499 43.8882C20.8871 44.4371 20.7774 44.9704 20.9812 45.5036C21.2635 46.2564 21.8909 46.6641 22.7221 46.6014C23.4435 46.5544 24.0395 46.0211 24.1806 45.284C24.2904 44.7351 24.2904 44.1548 24.4159 43.6059C25.0118 40.8613 27.333 38.8852 30.1403 38.7127C31.6616 38.6186 32.1948 38.054 32.1948 36.5327C32.1948 33.5059 32.1948 30.4633 32.1948 27.4364C32.1948 26.7934 32.3046 26.1818 32.6967 25.6642C33.2613 24.9271 34.0141 24.6135 34.9237 24.8017C35.849 24.9899 36.4606 25.5545 36.6959 26.4798C36.79 26.8091 36.8057 27.1385 36.8057 27.4678C36.8057 32.3924 36.8057 37.3326 36.8057 42.2571C36.8057 44.8606 35.896 47.119 34.0454 48.9696C32.6026 50.4125 31.1911 51.871 29.7168 53.2825C29.0895 53.8785 28.7915 54.5372 28.8229 55.3997C28.8699 56.6074 28.8386 57.8306 28.8386 59.0383C28.8386 60.387 28.1171 61.1085 26.7684 61.1085C19.9932 61.1085 13.2337 61.1085 6.45853 61.1085C5.09409 61.1085 4.37265 60.387 4.37265 59.0069C4.37265 57.7679 4.35697 56.5446 4.37265 55.3056C4.37265 54.741 4.26287 54.2392 4.04331 53.7216C3.11799 51.4475 2.03585 49.2205 1.36147 46.8367C0.718451 44.5783 0.404785 42.2885 0.404785 39.9517C0.404785 31.8121 0.404785 23.6881 0.404785 15.5799C0.404785 15.2819 0.436152 14.9996 0.483202 14.7016C0.702767 13.6038 1.67513 12.7883 2.71023 12.8039C3.79237 12.8196 4.702 13.5881 4.92157 14.7173C4.9843 15.0153 4.9843 15.3446 4.9843 15.6426C4.9843 19.438 4.9843 23.2333 4.99999 27.0287C4.99999 27.954 5.643 28.6284 6.53695 28.7225C7.30543 28.8009 8.10527 28.1892 8.29347 27.3737C8.34052 27.1698 8.34052 26.9503 8.34052 26.7307C8.34052 25.8524 8.34052 24.9742 8.34052 24.0959C8.34052 18.5127 8.34052 12.9451 8.34052 7.36185C8.34052 5.84057 9.2972 4.85252 10.7087 4.88389C11.7752 4.91526 12.7005 5.7151 12.8573 6.78157C12.92 7.20502 12.9357 7.64415 12.9357 8.0676C12.9357 12.9451 12.9357 17.8069 12.9357 22.6844C12.9357 23.1079 12.9044 23.5627 13.171 23.9391C13.5474 24.5037 14.0806 24.8173 14.7707 24.7389C15.445 24.6605 15.9155 24.2684 16.1822 23.6411C16.3233 23.2961 16.3233 22.9197 16.3233 22.5433C16.3233 16.27 16.339 9.98096 16.3076 3.70765C16.3076 2.4373 16.6997 1.4963 17.8916 0.963071C18.3778 0.947388 18.8483 0.947388 19.3188 0.947388ZM20.3225 31.0593C20.3069 30.134 19.4913 29.2871 18.6131 29.3028C17.7348 29.3028 16.8722 30.1497 16.9036 30.9809C16.935 31.8905 17.7191 32.706 18.566 32.706C19.4757 32.706 20.3382 31.8905 20.3225 31.0593ZM24.2434 54.9606C24.2591 53.9412 23.569 53.2041 22.6123 53.2041C21.7027 53.2041 20.9028 53.9255 20.8871 54.7724C20.8715 55.6977 21.6556 56.5446 22.5653 56.5446C23.4592 56.5603 24.2434 55.8232 24.2434 54.9606ZM8.99922 50.8045C8.98354 51.7926 9.70497 52.5611 10.646 52.5611C11.5399 52.5611 12.3398 51.8083 12.3554 50.9614C12.3711 49.989 11.634 49.2205 10.693 49.2048C9.7677 49.2205 9.0149 49.9263 8.99922 50.8045ZM6.69378 36.6268C7.61909 36.6112 8.37189 35.8897 8.37189 35.0115C8.37189 34.0705 7.55636 33.2393 6.6781 33.2549C5.75278 33.2706 4.99999 34.0391 5.03135 34.9487C5.04704 35.9211 5.76847 36.6425 6.69378 36.6268ZM12.9828 41.5514C12.9828 42.5394 13.7199 43.3079 14.6452 43.2922C15.5235 43.2766 16.339 42.5081 16.339 41.6769C16.339 40.7202 15.5705 39.936 14.6452 39.9517C13.7199 39.9517 12.9828 40.6731 12.9828 41.5514Z" fill="white"/>
</g>
<defs>
<clipPath id="clip0_1006_3481">
<rect width="36.4323" height="60.1454" fill="white" transform="translate(0.404785 0.947388)"/>
</clipPath>
</defs>
</svg>
