<svg width="67" height="54" viewBox="0 0 67 54" fill="none" xmlns="http://www.w3.org/2000/svg">
<g clip-path="url(#clip0_1006_3469)">
<path d="M0.163574 12.972C1.18273 9.43084 3.63562 6.97795 6.46853 4.85327C9.4569 2.5904 12.808 1.13939 16.5392 0.586629C18.0247 0.379343 19.5103 0.362069 20.9613 0.793916C23.7769 1.64033 25.0725 4.00685 24.2779 6.83976C23.7597 8.70534 22.7059 10.2427 21.3759 11.5901C17.9038 15.1485 13.7581 17.5495 8.88687 18.6205C7.48769 18.9315 6.07123 19.0351 4.65477 18.8105C2.51282 18.4651 0.940897 17.3941 0.163574 15.3039C0.163574 14.5266 0.163574 13.7493 0.163574 12.972ZM9.02506 12.7992C9.00778 12.7992 9.09415 12.8165 9.18052 12.7992C12.048 12.1774 14.5009 10.7955 16.5046 8.63624C16.7465 8.35986 16.9019 8.01438 16.9192 7.63436C16.9538 7.18524 16.7465 6.80521 16.2801 6.71884C15.831 6.63248 15.5373 6.92613 15.4855 7.37525C15.4509 7.738 15.2609 7.96256 15.0364 8.18712C13.7063 9.51721 12.048 10.2773 10.3724 11.02C9.75056 11.2964 9.11143 11.5555 8.38593 11.2791C8.09227 11.1582 7.79862 11.3655 7.66042 11.6764C7.52223 11.9528 7.59133 12.2292 7.79862 12.4538C8.09227 12.7474 8.48957 12.8338 9.02506 12.7992Z" fill="white"/>
<path d="M48.9452 36.6715C48.8934 44.9457 42.7612 52.1316 34.5907 53.6344C25.2282 55.3445 16.2804 49.4023 14.173 40.109C13.4647 36.9825 13.862 34.0114 15.1749 31.1093C16.9195 27.2746 19.1306 23.6989 21.3934 20.1577C24.0536 16.012 26.9038 11.9699 29.4258 7.72056C29.5985 7.4269 29.7713 7.11597 29.9267 6.82232C30.2549 6.21773 30.704 5.80316 31.4468 5.80316C32.1896 5.80316 32.656 6.20046 32.9842 6.82232C34.0724 8.91245 35.3507 10.8817 36.629 12.8509C39.3064 16.9966 42.0875 21.0732 44.5577 25.3399C46.1987 28.1555 47.7706 31.0057 48.6343 34.1668C48.8416 35.0132 48.997 35.8769 48.9452 36.6715ZM37.5272 32.3012C37.5272 31.5757 37.5099 30.833 37.5272 30.1075C37.5445 29.5029 37.2508 29.2438 36.6635 29.2438C36.128 29.2438 35.5925 29.2265 35.0398 29.2438C34.6079 29.2438 34.4179 29.0538 34.4179 28.6219C34.4352 28.0691 34.4179 27.4991 34.4179 26.9463C34.4179 26.4109 34.1588 26.1518 33.6233 26.1518C32.1205 26.1518 30.6004 26.1518 29.0976 26.1518C28.5448 26.1518 28.2684 26.4627 28.2684 26.9982C28.2684 27.4473 28.2684 27.8964 28.2684 28.3628C28.2684 29.2438 28.2684 29.2438 27.3529 29.2438C26.9383 29.2438 26.541 29.2438 26.1265 29.2438C25.4182 29.261 25.1764 29.4856 25.1764 30.1766C25.1591 31.593 25.1591 33.0267 25.1764 34.4432C25.1764 35.0996 25.4701 35.3933 26.1265 35.4105C26.662 35.4278 27.1975 35.4278 27.7502 35.4105C28.1302 35.3933 28.303 35.566 28.2857 35.946C28.2684 36.4815 28.2857 37.017 28.2857 37.5698C28.2857 38.1743 28.6139 38.5026 29.2012 38.5026C30.6695 38.5198 32.1378 38.5198 33.5888 38.5026C34.1588 38.5026 34.4525 38.1916 34.4352 37.6043C34.4352 37.0861 34.4525 36.5679 34.4352 36.0497C34.4179 35.5833 34.5907 35.376 35.0743 35.4105C35.6098 35.4451 36.1453 35.4278 36.6981 35.4105C37.2336 35.3933 37.5445 35.1342 37.5445 34.5641C37.5272 33.8213 37.5272 33.0613 37.5272 32.3012ZM31.8096 47.9686V47.9859C32.1205 47.9513 32.4487 47.8995 32.7769 47.865C37.9763 47.3468 42.7612 43.011 43.0548 36.7061C43.0721 36.2051 42.9512 35.7733 42.3466 35.756C41.7593 35.7387 41.6038 36.136 41.5866 36.6542C41.3793 41.6464 38.0282 45.4985 33.1051 46.3967C32.5523 46.5003 31.9996 46.5176 31.4468 46.5867C31.0322 46.6385 30.7386 46.8458 30.7559 47.2777C30.7731 47.7095 31.0668 47.9168 31.4986 47.9513C31.585 47.9686 31.6887 47.9686 31.8096 47.9686Z" fill="white"/>
<path d="M66.4089 24.9426C66.4089 28.4492 63.9215 30.522 60.5185 30.0211C57.392 29.5547 54.8182 28.0001 52.4344 26.0654C49.1005 23.3707 46.544 20.0886 45.2139 15.9602C44.8339 14.7856 44.6611 13.5764 44.8511 12.3327C45.1966 10.0698 46.924 8.51516 49.2214 8.39424C51.1043 8.30787 52.8662 8.75699 54.5072 9.62068C59.6721 12.3327 63.4896 16.3057 65.7525 21.7124C65.9943 22.2824 66.1152 22.9043 66.2707 23.5089C66.4089 24.0271 66.4262 24.5453 66.4089 24.9426ZM51.6225 16.4957C51.6052 16.9793 51.8471 17.4803 52.1753 17.9467C53.4362 19.795 54.9909 21.3669 56.8392 22.6279C57.271 22.9215 57.7547 23.1116 58.2556 23.2325C58.6184 23.3188 58.9466 23.2497 59.223 23.0079C59.4648 22.8006 59.6721 22.5761 59.5339 22.2306C59.3957 21.8678 59.1193 21.6606 58.7393 21.7469C58.3593 21.8333 58.0656 21.7124 57.772 21.5224C55.9237 20.365 54.4381 18.8276 53.2635 16.9793C53.1426 16.7721 53.0217 16.5648 53.0562 16.3229C53.1426 15.8047 52.9353 15.4592 52.4171 15.3901C51.9852 15.3383 51.6398 15.822 51.6225 16.4957Z" fill="white"/>
<path d="M31.3427 37.0688C29.6498 37.0688 29.6498 37.0688 29.6498 35.4105C29.6498 34.0804 29.5462 33.9768 28.2161 33.9768C26.5405 33.9768 26.5405 33.9768 26.5405 32.3012C26.5578 30.332 26.3505 30.6947 28.1815 30.6602C28.3888 30.6602 28.6134 30.6602 28.8207 30.6602C29.3389 30.6256 29.6153 30.3665 29.6153 29.8483C29.6153 29.2955 29.6325 28.7255 29.6153 28.1727C29.6153 27.7409 29.788 27.5509 30.2371 27.5682C30.9626 27.5854 31.7054 27.5854 32.4309 27.5682C32.8455 27.5509 33.0182 27.7409 33.0009 28.1382C32.9837 28.691 33.0009 29.261 33.0009 29.8138C33.0009 30.3665 33.3119 30.6429 33.8474 30.6602C34.4001 30.6774 34.9702 30.6774 35.5229 30.6602C35.9375 30.6429 36.1102 30.8329 36.093 31.2302C36.0757 31.9384 36.0757 32.6467 36.093 33.3549C36.1102 33.8558 35.8857 33.994 35.4366 33.9768C34.9874 33.9595 34.5383 33.9595 34.0719 33.9768C33.2255 33.994 33.0009 34.2186 32.9837 35.0477C32.9837 35.5141 32.9664 35.9978 32.9837 36.4642C33.0009 36.9133 32.8282 37.1033 32.3791 37.0688C32.0682 37.0515 31.7054 37.0688 31.3427 37.0688Z" fill="white"/>
</g>
<defs>
<clipPath id="clip0_1006_3469">
<rect width="66.2452" height="53.4626" fill="white" transform="translate(0.163574 0.44812)"/>
</clipPath>
</defs>
</svg>
