<svg width="56" height="50" viewBox="0 0 56 50" fill="none" xmlns="http://www.w3.org/2000/svg">
<g clip-path="url(#clip0_1006_3453)">
<path d="M55.95 30.615C55.6146 31.9422 54.7832 32.8611 53.6747 33.6196C47.5196 37.8931 41.3791 42.1959 35.2532 46.5132C32.7882 48.2489 30.0753 49.1094 27.0561 48.9781C25.2913 48.9052 23.6139 48.4093 22.0241 47.6654C20.7114 47.0383 19.3696 46.4694 18.0714 45.7985C16.4525 44.9671 14.746 44.5295 12.9228 44.6316C12.3539 44.6608 12.2227 44.4566 12.2227 43.917C12.2372 37.9515 12.2372 31.986 12.2227 26.0205C12.2227 25.4517 12.4123 25.3496 12.9373 25.3204C15.6211 25.1308 18.0714 25.7726 20.4197 27.0707C22.6367 28.2959 24.9266 29.346 27.1874 30.4837C28.9814 31.3734 30.7754 32.2485 32.5549 33.182C35.2094 34.5676 35.8366 37.8202 33.9405 40.0955C32.7882 41.4666 30.7171 42.0062 29.0252 41.3207C28.1792 40.9853 27.377 40.5477 26.5748 40.1393C24.1536 38.9287 21.7324 37.7181 19.2966 36.5075C19.1508 36.4346 19.0049 36.3471 18.8591 36.3033C18.3632 36.1137 17.9402 36.2596 17.736 36.6825C17.5318 37.0909 17.6922 37.5139 18.1735 37.7765C18.4798 37.9515 18.7861 38.0827 19.0924 38.2432C21.995 39.6872 24.8829 41.1603 27.7854 42.5897C31.4464 44.3837 35.6032 42.4438 36.5221 38.5203C36.7555 37.5285 36.7263 36.5367 36.4346 35.5595C36.3325 35.1948 36.4054 35.0052 36.7117 34.801C40.9707 31.9714 45.2151 29.1272 49.4741 26.2976C51.8078 24.7516 54.8999 25.8601 55.8042 28.5146C55.8479 28.6459 55.9063 28.7918 55.95 28.923C55.95 29.4481 55.95 30.0315 55.95 30.615Z" fill="white"/>
<path d="M46.3092 13.1853C44.3401 13.1853 42.3857 13.1707 40.4166 13.1999C39.9936 13.1999 39.7603 13.054 39.5706 12.6748C38.9289 11.333 38.2434 10.0057 37.5724 8.66381C37.3828 8.28458 37.1495 7.94912 36.6827 7.97829C36.2014 8.00746 35.9826 8.3721 35.8513 8.79508C34.9762 11.4205 34.1011 14.0313 33.2259 16.6567C33.1676 16.8171 33.1676 17.0797 32.978 17.1088C32.7446 17.1526 32.6863 16.89 32.5696 16.7296C31.9424 15.8253 31.3152 14.9502 30.7318 14.0167C30.338 13.3749 29.8421 13.1561 29.1128 13.1707C26.0061 13.1999 22.8848 13.1707 19.7781 13.1999C19.2676 13.1999 19.0342 13.0395 18.8884 12.5581C18.232 10.239 17.9841 7.90536 18.903 5.60085C19.7781 3.38385 21.5138 1.96905 23.5557 0.904311C27.0709 -0.933464 30.9214 0.247963 33.5614 2.69833C34.1594 3.25258 33.999 3.26717 34.597 2.71292C36.5077 0.962653 38.7101 -0.0729185 41.3501 0.0291802C43.5087 0.116693 45.2882 1.09392 46.9072 2.43579C49.5763 4.6382 50.2035 7.54072 49.6784 10.7933C49.5909 11.3038 49.7368 11.3913 50.1889 11.3767C50.8598 11.3475 51.5308 11.3621 52.2017 11.3767C52.931 11.3767 53.3102 11.6976 53.3248 12.281C53.3248 12.8644 52.9456 13.1999 52.2309 13.1999C50.2764 13.1853 48.2928 13.1853 46.3092 13.1853Z" fill="white"/>
<path d="M22.403 14.8626C24.5325 14.8626 26.662 14.8772 28.7915 14.848C29.1853 14.848 29.4332 14.9793 29.6374 15.3002C30.5272 16.6566 31.446 17.9839 32.3503 19.3258C32.5837 19.6758 32.8463 20.0405 33.3422 19.9676C33.8235 19.8946 33.9985 19.5008 34.1298 19.0924C34.9466 16.6421 35.7634 14.1917 36.5947 11.7559C36.6677 11.5371 36.6531 11.1871 36.9156 11.1871C37.149 11.1871 37.1927 11.5371 37.2948 11.7413C37.6886 12.5144 38.097 13.2874 38.4617 14.0896C38.7242 14.6584 39.118 14.8918 39.7452 14.8918C42.3998 14.8772 45.0543 14.8772 47.7089 14.8918C48.4382 14.8918 48.4528 14.9064 48.1319 15.519C45.5211 20.4926 41.8601 24.4891 36.8135 27.0561C34.0131 28.4709 34.261 28.4417 31.4752 27.0999C27.8288 25.3496 24.9701 22.6221 22.5197 19.4425C21.9509 18.6986 21.4258 17.9402 20.9736 17.138C20.7986 16.8317 20.5798 16.715 20.2298 16.7296C18.815 16.7442 17.3856 16.7442 15.9708 16.7296C15.2415 16.7296 14.8623 16.4087 14.8623 15.8253C14.8623 15.2418 15.2415 14.9064 15.9562 14.9064C18.1149 14.848 20.2589 14.8626 22.403 14.8626Z" fill="white"/>
<path d="M10.5748 35.0489C10.5748 38.4182 10.5748 41.7729 10.5748 45.1421C10.5748 46.1194 10.3122 46.3819 9.34957 46.3819C8.32858 46.3819 7.3076 46.3819 6.3012 46.3819C5.58651 46.3819 5.26562 46.061 5.26562 45.3463C5.26562 38.4328 5.26562 31.5338 5.26562 24.6203C5.26562 23.9202 5.58651 23.6139 6.31578 23.5993C7.35135 23.5847 8.38693 23.5993 9.4225 23.5993C10.283 23.5993 10.5748 23.891 10.5748 24.737C10.5748 28.1646 10.5748 31.6068 10.5748 35.0489Z" fill="white"/>
<path d="M3.58804 34.9906C3.58804 37.9661 3.57345 40.9561 3.60262 43.9316C3.60262 44.4858 3.45677 44.6754 2.90252 44.6463C2.14407 44.6025 1.37104 44.6171 0.612592 44.6463C0.145855 44.6608 0 44.4858 0 44.0337C0.0145855 41.8312 0.0145855 39.6288 0.0145855 37.4264C0.0145855 33.6196 0.029171 29.8274 0 26.0205C0 25.4663 0.145855 25.2767 0.700105 25.3059C1.45855 25.3496 2.23158 25.335 2.99003 25.3059C3.44218 25.2913 3.58804 25.4517 3.58804 25.9039C3.57345 28.9522 3.58804 31.9714 3.58804 34.9906Z" fill="white"/>
</g>
<defs>
<clipPath id="clip0_1006_3453">
<rect width="55.9501" height="49.0073" fill="white"/>
</clipPath>
</defs>
</svg>
