<svg width="46" height="46" viewBox="0 0 46 46" fill="none" xmlns="http://www.w3.org/2000/svg">
<g clip-path="url(#clip0_728_21888)">
<path d="M22.9999 43.4445C19.6111 43.4445 16.361 42.0982 13.9647 39.7019C11.5684 37.3056 10.2222 34.0555 10.2222 30.6667V15.3333C10.2222 11.9445 11.5684 8.69438 13.9647 6.29808C16.361 3.90178 19.6111 2.55556 22.9999 2.55556C26.3888 2.55556 29.6389 3.90178 32.0352 6.29808C34.4315 8.69438 35.7777 11.9445 35.7777 15.3333V30.6667C35.7777 32.3447 35.4472 34.0062 34.8051 35.5565C34.1629 37.1068 33.2217 38.5154 32.0352 39.7019C30.8487 40.8885 29.4401 41.8297 27.8898 42.4718C26.3395 43.1139 24.6779 43.4445 22.9999 43.4445ZM22.9999 5.11111C20.2888 5.11111 17.6888 6.18809 15.7717 8.10513C13.8547 10.0222 12.7777 12.6222 12.7777 15.3333V30.6667C12.7777 33.3778 13.8547 35.9778 15.7717 37.8949C17.6888 39.8119 20.2888 40.8889 22.9999 40.8889C25.711 40.8889 28.3111 39.8119 30.2281 37.8949C32.1452 35.9778 33.2222 33.3778 33.2222 30.6667V15.3333C33.2222 12.6222 32.1452 10.0222 30.2281 8.10513C28.3111 6.18809 25.711 5.11111 22.9999 5.11111Z" fill="black"/>
<path d="M22.9999 19.1667C22.6611 19.1667 22.336 19.032 22.0964 18.7924C21.8568 18.5528 21.7222 18.2278 21.7222 17.8889V12.7778C21.7222 12.4389 21.8568 12.1139 22.0964 11.8743C22.336 11.6346 22.6611 11.5 22.9999 11.5C23.3388 11.5 23.6638 11.6346 23.9035 11.8743C24.1431 12.1139 24.2777 12.4389 24.2777 12.7778V17.8889C24.2777 18.2278 24.1431 18.5528 23.9035 18.7924C23.6638 19.032 23.3388 19.1667 22.9999 19.1667Z" fill="black"/>
</g>
<defs>
<clipPath id="clip0_728_21888">
<rect width="46" height="46" fill="white"/>
</clipPath>
</defs>
</svg>
