<svg width="22" height="15" viewBox="0 0 22 15" fill="none" xmlns="http://www.w3.org/2000/svg">
<g clip-path="url(#clip0_1006_3752)">
<path d="M21.3219 13.4899C21.3018 13.5704 21.2615 13.651 21.2414 13.7315C21.1609 13.9731 21.1206 13.9932 20.9595 13.812C20.5971 13.4496 20.2347 13.0872 19.8521 12.7046C18.2615 11.114 16.6709 9.5033 15.0803 7.9127C14.9998 7.83216 14.9192 7.73149 14.8186 7.65096C14.6978 7.55028 14.7179 7.46975 14.8186 7.36908C15.3421 6.84559 15.8656 6.3221 16.389 5.79861C17.8991 4.28854 19.4092 2.75834 20.9192 1.24827C21.1407 1.02679 21.1609 1.02679 21.2615 1.32881C21.2817 1.38921 21.3018 1.44961 21.3421 1.53015C21.3219 5.51673 21.3219 9.5033 21.3219 13.4899Z" fill="white"/>
<path d="M10.6709 0C13.5703 0 16.4696 0 19.3689 0C19.6105 0 19.832 0.0201342 20.0736 0.100671C20.2548 0.161074 20.275 0.201342 20.134 0.342282C19.3287 1.14765 18.5233 1.95302 17.7179 2.75839C15.5636 4.89262 13.4293 7.04698 11.2951 9.18121C10.8723 9.60403 10.4495 9.60403 10.0266 9.18121C7.10718 6.26175 4.18772 3.32215 1.26826 0.38255C1.06691 0.181208 1.08705 0.161074 1.34879 0.0805369C1.55014 0.0201342 1.75148 0 1.97295 0C4.85215 0 7.75148 0 10.6709 0Z" fill="white"/>
<path d="M10.6512 15.0001C7.7519 15.0001 4.87271 15.0001 1.97338 15.0001C1.7519 15.0001 1.51029 14.9799 1.28881 14.8994C1.06734 14.839 1.06734 14.7987 1.22841 14.6377C1.99351 13.8524 2.77875 13.0873 3.54385 12.3021C4.79217 11.0538 6.04049 9.78532 7.28881 8.53699C7.49016 8.33565 7.49016 8.33565 7.6915 8.53699C8.19485 9.04035 8.71834 9.56384 9.2217 10.0672C10.0472 10.8927 11.2351 10.8927 12.0808 10.0672C12.6043 9.5437 13.1277 9.04035 13.6311 8.49672C13.7519 8.37592 13.8324 8.35578 13.9734 8.49672C16.0069 10.5504 18.0405 12.6041 20.0942 14.6377C20.2553 14.7987 20.2351 14.8189 20.0338 14.8994C19.8123 14.9799 19.5908 15.0001 19.3492 15.0001C16.47 15.0001 13.5506 15.0001 10.6512 15.0001Z" fill="white"/>
<path d="M0 7.49003C0 5.63768 0 3.78533 0 1.91285C0 1.69137 0.0402685 1.46989 0.100671 1.26855C0.181208 1.04707 0.221477 1.04707 0.38255 1.20815C0.986577 1.81217 1.57047 2.39607 2.1745 3.00009C3.58389 4.40949 4.99329 5.83902 6.40268 7.26855C6.44295 7.30882 6.46309 7.34909 6.50336 7.36922C6.6443 7.46989 6.62416 7.57056 6.50336 7.69137C5.71812 8.45647 4.91275 9.26184 4.10738 10.0672C2.87919 11.2954 1.65101 12.5437 0.402685 13.792C0.201342 13.9934 0.181208 13.9732 0.100671 13.7316C0.0201342 13.5303 0 13.3088 0 13.0873C0 11.2149 0 9.34238 0 7.49003Z" fill="white"/>
</g>
<defs>
<clipPath id="clip0_1006_3752">
<rect width="21.3221" height="15" fill="white"/>
</clipPath>
</defs>
</svg>
