<svg width="36" height="36" viewBox="0 0 36 36" fill="none" xmlns="http://www.w3.org/2000/svg">
<circle opacity="0.15" cx="18" cy="18" r="18" fill="white"/>
<g clip-path="url(#clip0_1006_3789)">
<path d="M8.63965 24.1043C8.94872 24.0656 9.23848 24.1429 9.54755 24.1429C11.2668 24.1236 12.8508 23.6407 14.2609 22.6362C14.3189 22.5976 14.3768 22.5782 14.3961 22.501C14.1643 22.4623 13.9132 22.443 13.7007 22.3657C12.3485 22.018 11.4213 21.1874 10.8804 19.9125C10.7838 19.6807 10.8032 19.6614 11.035 19.7C11.4986 19.7773 11.9622 19.7193 12.4837 19.6227C12.4065 19.5841 12.3678 19.5841 12.3292 19.5648C12.2906 19.5455 12.2519 19.5455 12.194 19.5261C10.5907 18.9466 9.64414 17.8069 9.41233 16.107C9.39301 16.0297 9.39301 15.9525 9.39301 15.8752C9.3737 15.6434 9.39301 15.6241 9.6055 15.7207C9.93389 15.8752 10.2816 15.9911 10.6293 16.0491C10.7838 16.0684 10.9191 16.0877 11.0736 16.0877C10.7838 15.8366 10.4941 15.5855 10.2623 15.2957C9.62482 14.4457 9.33506 13.5185 9.43165 12.4561C9.4896 11.9345 9.62482 11.4516 9.85662 10.988C9.99184 10.7948 9.99184 10.7948 10.1464 10.9687C10.8225 11.7607 11.5758 12.4561 12.4451 13.0356C13.9132 14.0208 15.5165 14.6582 17.2744 14.8707C17.5062 14.9094 17.738 14.9094 17.9698 14.948C18.1243 14.9673 18.1823 14.9094 18.163 14.7355C18.0471 14.0015 18.105 13.2867 18.3948 12.6106C18.9743 11.2005 20.0367 10.3505 21.5435 10.1187C22.8377 9.92555 23.9581 10.3119 24.9046 11.2005C25.0205 11.2971 25.1171 11.2971 25.2523 11.2777C25.9864 11.1039 26.6818 10.8335 27.3579 10.4664C27.4158 10.4278 27.4738 10.3505 27.5317 10.4085C27.5704 10.4471 27.5124 10.5244 27.4931 10.5823C27.2034 11.355 26.7204 11.9732 26.0443 12.4368C26.0057 12.4561 25.9864 12.4754 25.9284 12.514C26.6818 12.4175 27.3772 12.205 28.0533 11.9345C28.1113 12.0118 28.0533 12.0311 28.034 12.0697C27.5511 12.7458 27.0102 13.364 26.3341 13.8469C26.1796 13.9628 26.1409 14.0787 26.1409 14.2526C26.1602 17.6717 24.9239 20.5886 22.4514 22.9453C20.9253 24.4134 19.0709 25.2826 17.0039 25.669C16.0188 25.8428 15.0529 25.9008 14.0484 25.8428C12.2326 25.7269 10.552 25.2054 8.98736 24.2781C8.89077 24.2202 8.77487 24.1622 8.67828 24.1043C8.63965 24.1236 8.63965 24.1236 8.63965 24.1043Z" fill="white"/>
</g>
<defs>
<clipPath id="clip0_1006_3789">
<rect width="19.3943" height="15.84" fill="white" transform="translate(8.63965 10.0801)"/>
</clipPath>
</defs>
</svg>
