<svg width="36" height="36" viewBox="0 0 36 36" fill="none" xmlns="http://www.w3.org/2000/svg">
<circle opacity="0.15" cx="18" cy="18" r="18" fill="white"/>
<g clip-path="url(#clip0_1006_3790)">
<path d="M13.4193 9.36035C16.4733 9.36035 19.5274 9.36035 22.6011 9.36035C22.6208 9.36035 22.6602 9.38006 22.6799 9.38006C24.1774 9.59679 25.3005 10.3652 26.069 11.646C26.3842 12.1977 26.5615 12.7888 26.6601 13.3996C26.6601 16.4536 26.6601 19.5077 26.6601 22.5814C26.6601 22.6405 26.6404 22.6799 26.6404 22.7391C26.3054 25.005 24.3941 26.6404 22.1085 26.6601C19.3895 26.6601 16.6507 26.6601 13.9316 26.6601C13.6754 26.6601 13.3996 26.6404 13.1434 26.6009C10.9957 26.2266 9.36035 24.3153 9.36035 22.1479C9.36035 19.3697 9.36035 16.5915 9.36035 13.8134C9.36035 13.6557 9.36035 13.4981 9.38006 13.3405C9.59679 11.8627 10.3652 10.7396 11.646 9.95146C12.1977 9.6165 12.7888 9.45887 13.4193 9.36035ZM23.606 18.0102C23.606 17.1827 23.606 16.3551 23.606 15.5276C23.606 15.3305 23.5863 15.1138 23.5469 14.9167C23.271 13.4193 22.0494 12.4144 20.5323 12.3947C18.8575 12.3947 17.1827 12.3947 15.5079 12.3947C15.3305 12.3947 15.1532 12.4144 14.9759 12.4341C13.4587 12.71 12.4538 13.9316 12.4341 15.4882C12.4341 17.1432 12.4341 18.818 12.4341 20.4731C12.4341 20.6505 12.4538 20.8278 12.4735 21.0051C12.7297 22.5026 13.971 23.5469 15.4882 23.5469C17.1827 23.5469 18.8575 23.5469 20.552 23.5469C21.1628 23.5469 21.7342 23.3893 22.2465 23.0346C23.1331 22.4238 23.5863 21.5568 23.5863 20.4731C23.606 19.6653 23.606 18.8378 23.606 18.0102Z" fill="white"/>
<path d="M18.0099 22.601C17.1429 22.601 16.2957 22.601 15.4287 22.601C14.3253 22.601 13.4189 21.6946 13.4189 20.5912C13.4189 18.877 13.4189 17.1431 13.4189 15.4289C13.4189 14.3058 14.3253 13.4191 15.4287 13.3994C17.1626 13.3994 18.8768 13.3994 20.6107 13.3994C21.7141 13.3994 22.6205 14.3058 22.6205 15.4092C22.6205 17.1431 22.6205 18.8573 22.6205 20.5912C22.6205 21.6946 21.7141 22.601 20.6107 22.601C20.591 22.601 20.5713 22.601 20.5516 22.601C19.7044 22.601 18.8571 22.601 18.0099 22.601ZM20.5319 17.9903C20.5319 16.6111 19.3891 15.4683 18.0099 15.4683C16.6306 15.4683 15.4878 16.6111 15.4878 17.9903C15.4878 19.3696 16.6306 20.5124 18.0099 20.5124C19.3891 20.5124 20.5319 19.3696 20.5319 17.9903ZM21.3989 15.0939C21.3989 14.8378 21.1624 14.6013 20.9063 14.621C20.6501 14.621 20.4137 14.8575 20.4334 15.1136C20.4334 15.3698 20.6698 15.6062 20.926 15.5865C21.1821 15.5865 21.3989 15.3304 21.3989 15.0939Z" fill="white"/>
<path d="M18.0105 19.5277C17.1633 19.5277 16.4736 18.8578 16.4736 18.0105C16.4736 17.1436 17.1436 16.4736 18.0105 16.4736C18.8578 16.4736 19.5277 17.1436 19.5277 18.0105C19.5474 18.8578 18.8775 19.5277 18.0105 19.5277Z" fill="white"/>
</g>
<defs>
<clipPath id="clip0_1006_3790">
<rect width="17.28" height="17.28" fill="white" transform="translate(9.36035 9.36035)"/>
</clipPath>
</defs>
</svg>
