<svg width="36" height="36" viewBox="0 0 36 36" fill="none" xmlns="http://www.w3.org/2000/svg">
<circle opacity="0.15" cx="18" cy="18" r="18" fill="white"/>
<g clip-path="url(#clip0_1006_3788)">
<path d="M21.3991 8.63965C21.7765 8.66984 22.169 8.71513 22.5464 8.73023C22.6823 8.74533 22.7276 8.79062 22.7276 8.94158C22.7276 9.8172 22.7276 10.6928 22.7276 11.5684C22.7276 11.7194 22.6672 11.7647 22.5162 11.7647C21.8822 11.7647 21.2481 11.7345 20.614 11.7949C20.448 11.81 20.2819 11.8402 20.1158 11.8855C19.6629 12.0364 19.4365 12.3686 19.361 12.8215C19.3308 12.9875 19.3157 13.1536 19.3157 13.3347C19.3157 13.9839 19.3157 14.618 19.3157 15.2671C19.3157 15.4181 19.361 15.4634 19.512 15.4634C20.4631 15.4634 21.4142 15.4634 22.3653 15.4634C22.6068 15.4634 22.6068 15.4634 22.5766 15.7049C22.4558 16.6862 22.32 17.6675 22.1992 18.6488C22.1841 18.7998 22.0935 18.83 21.9576 18.83C21.1575 18.83 20.3423 18.83 19.5422 18.83C19.3006 18.83 19.3006 18.83 19.3006 19.0715C19.3006 21.7286 19.3006 24.3856 19.3006 27.0577C19.3006 27.3446 19.3006 27.3446 19.0138 27.3446C18.0476 27.3446 17.0814 27.3446 16.1001 27.3446C15.8133 27.3446 15.8133 27.3446 15.8133 27.0577C15.8133 24.4158 15.8133 21.7889 15.8133 19.147C15.8133 18.83 15.8133 18.83 15.4811 18.83C14.7112 18.83 13.9413 18.83 13.1713 18.83C13.0203 18.8451 12.96 18.7847 12.96 18.6035C12.96 17.6222 12.96 16.656 12.96 15.6747C12.96 15.4936 13.0203 15.4483 13.1864 15.4483C13.9865 15.4483 14.7716 15.4483 15.5717 15.4483C15.8283 15.4483 15.8283 15.4483 15.8283 15.1766C15.8283 14.4821 15.8133 13.7876 15.8283 13.0932C15.8434 12.3987 15.9189 11.7043 16.1756 11.0551C16.6889 9.8021 17.64 9.04726 18.9685 8.74533C19.1647 8.70004 19.361 8.66984 19.5573 8.63965C20.1762 8.63965 20.7801 8.63965 21.3991 8.63965Z" fill="white"/>
</g>
<defs>
<clipPath id="clip0_1006_3788">
<rect width="9.76761" height="18.72" fill="white" transform="translate(12.96 8.63965)"/>
</clipPath>
</defs>
</svg>
