<svg width="51" height="50" viewBox="0 0 51 50" fill="none" xmlns="http://www.w3.org/2000/svg">
<g clip-path="url(#clip0_1006_3374)">
<g clip-path="url(#clip1_1006_3374)">
<path fill-rule="evenodd" clip-rule="evenodd" d="M27.8259 47.6327C28.4878 48.2928 28.0568 49.4715 27.1221 49.4715H4.14625C3.77778 49.4715 3.45209 49.1851 3.45209 48.8167V1.76717C3.45209 1.3987 3.77777 1.1123 4.14624 1.1123H25.6973C26.0171 1.1123 26.3035 1.35926 26.3035 1.67901V11.7413C26.3035 12.4087 26.3035 12.4213 27.001 12.4213C27.8446 12.4213 28.6875 12.4221 29.53 12.4229H29.5301C32.056 12.4253 34.5784 12.4276 37.1079 12.4087C37.5644 12.4087 37.7039 12.5347 37.7039 13.0006C37.6912 16.4764 37.6912 19.9523 37.7039 23.4407C37.7039 23.894 37.5644 24.0326 37.1079 24.0326C35.6816 24.0137 34.2625 24.016 32.8398 24.0184C32.3651 24.0192 31.89 24.02 31.414 24.02C31.0281 24.02 30.6413 24.0192 30.2542 24.0184H30.253H30.2529C29.0886 24.016 27.9208 24.0137 26.7601 24.0326C26.3416 24.0326 26.2021 23.894 26.2274 23.491C26.2528 22.9621 26.2401 22.4206 26.2274 21.8917C26.2274 21.199 26.2274 21.199 25.5427 21.199H13.3941C12.9883 21.199 12.5825 21.2004 12.1767 21.2018C11.3651 21.2046 10.5535 21.2074 9.74194 21.199C9.36151 21.199 9.19665 21.3124 9.20933 21.7154C9.2262 22.0587 9.22064 22.4019 9.21501 22.7489V22.749C9.21218 22.9239 9.20933 23.0997 9.20933 23.277C9.20933 23.6268 9.20933 23.7999 9.2959 23.8856C9.38075 23.9696 9.54876 23.9696 9.88143 23.9696H22.6006C22.6704 23.9696 22.7344 23.9692 22.7931 23.9688C23.1176 23.9665 23.28 23.9654 23.3608 24.0461C23.4419 24.127 23.4408 24.2902 23.4385 24.6172C23.438 24.677 23.4376 24.7422 23.4376 24.8134C23.4563 26.419 23.4456 28.0247 23.4349 29.6304C23.4167 32.3695 23.3984 35.1086 23.5264 37.8477C23.6785 41.0591 24.8072 43.9178 26.7601 46.4617C27.094 46.8717 27.4518 47.2598 27.8259 47.6327ZM19.1387 18.2647C22.2709 18.2647 25.4032 18.2647 28.5227 18.2773C28.9285 18.2773 29.0934 18.1514 29.0807 17.7358C29.0638 17.4 29.0694 17.0641 29.0751 16.7283C29.0779 16.5604 29.0807 16.3925 29.0807 16.2246V16.2245C29.0807 15.8622 29.0807 15.6828 28.991 15.5939C28.903 15.5067 28.7286 15.5067 28.3832 15.5067H10.0336C9.99508 15.5067 9.958 15.5082 9.92139 15.5096H9.92137C9.84953 15.5124 9.77949 15.5151 9.7039 15.5067C9.36151 15.4815 9.20933 15.6201 9.22201 15.9727C9.23046 16.3416 9.22766 16.705 9.22484 17.0702V17.0702V17.0703C9.22343 17.2536 9.22201 17.4373 9.22201 17.6224C9.22201 18.2521 9.2347 18.2647 9.85607 18.2647H19.1387ZM14.8778 26.8409C14.4494 26.8409 14.0219 26.8417 13.5947 26.8425C12.3147 26.8449 11.0382 26.8472 9.75462 26.8283C9.33614 26.8283 9.19665 26.9669 9.20933 27.3825C9.2347 27.9492 9.2347 28.5159 9.20933 29.0826C9.19665 29.473 9.33614 29.6115 9.72926 29.6115C10.337 29.6031 10.9448 29.6059 11.5563 29.6087C11.8634 29.6101 12.1716 29.6115 12.4811 29.6115C13.1058 29.6115 13.7306 29.6107 14.3552 29.6099H14.3553C16.2281 29.6076 18.0991 29.6052 19.963 29.6241C20.4068 29.6241 20.559 29.473 20.5336 29.0448C20.5082 28.5159 20.5082 27.9743 20.5336 27.4454C20.559 26.9921 20.3941 26.8409 19.9376 26.8409C18.8217 26.8493 17.6944 26.8465 16.5672 26.8437C16.0036 26.8423 15.44 26.8409 14.8778 26.8409ZM14.8905 35.266H19.9122C20.5336 35.266 20.5463 35.2534 20.5463 34.6237C20.5463 34.4386 20.5449 34.2549 20.5435 34.0716V34.0715V34.0714C20.5406 33.7062 20.5378 33.3429 20.5463 32.974C20.559 32.6214 20.4068 32.508 20.0644 32.508C16.6024 32.5206 13.1405 32.5206 9.69122 32.508C9.33614 32.508 9.20933 32.6466 9.22201 32.9866V32.9866C9.2347 33.5533 9.24738 34.12 9.22201 34.6867C9.19665 35.1527 9.37419 35.2912 9.81803 35.2786C11.0821 35.2597 12.3463 35.2621 13.6157 35.2644H13.6161C14.0403 35.2652 14.465 35.266 14.8905 35.266ZM35.5378 49.3043L35.5367 49.3039L35.5366 49.3038C34.5811 48.9216 33.6185 48.5365 32.7333 47.9981C28.9289 45.6934 26.7351 42.3687 26.2659 37.9484C26.2355 37.6664 26.2375 37.3764 26.2395 37.0847L26.2395 37.0842C26.24 37.0113 26.2405 36.9383 26.2405 36.8654C26.2405 36.0751 26.2413 35.2848 26.2421 34.4945V34.4939C26.2445 32.1234 26.2469 29.7529 26.2278 27.3824C26.2278 26.9039 26.38 26.7653 26.8492 26.7779C33.1137 26.7905 39.3655 26.7905 45.63 26.7779C46.0992 26.7779 46.2514 26.9039 46.2514 27.3824C46.2387 28.9503 46.2419 30.5151 46.245 32.0798C46.2482 33.6446 46.2514 35.2093 46.2387 36.7772C46.2007 41.6005 44.0449 45.2653 39.9869 47.8595C38.9466 48.528 37.7883 48.9853 36.6486 49.4353L36.5249 49.4841C36.3347 49.4715 36.1445 49.4715 35.9543 49.4715C35.8158 49.4155 35.6768 49.36 35.5378 49.3043ZM39.0865 38.0995C39.1922 38.0995 39.2979 38.0981 39.4036 38.0967H39.4038C39.6151 38.0939 39.8263 38.0911 40.0376 38.0995C40.3673 38.1121 40.4941 37.961 40.4815 37.6462C40.4688 37.0291 40.4688 36.4246 40.4815 35.8075C40.4941 35.4549 40.342 35.3289 39.9996 35.3415C39.728 35.3469 39.4564 35.3454 39.1848 35.3438H39.1844C38.8221 35.3418 38.4597 35.3397 38.0974 35.3541C37.755 35.3667 37.6155 35.2408 37.6155 34.8882C37.6209 34.6183 37.6194 34.3485 37.6178 34.0786C37.6158 33.7188 37.6137 33.359 37.6282 32.9991C37.6409 32.6213 37.4887 32.4954 37.1209 32.508C36.5249 32.5206 35.9162 32.5206 35.3202 32.508C34.9652 32.4954 34.8383 32.6465 34.851 32.9865C34.8565 33.2564 34.8549 33.5263 34.8534 33.7962C34.8513 34.156 34.8492 34.5158 34.8637 34.8756C34.8764 35.2156 34.7496 35.3541 34.3945 35.3541C34.1228 35.3487 33.851 35.3503 33.5793 35.3518C33.217 35.3539 32.8546 35.3559 32.4923 35.3415C32.1119 35.3289 31.9851 35.4801 31.9978 35.8453C32.0104 36.4372 32.0104 37.0417 31.9978 37.6336C31.9851 37.9862 32.1373 38.1121 32.4796 38.0995C32.7512 38.0941 33.0228 38.0957 33.2944 38.0972H33.2948C33.6572 38.0993 34.0195 38.1013 34.3818 38.0869C34.7242 38.0743 34.8637 38.2003 34.8637 38.5529C34.8583 38.8227 34.8598 39.0926 34.8614 39.3625C34.8634 39.7223 34.8655 40.0821 34.851 40.4419C34.8383 40.8197 34.9905 40.9457 35.3583 40.9331C35.9543 40.9205 36.563 40.9205 37.159 40.9331C37.5141 40.9457 37.6409 40.7945 37.6282 40.4545C37.6198 40.0273 37.6225 39.6001 37.6254 39.1692V39.169V39.1684C37.6268 38.9517 37.6282 38.7341 37.6282 38.5151C37.6282 38.2129 37.7296 38.0743 38.0467 38.0869C38.3029 38.1058 38.5591 38.1035 38.8206 38.1011C38.9086 38.1003 38.9972 38.0995 39.0865 38.0995ZM32.0947 9.64922C32.3713 9.65 32.6475 9.65079 32.923 9.65079H36.2962C36.3272 9.65079 36.362 9.65453 36.398 9.6584C36.524 9.67194 36.6653 9.68712 36.7146 9.55004C36.7546 9.43105 36.6609 9.3511 36.5697 9.27331C36.5451 9.25229 36.5206 9.23144 36.4991 9.21001C34.1658 6.88027 31.8198 4.55053 29.4866 2.23339L29.4864 2.23319C29.4619 2.21196 29.4383 2.18561 29.4142 2.15891C29.3385 2.07472 29.2595 1.98692 29.144 2.04428C29.0226 2.09906 29.026 2.24915 29.029 2.37847C29.0294 2.3978 29.0299 2.41667 29.0299 2.43468C29.0299 3.17724 29.0313 3.92119 29.0327 4.6656C29.0355 6.15584 29.0383 7.64795 29.0299 9.13445C29.0299 9.55004 29.1947 9.67597 29.6005 9.66338C30.4283 9.64448 31.2633 9.64685 32.0947 9.64922Z" fill="black"/>
</g>
</g>
<defs>
<clipPath id="clip0_1006_3374">
<rect width="50.0787" height="49.6546" fill="white"/>
</clipPath>
<clipPath id="clip1_1006_3374">
<rect width="42.7989" height="48.3592" fill="white" transform="translate(3.45209 1.1123)"/>
</clipPath>
</defs>
</svg>
