<svg width="36" height="36" viewBox="0 0 36 36" fill="none" xmlns="http://www.w3.org/2000/svg">
<circle opacity="0.15" cx="18" cy="18" r="18" fill="white"/>
<g clip-path="url(#clip0_1006_3791)">
<path d="M18.9236 16.5857C19.2042 16.2116 19.4848 15.8842 19.8589 15.6036C20.4903 15.136 21.1918 14.8788 21.9868 14.832C22.5714 14.7852 23.1559 14.832 23.7171 14.9723C24.9564 15.2529 25.7748 15.9778 26.2191 17.1469C26.4529 17.7782 26.5698 18.4563 26.5932 19.1111C26.6868 21.5429 26.6166 23.9747 26.64 26.3832C26.64 26.5936 26.5465 26.6404 26.3828 26.617C25.3773 26.617 24.3485 26.617 23.343 26.617C23.039 26.617 23.0156 26.617 23.0156 26.2896C23.0156 24.5593 23.0156 22.8056 23.0156 21.0752C23.0156 20.6076 23.039 20.1399 22.9689 19.6956C22.9221 19.415 22.8753 19.1578 22.7584 18.9006C22.4544 18.1758 21.7997 17.9185 21.0281 17.9653C20.9112 17.9653 20.7709 17.9887 20.654 18.0121C19.8589 18.1758 19.3679 18.7136 19.2042 19.6021C19.1107 20.1165 19.0873 20.6543 19.0873 21.1688C19.0873 22.8757 19.0873 24.6061 19.0873 26.313C19.0873 26.617 19.0873 26.617 18.7833 26.617C17.7779 26.617 16.749 26.617 15.7435 26.617C15.5565 26.617 15.4863 26.5702 15.4863 26.3598C15.4863 22.6653 15.4863 18.9708 15.4863 15.2996C15.4863 15.1126 15.5331 15.0424 15.7202 15.0658C16.7256 15.0658 17.7077 15.0658 18.7132 15.0658C18.9236 15.0658 18.9704 15.136 18.9704 15.323C18.9236 15.7439 18.9236 16.1648 18.9236 16.5857Z" fill="white"/>
<path d="M13.265 20.8878C13.265 22.7117 13.265 24.5122 13.265 26.3361C13.265 26.64 13.265 26.64 12.961 26.64C11.9322 26.64 10.9033 26.64 9.89784 26.64C9.68739 26.64 9.64062 26.5699 9.64062 26.3828C9.64062 22.7117 9.64062 19.0406 9.64062 15.3695C9.64062 15.1824 9.68739 15.0889 9.89784 15.0889C10.9267 15.0889 11.9789 15.0889 13.0078 15.0889C13.2182 15.0889 13.265 15.159 13.265 15.3461C13.265 17.1933 13.265 19.0406 13.265 20.8878Z" fill="white"/>
<path d="M11.4648 13.5459C10.2957 13.5459 9.36035 12.6106 9.36035 11.4414C9.36035 10.2957 10.2957 9.36035 11.4414 9.36035C12.5872 9.36035 13.5459 10.2957 13.5459 11.4414C13.5459 12.5872 12.6106 13.5459 11.4648 13.5459Z" fill="white"/>
</g>
<defs>
<clipPath id="clip0_1006_3791">
<rect width="17.28" height="17.28" fill="white" transform="translate(9.36035 9.36035)"/>
</clipPath>
</defs>
</svg>
