<svg width="52" height="54" viewBox="0 0 52 54" fill="none" xmlns="http://www.w3.org/2000/svg">
<g clip-path="url(#clip0_1006_3460)">
<path d="M27.7366 34.6936C27.6601 32.7368 27.7519 30.6882 27.9659 28.6243C27.9659 28.5631 27.9659 28.502 27.9812 28.4561C28.0423 28.2726 27.9506 27.9822 28.1799 27.9057C28.3634 27.8446 28.501 28.0586 28.6539 28.1809C30.2591 29.511 31.9102 30.7799 33.4543 32.1864C34.9984 33.5929 37.6127 33.7764 39.5084 32.8132C42.7801 31.1468 43.4681 26.7897 40.5175 24.1601C38.1325 22.0351 35.6711 20.0018 33.2403 17.9379C32.002 16.883 31.2987 15.6294 31.3599 13.9477C31.421 12.4341 31.3904 10.9359 31.3599 9.42238C31.3599 9.0096 31.4975 8.74971 31.8491 8.53567C33.5461 7.51137 35.3042 7.55723 37.0776 8.29106C39.0651 9.11662 40.5939 10.569 41.9698 12.1742C44.8287 15.5223 46.7703 19.3749 48.3144 23.4569C49.8891 27.6305 50.9134 31.9265 51.3567 36.36C51.7695 40.4573 51.8459 44.5545 51.158 48.6364C50.9439 49.8442 50.5923 51.0214 49.8891 52.0457C48.7425 53.7121 47.0608 54.293 45.1345 53.6509C44.1102 53.3146 43.1164 52.8712 42.245 52.2597C40.5939 51.1284 38.7899 50.792 36.833 50.7156C34.4786 50.6239 32.3077 49.9359 30.6719 48.1013C29.4336 46.7254 28.8068 45.0437 28.394 43.2856C28.2105 42.4753 28.0576 41.6345 27.9506 40.8089C27.7213 38.8214 27.6907 36.8187 27.7366 34.6936Z" fill="white"/>
<path d="M20.4594 11.9602C20.4594 12.7857 20.4594 13.596 20.4594 14.4215C20.4441 15.5834 19.9854 16.5466 19.1293 17.2957C16.7291 19.3749 14.3288 21.4388 11.898 23.4721C10.4303 24.6952 9.45191 26.1475 9.4672 28.1197C9.4672 30.6422 11.577 32.9355 14.0842 33.2718C15.8882 33.5164 17.4323 33.0272 18.793 31.85C20.2453 30.6117 21.7283 29.4039 23.1959 28.1961C23.3335 28.0738 23.4864 27.8598 23.6699 27.921C23.8992 27.9974 23.8533 28.2879 23.8533 28.4713C23.9298 30.046 24.2049 31.5901 24.0368 33.2106C23.8533 34.8923 24.0062 36.6046 23.8992 38.3016C23.7463 40.656 23.4711 42.9798 22.6456 45.1965C21.3919 48.5446 18.9 50.1652 15.4449 50.5168C14.6499 50.5932 13.8396 50.6391 13.0446 50.6391C12.4331 50.6391 11.8827 50.8226 11.3476 51.0977C10.2316 51.6787 9.13086 52.2902 8.01483 52.8865C7.44917 53.1769 6.86822 53.4063 6.25669 53.5744C4.62087 54.0484 3.32138 53.498 2.26649 52.2596C1.16575 50.9754 0.798836 49.3702 0.584802 47.7649C0.0191415 43.7594 0.080294 39.7692 0.538938 35.7638C1.25748 29.6332 2.96975 23.8085 5.81334 18.32C7.21985 15.614 8.90154 13.0915 11.0877 10.9359C12.1885 9.8504 13.3962 8.93311 14.818 8.32159C16.5456 7.58776 18.2579 7.55718 19.9701 8.41332C20.3371 8.59678 20.4899 8.84139 20.4899 9.26945C20.4441 10.1562 20.4594 11.0582 20.4594 11.9602Z" fill="white"/>
<path d="M27.7974 8.29108C27.7974 10.1562 27.7974 12.0367 27.7974 13.9018C27.8127 16.4091 28.6688 18.5035 30.641 20.1394C33.1176 22.2033 35.5637 24.3283 38.0098 26.4228C38.9118 27.2025 39.0341 28.0586 38.3462 28.8536C37.3677 30.0002 36.2823 30.2295 35.3803 29.4651C32.766 27.2331 30.1364 25.001 27.5375 22.7689C26.9259 22.2491 26.4214 21.6223 25.9781 20.9344C25.8405 20.7356 25.7335 20.5827 25.5347 20.8885C24.5563 22.4785 23.0428 23.5028 21.6821 24.6952C19.9393 26.2088 18.1658 27.707 16.4077 29.2052C16.1631 29.4193 15.9185 29.6333 15.5974 29.7403C14.8025 30.0308 14.0228 29.8626 13.5641 29.2817C12.9832 28.5784 12.9526 27.8599 13.4418 27.0649C13.7476 26.5757 14.2215 26.2699 14.6343 25.9183C16.8511 24.0226 19.0678 22.1115 21.2999 20.2311C23.1804 18.6411 24.0212 16.5925 24.0365 14.177C24.0518 10.2174 24.0365 6.27304 24.0518 2.31342C24.0518 1.12095 24.7703 0.432983 25.9475 0.432983C27.0635 0.448272 27.7821 1.13624 27.7821 2.25227C27.8127 4.28559 27.7974 6.28833 27.7974 8.29108Z" fill="white"/>
</g>
<defs>
<clipPath id="clip0_1006_3460">
<rect width="51.521" height="53.4626" fill="white" transform="translate(0.172363 0.44812)"/>
</clipPath>
</defs>
</svg>
