<svg width="50" height="50" viewBox="0 0 50 50" fill="none" xmlns="http://www.w3.org/2000/svg">
<g clip-path="url(#clip0_1006_3448)">
<path d="M30.0781 9.96875H2.98438V4.78125C2.98438 4.34079 3.34079 3.98438 3.78125 3.98438H29.2812C29.7217 3.98438 30.0781 4.34079 30.0781 4.78125V9.96875ZM20.5156 46.2188C20.5156 46.4995 20.5732 46.7651 20.6625 47.0156H5.375C4.93454 47.0156 4.57812 46.6592 4.57812 46.2188V9.5625H28.4844V18.3281H23.7031C24.1436 18.3281 24.5 17.9717 24.5 17.5312V12.75C24.5 12.3095 24.1436 11.9531 23.7031 11.9531H18.9219C18.4814 11.9531 18.125 12.3095 18.125 12.75V17.5312C18.125 17.9717 18.4814 18.3281 18.9219 18.3281H22.1094C21.0719 18.3281 20.1956 18.9963 19.8656 19.9219H18.9219C18.4814 19.9219 18.125 20.2783 18.125 20.7188V25.5C18.125 25.9405 18.4814 26.2969 18.9219 26.2969H19.7188H20.5156V27.8906H18.9219C18.4814 27.8906 18.125 28.247 18.125 28.6875V33.4688C18.125 33.9092 18.4814 34.2656 18.9219 34.2656H20.5156V35.8594H18.9219C18.4814 35.8594 18.125 36.2158 18.125 36.6562V41.4375C18.125 41.878 18.4814 42.2344 18.9219 42.2344H20.5156V46.2188ZM14.9375 36.6562C14.9375 36.2158 14.5811 35.8594 14.1406 35.8594H9.35938C8.91891 35.8594 8.5625 36.2158 8.5625 36.6562V41.4375C8.5625 41.878 8.91891 42.2344 9.35938 42.2344H14.1406C14.5811 42.2344 14.9375 41.878 14.9375 41.4375V36.6562ZM14.9375 28.6875C14.9375 28.247 14.5811 27.8906 14.1406 27.8906H9.35938C8.91891 27.8906 8.5625 28.247 8.5625 28.6875V33.4688C8.5625 33.9092 8.91891 34.2656 9.35938 34.2656H14.1406C14.5811 34.2656 14.9375 33.9092 14.9375 33.4688V28.6875ZM14.9375 20.7188C14.9375 20.2783 14.5811 19.9219 14.1406 19.9219H9.35938C8.91891 19.9219 8.5625 20.2783 8.5625 20.7188V25.5C8.5625 25.9405 8.91891 26.2969 9.35938 26.2969H14.1406C14.5811 26.2969 14.9375 25.9405 14.9375 25.5V20.7188ZM14.9375 12.75C14.9375 12.3095 14.5811 11.9531 14.1406 11.9531H9.35938C8.91891 11.9531 8.5625 12.3095 8.5625 12.75V17.5312C8.5625 17.9717 8.91891 18.3281 9.35938 18.3281H14.1406C14.5811 18.3281 14.9375 17.9717 14.9375 17.5312V12.75ZM35.6562 35.0625H34.0625V36.6562H35.6562V35.0625ZM35.6562 28.6875H34.0625V30.2812H35.6562V28.6875ZM35.6562 31.875H34.0625V33.4688H35.6562V31.875ZM38.8438 35.0625H37.25V36.6562H38.8438V35.0625ZM44.4219 19.9219H22.1094C21.6689 19.9219 21.3125 20.2783 21.3125 20.7188V25.7031H45.2188V20.7188C45.2188 20.2783 44.8623 19.9219 44.4219 19.9219ZM30.875 47.0156H35.6562V40.6406H30.875V47.0156ZM38.8438 31.875H37.25V33.4688H38.8438V31.875ZM38.8438 28.6875H37.25V30.2812H38.8438V28.6875ZM29.2812 35.0625H27.6875V36.6562H29.2812V35.0625ZM22.1094 26.2969H44.4219V46.2188C44.4219 46.6592 44.0655 47.0156 43.625 47.0156H37.25V39.8438C37.25 39.4033 36.8936 39.0469 36.4531 39.0469H30.0781C29.6377 39.0469 29.2812 39.4033 29.2812 39.8438V47.0156H22.9062C22.4658 47.0156 22.1094 46.6592 22.1094 46.2188V26.2969ZM26.0938 37.4531C26.0938 37.8936 26.4502 38.25 26.8906 38.25H39.6406C40.0811 38.25 40.4375 37.8936 40.4375 37.4531V27.8906C40.4375 27.4502 40.0811 27.0938 39.6406 27.0938H26.8906C26.4502 27.0938 26.0938 27.4502 26.0938 27.8906V37.4531ZM29.2812 31.875H27.6875V33.4688H29.2812V31.875ZM32.4688 31.875H30.875V33.4688H32.4688V31.875ZM29.2812 28.6875H27.6875V30.2812H29.2812V28.6875ZM32.4688 28.6875H30.875V30.2812H32.4688V28.6875ZM32.4688 35.0625H30.875V36.6562H32.4688V35.0625Z" fill="black"/>
</g>
<defs>
<clipPath id="clip0_1006_3448">
<rect width="49.966" height="49.6546" fill="white"/>
</clipPath>
</defs>
</svg>
