<svg width="51" height="50" viewBox="0 0 51 50" fill="none" xmlns="http://www.w3.org/2000/svg">
<g clip-path="url(#clip0_1006_3324)">
<g clip-path="url(#clip1_1006_3324)">
<path d="M45.25 47.9717H44.5V13.4717C44.5 13.2728 44.421 13.082 44.2803 12.9413C44.1397 12.8007 43.9489 12.7217 43.75 12.7217H37V8.22168C37 8.02277 36.921 7.832 36.7803 7.69135C36.6397 7.5507 36.4489 7.47168 36.25 7.47168H13.75C13.5511 7.47168 13.3603 7.5507 13.2197 7.69135C13.079 7.832 13 8.02277 13 8.22168V28.4717H6.25C6.05109 28.4717 5.86032 28.5507 5.71967 28.6913C5.57902 28.832 5.5 29.0228 5.5 29.2217V47.9717H4.75C4.55109 47.9717 4.36032 48.0507 4.21967 48.1913C4.07902 48.332 4 48.5228 4 48.7217C4 48.9206 4.07902 49.1114 4.21967 49.252C4.36032 49.3927 4.55109 49.4717 4.75 49.4717H45.25C45.4489 49.4717 45.6397 49.3927 45.7803 49.252C45.921 49.1114 46 48.9206 46 48.7217C46 48.5228 45.921 48.332 45.7803 48.1913C45.6397 48.0507 45.4489 47.9717 45.25 47.9717ZM31.75 38.2217H18.25V36.7217H31.75V38.2217ZM19.75 18.7217V21.7217H16.75V18.7217H19.75ZM16.75 14.9717V11.9717H19.75V14.9717H16.75ZM19.75 25.4717V28.4717H16.75V25.4717H19.75ZM26.5 18.7217V21.7217H23.5V18.7217H26.5ZM23.5 14.9717V11.9717H26.5V14.9717H23.5ZM26.5 25.4717V28.4717H23.5V25.4717H26.5ZM33.25 25.4717V28.4717H30.25V25.4717H33.25ZM30.25 21.7217V18.7217H33.25V21.7217H30.25ZM33.25 14.9717H30.25V11.9717H33.25V14.9717ZM7 29.9717H13V31.4717H10.75C10.5511 31.4717 10.3603 31.5507 10.2197 31.6913C10.079 31.832 10 32.0228 10 32.2217V35.9717C10 36.1706 10.079 36.3614 10.2197 36.502C10.3603 36.6427 10.5511 36.7217 10.75 36.7217H13V47.9717H7V29.9717ZM21.25 39.7217H24.25V47.9717H21.25V39.7217ZM25.75 47.9717V39.7217H28.75V47.9717H25.75ZM37 47.9717V36.7217H39.25C39.4489 36.7217 39.6397 36.6427 39.7803 36.502C39.921 36.3614 40 36.1706 40 35.9717V32.2217C40 32.0228 39.921 31.832 39.7803 31.6913C39.6397 31.5507 39.4489 31.4717 39.25 31.4717H37V14.2217H43V47.9717H37Z" fill="black"/>
<path d="M24 3.39897C24 2.7297 24 2.08617 24 1.4169C24 1.23671 24.0249 1.05653 24.0249 0.902079C24.0749 0.490221 24.3746 0.181327 24.7492 0.129845C25.1988 0.0783627 25.5485 0.284292 25.6733 0.69615C25.7483 0.953561 25.8732 0.979302 26.0979 0.979302C27.3717 0.979302 28.6705 0.979302 29.9442 0.979302C30.2939 0.979302 30.3189 1.00504 30.144 1.31394C29.9442 1.70005 29.7194 2.11191 29.4947 2.49803C29.3948 2.67822 29.3948 2.83266 29.4947 3.01285C29.7194 3.39897 29.9193 3.81083 30.144 4.19694C30.3189 4.53158 30.2939 4.58306 29.9442 4.58306C28.6954 4.58306 27.4716 4.58306 26.2228 4.58306C25.7733 4.58306 25.7733 4.58306 25.7733 5.0464C25.7733 8.51882 25.7733 8.51882 24.8242 8.51882C24.6493 8.51882 24.4745 8.51882 24.2997 8.51882C24.0499 8.54456 23.95 8.41586 23.95 8.18419C24 7.41195 24 4.14546 24 3.39897Z" fill="black"/>
</g>
</g>
<defs>
<clipPath id="clip0_1006_3324">
<rect width="50.0787" height="49.6546" fill="white"/>
</clipPath>
<clipPath id="clip1_1006_3324">
<rect width="50" height="50" fill="white" transform="translate(0 -0.52832)"/>
</clipPath>
</defs>
</svg>
