<svg width="43" height="49" viewBox="0 0 43 49" fill="none" xmlns="http://www.w3.org/2000/svg">
<g clip-path="url(#clip0_1006_3278)">
<path fill-rule="evenodd" clip-rule="evenodd" d="M13.9459 2.49088C13.5769 1.14963 12.6226 0.408759 11.3502 0C10.8412 0 10.3323 0 9.81056 0.0127737C9.74694 0.0383212 9.68014 0.0638686 9.61333 0.0894161C9.54653 0.114963 9.47973 0.140511 9.41611 0.166058C7.97826 0.689781 7.10029 1.95438 7.11301 3.5C7.12574 4.99452 7.85102 6.05474 9.18707 6.66788C10.5486 7.29379 11.8337 7.05109 12.9407 6.05474C13.9968 5.09671 14.3277 3.87044 13.9459 2.49088ZM35.272 2.49088C34.8903 1.16241 33.9487 0.395985 32.6763 0H31.1621C31.0857 0.0255474 31.0126 0.0542883 30.9394 0.0830292C30.8662 0.11177 30.7931 0.140511 30.7167 0.166058C29.1389 0.779197 28.2482 2.24817 28.4391 3.90876C28.6936 5.95255 30.6149 7.31934 32.6381 6.91058C34.5976 6.5146 35.8446 4.43248 35.272 2.49088ZM42.4964 25.1577L42.4964 25.1643C42.4935 26.7908 42.4907 28.4173 42.4992 30.0438C42.4992 30.4781 42.3974 30.8358 42.1429 31.1935C40.7305 33.2053 39.3213 35.2204 37.9121 37.2354C36.5029 39.2505 35.0937 41.2655 33.6813 43.2774C33.4904 43.5456 33.4268 43.8011 33.4268 44.1205C33.4322 44.7335 33.4307 45.3489 33.4291 45.9647C33.427 46.7858 33.4249 47.6076 33.4395 48.4252C33.4395 48.8595 33.2995 49 32.8542 49C29.6477 48.9873 26.4411 48.9873 23.2346 49C22.7893 49 22.6239 48.8978 22.6239 48.4124C22.6366 43.9799 22.6366 39.5475 22.6239 35.1278C22.6239 34.8212 22.7257 34.5913 22.942 34.3741C25.1214 32.1947 27.2951 30.0097 29.4708 27.8228C30.5596 26.7283 31.6489 25.6333 32.7397 24.5383C33.4268 23.8486 34.1902 23.6953 34.9537 24.0402C35.6408 24.3595 36.0607 25.0493 36.0225 25.8157C35.9971 26.3522 35.7299 26.7737 35.3609 27.1442C34.8728 27.6341 34.3847 28.1249 33.8965 28.6158L33.884 28.6284L33.8819 28.6304L33.8808 28.6316C32.4012 30.1193 30.9199 31.6088 29.4313 33.084C29.126 33.3905 29.0751 33.5694 29.4186 33.8759C29.8767 34.2847 30.3093 34.7445 30.7292 35.1916C30.8946 35.3705 31.0219 35.4343 31.2255 35.2172C32.2689 34.157 33.3186 33.1031 34.3684 32.0493L34.3688 32.0488C35.4184 30.9951 36.468 29.9415 37.5113 28.8814C38.4147 27.9617 38.771 26.8248 38.771 25.5347C38.7456 22.1791 38.7582 18.8235 38.7709 15.4552L38.771 15.4435C38.771 15.1624 38.7837 14.8686 38.8473 14.5876C39.0127 13.7445 39.7635 13.1442 40.616 13.1314C41.4685 13.1186 42.232 13.719 42.4101 14.5621C42.4737 14.8431 42.4865 15.1241 42.4865 15.4179C42.4992 17.8577 42.4992 20.2975 42.4992 22.7245C42.4992 23.5355 42.4978 24.3466 42.4964 25.1577ZM19.8483 43.4561C19.8491 42.9069 19.8499 42.3577 19.8499 41.8084C19.8499 39.6241 19.8499 37.4398 19.8626 35.2555C19.8626 34.8595 19.7481 34.5657 19.4681 34.2847C17.054 31.8803 14.6469 29.4615 12.2417 27.0445L12.2414 27.0443L12.2412 27.044L12.2409 27.0437L12.2406 27.0434C11.4389 26.2378 10.6374 25.4324 9.83587 24.6277C9.65773 24.4617 9.47959 24.2956 9.28872 24.1679C8.24533 23.4909 6.87111 24.0018 6.52755 25.2026C6.31124 25.9562 6.553 26.5693 7.08742 27.1058C8.09266 28.1022 9.09153 29.105 10.0904 30.1077C11.0892 31.1104 12.0881 32.1132 13.0933 33.1095C13.3732 33.3777 13.3859 33.5566 13.0933 33.8248C12.6479 34.2336 12.228 34.6679 11.8209 35.115C11.5536 35.4088 11.401 35.3577 11.1465 35.1022C9.18693 33.1223 7.22739 31.1423 5.25513 29.188C4.22446 28.1533 3.69004 26.9526 3.71549 25.4708C3.74276 23.8463 3.73756 22.2152 3.73236 20.587C3.73029 19.9363 3.72821 19.2861 3.72821 18.6369C3.72821 18.2494 3.72963 17.8619 3.73104 17.4745C3.73387 16.6995 3.7367 15.9246 3.72821 15.1496C3.71549 14.0511 3.05383 13.2719 2.11223 13.1569C0.903424 13.0036 0.0127243 13.885 0.0127243 15.2774C0.00636214 17.7555 0.00636214 20.2336 0.00636214 22.7117C0.00636214 25.1898 0.00636214 27.6679 0 30.146C0 30.5164 0.101794 30.823 0.305383 31.104C1.72414 33.1223 3.13653 35.1437 4.54892 37.1651C5.96132 39.1866 7.37371 41.208 8.79248 43.2263C8.99606 43.5073 9.07241 43.7883 9.07241 44.1204C9.06605 44.8294 9.06605 45.5383 9.06605 46.2473C9.06605 46.9562 9.06605 47.6652 9.05968 48.3741C9.04696 48.8084 9.16148 48.9872 9.645 48.9872C12.8515 48.9745 16.058 48.9745 19.2646 48.9872C19.7099 48.9872 19.8626 48.8723 19.8626 48.3996C19.8435 46.7518 19.8459 45.104 19.8483 43.4561ZM6.46402 17.5766C6.43892 17.1886 6.44947 16.7668 6.46051 16.3254C6.47745 15.6477 6.49554 14.9237 6.38768 14.2044C6.23499 13.1697 5.73874 12.3139 5.00073 11.6113C4.74624 11.3941 4.70807 11.2409 4.92439 10.9854C5.58605 10.219 6.3495 9.58028 7.2402 9.10765C7.48197 8.97991 7.67283 9.00546 7.91459 9.12042C9.67054 9.95071 11.4392 9.95071 13.2079 9.15874C13.5387 9.01823 13.7932 9.031 14.0986 9.19706C14.7857 9.58027 15.3837 10.0657 15.9309 10.6277C16.1472 10.8449 16.1726 11.0109 16.0072 11.292C14.493 13.7701 14.6712 16.5036 16.5162 18.739C16.8216 19.1095 16.7707 19.25 16.3762 19.4671C14.862 20.2847 13.6532 21.4343 12.7498 22.9033C12.5081 23.2993 12.3299 23.2865 12.05 22.9671C11.3501 22.1879 10.5485 21.5365 9.50512 21.281C8.63987 21.0766 7.77462 21.0766 6.9221 21.3321C6.59127 21.4343 6.46402 21.3576 6.46402 21V17.5766ZM33.2484 21.2044C34.0754 21.0511 34.9152 21.0766 35.755 21.3704C36.0655 21.4027 36.0517 21.1998 36.0395 21.0205C36.0372 20.9867 36.035 20.9538 36.035 20.9234C36.0413 19.9333 36.0413 18.9465 36.0413 17.9596C36.0413 16.9729 36.0413 15.9862 36.0477 14.9964C36.0604 13.6551 36.544 12.5055 37.5364 11.5985C37.7782 11.3686 37.7782 11.2153 37.5746 10.9726C36.913 10.2062 36.1495 9.5803 35.2461 9.10767C35.0298 8.99271 34.8389 9.00548 34.6226 9.10767C32.8157 9.96351 31.0089 9.95073 29.202 9.12044C28.9603 9.00548 28.7567 9.01825 28.5277 9.13322C27.7642 9.5292 27.1153 10.0529 26.5299 10.6661C26.3518 10.8704 26.3264 11.0237 26.479 11.2537C28.0569 13.6423 27.7642 16.7336 25.9574 18.7901C25.6647 19.1223 25.7665 19.2628 26.11 19.4416C27.5861 20.2336 28.7821 21.3577 29.6983 22.7756C30.0673 23.3376 30.0927 23.3504 30.5381 22.865C31.2888 22.0602 32.1413 21.4088 33.2484 21.2044ZM21.2242 20.9106C24.1635 21.0511 26.3648 22.354 27.7899 24.9598C27.9681 25.2792 27.9426 25.4836 27.6754 25.7518C25.6395 27.7701 23.6291 29.7883 21.6186 31.8321C21.3133 32.1387 21.1478 32.1131 20.8552 31.8193C18.8575 29.7883 16.847 27.7828 14.8366 25.7774C14.5694 25.5091 14.5185 25.292 14.7094 24.9598C16.1345 22.3668 18.323 21.0639 21.2242 20.9106ZM24.7619 14.6897C24.7873 12.7609 23.2095 11.1514 21.2627 11.1514C19.3159 11.1514 17.7381 12.7226 17.7381 14.6642C17.7381 16.5547 19.3413 18.1642 21.2372 18.177C23.1332 18.1897 24.7237 16.6058 24.7619 14.6897Z" fill="black"/>
</g>
<defs>
<clipPath id="clip0_1006_3278">
<rect width="42.4991" height="49" fill="white"/>
</clipPath>
</defs>
</svg>
