<svg width="52" height="52" viewBox="0 0 52 52" fill="none" xmlns="http://www.w3.org/2000/svg">
<g clip-path="url(#clip0_1006_3495)">
<path d="M24.7078 8.49647C24.7078 8.43964 24.7078 8.38281 24.7078 8.34018C24.8215 7.43086 24.6794 6.79149 23.6706 6.2942C22.3066 5.6122 21.8093 3.83617 22.3066 2.40114C22.8323 0.852438 24.1679 -0.0142654 25.8871 0.0567758C27.3079 0.113609 28.6151 1.23606 28.9703 2.71372C29.3255 4.19138 28.6435 5.81112 27.2511 6.4789C26.5975 6.79149 26.427 7.1609 26.4838 7.81448C26.5407 8.42543 26.5123 9.0506 26.4838 9.67576C26.4696 10.0878 26.5833 10.2725 27.0237 10.3151C28.5867 10.4572 30.0927 10.8266 31.542 11.4376C32.9628 12.0343 34.2557 12.8158 35.435 13.8104C35.7334 14.0661 35.9039 14.0661 36.1739 13.7819C37.4242 12.4748 38.7029 11.196 39.9817 9.9173C40.2374 9.66155 40.2516 9.46264 40.0669 9.13585C37.6515 5.11491 40.4079 0.0567758 45.0824 -5.71456e-05C48.8902 -0.0426819 51.1636 3.08313 51.1636 5.89637C51.1494 9.44843 48.4356 12.1196 44.8977 12.0201C43.8463 11.9917 42.8659 11.6791 41.9992 11.0966C41.7009 10.8977 41.5162 10.9403 41.2746 11.1818C40.0101 12.4748 38.7313 13.7535 37.4384 15.0181C37.14 15.3164 37.1542 15.4869 37.41 15.7995C39.4702 18.2717 40.6353 21.1134 40.9336 24.3103C40.962 24.5944 41.0473 24.7365 41.3457 24.7223C42.255 24.7081 43.1501 24.7081 44.0594 24.7223C44.4146 24.7365 44.4857 24.495 44.5994 24.2534C45.3666 22.5626 47.1568 21.7528 48.876 22.3353C50.3253 22.8184 51.3341 24.2818 51.2488 25.7595C51.1494 27.3508 50.0411 28.658 48.4782 28.9848C46.9863 29.3116 45.3808 28.5869 44.7414 27.1945C44.4715 26.5978 44.1305 26.4415 43.5337 26.4841C42.8233 26.541 42.1129 26.4983 41.4025 26.4983C41.1041 26.4983 40.962 26.5836 40.9336 26.9104C40.6495 30.1072 39.4702 32.9489 37.41 35.4211C37.1542 35.7337 37.1258 35.9042 37.4242 36.2026C38.7313 37.4529 40.0101 38.7316 41.2888 40.0104C41.5304 40.2519 41.7151 40.2803 42.0277 40.0956C45.7218 37.9075 50.2258 39.8967 51.0925 44.0739C51.8314 47.626 49.0039 51.1354 45.395 51.1781C42.9796 51.2065 41.1325 50.1977 39.9533 48.0949C38.8166 46.0631 38.9018 43.9887 40.1238 41.9853C40.2943 41.7011 40.28 41.5449 40.0527 41.3033C38.7456 40.0104 37.4384 38.7032 36.1454 37.3961C35.9039 37.1545 35.7476 37.1403 35.4919 37.3676C33.0054 39.4562 30.1354 40.6497 26.8959 40.9481C26.5975 40.9765 26.498 41.0902 26.498 41.3744C26.5123 42.2553 26.5123 43.1504 26.498 44.0313C26.4838 44.4149 26.7254 44.5002 26.9953 44.6138C29.0839 45.5516 29.7375 48.0807 28.3593 49.8851C27.4926 51.0076 26.015 51.5048 24.6652 51.107C23.3296 50.7092 22.3066 49.5157 22.1929 48.2085C22.0651 46.6598 22.7471 45.3243 24.0968 44.7133C24.651 44.4718 24.7788 44.1734 24.7504 43.6335C24.7078 42.8946 24.7362 42.1416 24.7504 41.4028C24.7504 41.0902 24.6368 40.9765 24.3242 40.9481C21.1273 40.6497 18.2857 39.4847 15.8276 37.4245C15.5009 37.1545 15.3304 37.1829 15.0462 37.4671C13.7817 38.76 12.5029 40.0388 11.21 41.3033C10.9826 41.5307 10.9542 41.6869 11.1389 41.9711C13.4122 45.7079 11.352 50.354 7.03274 51.0928C3.04022 51.7748 0.127531 48.5637 0.0706983 45.4379C0.0280735 43.0225 1.02265 41.1612 3.09706 39.9677C5.15725 38.7885 7.27428 38.8879 9.30606 40.124C9.57602 40.2945 9.73231 40.2519 9.93122 40.0388C11.2242 38.7316 12.5313 37.4245 13.8527 36.1315C14.0942 35.89 14.0942 35.7337 13.8811 35.4779C11.892 33.091 10.7127 30.3488 10.3859 27.2372C10.3006 26.4841 10.2864 26.4983 9.56181 26.4983C8.90823 26.4983 8.25465 26.5267 7.60107 26.4841C7.11799 26.4557 6.84803 26.5836 6.63491 27.0667C6.02395 28.4306 4.74521 29.1553 3.1823 29.0274C1.7899 28.8995 0.809527 28.1323 0.312239 26.8251C-0.355549 25.0917 0.468529 23.1594 2.15931 22.4348C3.8643 21.6959 5.82504 22.3921 6.6207 24.0829C6.86224 24.5802 7.11799 24.7649 7.6579 24.7223C8.26886 24.6797 8.89402 24.7081 9.51918 24.7081C10.3148 24.7081 10.3291 24.7081 10.4143 23.9124C10.5848 22.2785 11.0253 20.7156 11.693 19.2237C12.2472 17.9876 12.9576 16.8509 13.8385 15.8137C14.1084 15.4869 14.1369 15.3022 13.8101 14.9896C12.5313 13.7393 11.2526 12.4748 10.0023 11.196C9.66127 10.9403 9.49077 10.9403 9.17819 11.1392C5.754 13.242 1.2784 11.4802 0.212781 7.61556C-0.682339 4.36187 1.33523 0.937687 4.60313 0.18465C7.97049 -0.596804 11.2952 1.54864 11.9062 4.90179C12.1903 6.45049 11.9204 7.89973 11.0821 9.2353C10.9116 9.51947 10.9116 9.67576 11.1531 9.9173C12.4603 11.196 13.739 12.489 15.0178 13.7962C15.3019 14.0803 15.4582 14.0519 15.7566 13.8104C18.1294 11.8496 20.8432 10.6845 23.8979 10.3578C24.6936 10.2725 24.6936 10.2583 24.6936 9.46264C24.7078 9.13585 24.7078 8.80906 24.7078 8.49647ZM25.5887 12.0343C18.0299 12.148 12.034 17.9876 12.034 25.6174C12.034 33.1904 17.9873 39.1437 25.5461 39.1579C33.1759 39.1721 39.1718 33.162 39.1292 25.518C39.1008 18.0018 33.1759 12.1622 25.5887 12.0343Z" fill="white"/>
<path d="M31.6978 24.7223C32.1524 24.8076 32.5218 24.6655 32.8486 24.1114C33.4312 23.1026 34.8094 22.7474 35.9034 23.202C37.0259 23.6709 37.7079 24.8786 37.4947 26.0295C37.2674 27.2656 36.2586 28.1465 35.0793 28.1891C34.0421 28.2317 33.2465 27.8055 32.7065 26.953C32.5218 26.6546 32.3087 26.5268 31.9819 26.5552C31.9109 26.5552 31.8398 26.5552 31.7688 26.5552C30.7458 26.5552 30.7458 26.5552 30.3622 27.5071C30.3622 27.5213 30.348 27.5355 30.348 27.5498C30.2627 27.9334 29.7939 28.2602 29.9644 28.6012C30.1633 29.0132 30.6037 29.2974 30.9163 29.6526C31.1579 29.9083 31.4136 29.752 31.6551 29.6952C32.6355 29.4821 33.4596 29.7662 34.1132 30.4767C34.7952 31.2013 34.9657 32.0964 34.6673 33.0483C34.2552 34.3839 32.8344 35.1227 31.4988 34.7533C30.1633 34.3697 29.325 32.9773 29.7086 31.6417C29.8365 31.1871 29.6376 30.9597 29.3676 30.6898C28.6004 29.9367 28.6004 29.9367 27.6342 30.3488C27.5916 30.363 27.5347 30.3914 27.4921 30.4056C27.1937 30.5761 26.668 30.4766 26.5686 30.8176C26.4407 31.2723 26.4975 31.798 26.526 32.2953C26.5402 32.5937 26.8527 32.6363 27.0517 32.7642C27.9468 33.3751 28.3872 34.4834 28.1457 35.5064C27.89 36.572 27.0232 37.3677 25.9292 37.5239C24.9062 37.666 23.8548 37.1403 23.3291 36.2168C22.6613 35.0659 23.0023 33.5314 24.139 32.7926C24.5368 32.5368 24.7215 32.2527 24.6647 31.8122C24.6505 31.7412 24.6647 31.6701 24.6647 31.5991C24.6647 30.7324 24.6647 30.7324 23.8406 30.4198C23.7411 30.3772 23.6417 30.3346 23.5422 30.3062C23.2012 30.2209 22.9029 29.7804 22.5903 29.9652C22.164 30.2209 21.8372 30.6471 21.482 31.0166C21.2973 31.2013 21.4678 31.4286 21.5104 31.6275C21.7378 32.6789 21.3399 33.7445 20.4875 34.3413C19.5781 34.9665 18.3988 34.9665 17.4895 34.3555C16.5091 33.6877 16.1113 32.3521 16.566 31.2439C17.0348 30.1214 18.2425 29.3826 19.3934 29.6668C19.9902 29.8089 20.3027 29.6384 20.6722 29.2405C21.3115 28.5585 21.3257 28.5727 20.9421 27.7629C20.8427 27.5498 20.729 27.3366 20.7006 27.1235C20.6437 26.5552 20.3027 26.4415 19.8197 26.4983C19.6776 26.5125 19.5355 26.5125 19.3934 26.4983C18.9388 26.4415 18.6688 26.5978 18.413 27.0098C17.8305 27.9902 16.637 28.4165 15.543 28.1039C14.4489 27.7913 13.6959 26.8535 13.6675 25.7879C13.6249 24.5234 14.2784 23.5146 15.3867 23.1452C16.4665 22.7758 17.7026 23.1026 18.3136 24.0545C18.6546 24.5944 19.0524 24.7081 19.6208 24.6797C20.5017 24.6371 20.5017 24.6655 20.8 23.8556C20.8427 23.7561 20.8853 23.6567 20.9137 23.5572C20.9989 23.2162 21.4394 22.9179 21.2547 22.6053C20.999 22.179 20.5727 21.8522 20.2033 21.497C20.047 21.3407 19.8765 21.4544 19.706 21.497C18.1715 21.8522 16.7507 20.9855 16.4665 19.5363C16.1681 18.016 17.1627 16.6378 18.7398 16.3963C20.4164 16.1405 21.9509 17.8313 21.5389 19.5079C21.4252 19.9483 21.5104 20.2183 21.823 20.5309C22.6329 21.2839 22.6187 21.2981 23.5991 20.8861C23.6275 20.8719 23.6701 20.8577 23.6985 20.8435C24.0111 20.6587 24.5652 20.7724 24.6647 20.403C24.7926 19.9483 24.7215 19.4226 24.7073 18.9253C24.7073 18.6554 24.4516 18.6128 24.2811 18.4991C23.3717 17.9166 22.9313 17.0925 23.0307 16.0269C23.1302 15.0181 23.6701 14.2792 24.6078 13.8672C25.8298 13.3415 27.2364 13.8246 27.9042 15.0181C28.5293 16.1405 28.1883 17.6466 27.1369 18.3854C26.9238 18.5275 26.597 18.5701 26.5828 18.8969C26.5544 19.4084 26.526 19.9199 26.6112 20.4314C26.6254 20.5025 28.5719 21.3407 28.6146 21.2981C28.8987 21.0566 29.1545 20.7866 29.4387 20.5451C29.7654 20.2751 29.8365 20.0052 29.737 19.5789C29.396 18.1865 30.2485 16.8225 31.6267 16.4815C32.9765 16.1405 34.3831 16.9504 34.7667 18.2718C35.1646 19.6358 34.4115 21.0424 33.0618 21.497C32.5787 21.6533 32.0814 21.696 31.5983 21.5255C31.2857 21.4118 31.0584 21.497 30.8453 21.7244C30.5753 22.0227 30.1775 22.2643 30.0354 22.6195C29.8649 23.0173 30.3196 23.3299 30.419 23.7277C30.4332 23.7988 30.4616 23.8556 30.4901 23.9266C30.7316 24.7223 30.7316 24.7223 31.6978 24.7223Z" fill="white"/>
</g>
<defs>
<clipPath id="clip0_1006_3495">
<rect width="51.2349" height="51.2349" fill="white"/>
</clipPath>
</defs>
</svg>
