<svg width="301" height="85" viewBox="0 0 301 85" fill="none" xmlns="http://www.w3.org/2000/svg">
<g clip-path="url(#clip0_1006_3633)">
<path fill-rule="evenodd" clip-rule="evenodd" d="M25.0141 63.5847C24.6308 63.2017 24.0734 63.132 23.5857 63.3409C18.7432 58.1177 15.7123 51.223 15.4336 43.597C15.8517 43.3881 16.1304 42.9702 16.1304 42.4827C16.1304 41.9952 15.8517 41.5773 15.4336 41.3684C15.7123 33.7424 18.7432 26.8477 23.5857 21.6244C24.0386 21.8682 24.6308 21.7637 25.0141 21.3807C25.3973 20.9976 25.467 20.4057 25.2579 19.953C30.4488 15.1128 37.3467 12.0484 44.9414 11.7699C45.0807 12.2922 45.5685 12.6404 46.1259 12.6404C46.6833 12.6404 47.171 12.2574 47.3104 11.7699C57.2043 12.1181 65.9138 17.2021 71.2789 24.7584C70.9305 25.2459 70.9653 25.9075 71.4182 26.3602C71.906 26.8477 72.6724 26.8477 73.1601 26.3602C73.6479 25.8727 73.6479 25.1066 73.1601 24.6191C72.8466 24.3057 72.3937 24.2012 71.9756 24.3057C66.4712 16.4708 57.483 11.2824 47.2407 10.9341C47.0665 10.4815 46.6136 10.2029 46.1259 10.2029C45.6033 10.2029 45.1852 10.5163 45.0111 10.9341C37.1377 11.2127 30.0307 14.3815 24.6657 19.3958C24.2128 19.1869 23.6902 19.2914 23.307 19.6744C22.9238 20.0574 22.8541 20.5798 23.0631 21.0325C18.0465 26.395 14.9111 33.4987 14.6323 41.2987C14.1098 41.438 13.7266 41.9255 13.7266 42.4827C13.7266 43.0398 14.1098 43.5273 14.6323 43.6666C14.9111 51.5015 18.0813 58.5704 23.0631 63.9329C22.8541 64.3856 22.9586 64.9427 23.307 65.291C23.6902 65.674 24.2128 65.7436 24.6657 65.5347C30.0307 70.5491 37.1377 73.683 45.0111 73.9616C45.1852 74.4143 45.6381 74.7277 46.1607 74.7277C46.6833 74.7277 47.1013 74.4143 47.3104 73.9616C57.5179 73.6134 66.5061 68.4249 72.0453 60.59C72.4634 60.6945 72.9163 60.59 73.2298 60.2766C73.7175 59.7891 73.7175 59.023 73.2298 58.5355C72.7421 58.048 71.9756 58.048 71.4879 58.5355C71.0698 58.9534 71.0002 59.6498 71.3486 60.1373C65.9835 67.7285 57.274 72.7776 47.38 73.1259C47.2407 72.6384 46.753 72.2553 46.1955 72.2553C45.6381 72.2553 45.1852 72.6035 45.0111 73.1259C37.4164 72.8473 30.5185 69.783 25.3276 64.9427C25.5018 64.5249 25.3973 63.9677 25.0141 63.5847Z" fill="url(#paint0_linear_1006_3633)"/>
<path fill-rule="evenodd" clip-rule="evenodd" d="M64.9036 24.9673C65.2868 25.3852 65.8791 25.4548 66.3668 25.2459C70.3383 29.912 72.7422 35.971 72.777 42.5175C72.3241 42.6916 71.9757 43.1095 71.9409 43.6318C71.906 44.1541 72.2196 44.6068 72.6725 44.8157C72.1499 51.3622 69.328 57.2123 65.043 61.565C64.5901 61.2864 63.963 61.3213 63.5449 61.7043C63.1269 62.0873 63.0572 62.7141 63.3011 63.1668C58.6328 67.1365 52.6058 69.5392 46.0563 69.6088C45.9518 69.0517 45.464 68.6687 44.9066 68.6338C44.3144 68.599 43.8266 68.982 43.6873 69.5392C34.8385 68.8428 27.2786 63.8981 22.889 56.8292C23.2722 56.3766 23.2722 55.6801 22.8542 55.1926C22.4013 54.7051 21.6 54.6703 21.1123 55.123C20.6246 55.5757 20.5897 56.3766 21.0426 56.8641C21.3562 57.1775 21.7742 57.3167 22.1574 57.2471C26.6864 64.5945 34.5597 69.6785 43.7221 70.3749C43.8963 70.7928 44.3144 71.0714 44.8021 71.1062C45.2898 71.141 45.7079 70.8624 45.9169 70.4794C52.7452 70.4446 59.0508 67.9374 63.8933 63.7588C64.3114 63.9329 64.8339 63.8632 65.1823 63.515C65.5307 63.1668 65.67 62.6793 65.5307 62.2266C70.0248 57.6998 72.9512 51.6408 73.5086 44.8505C73.9963 44.7113 74.3795 44.2586 74.3795 43.7014C74.4144 43.1443 74.066 42.6916 73.5783 42.5175C73.5434 35.7272 71.0351 29.4593 66.9242 24.6191C67.0984 24.2012 67.0287 23.6789 66.6803 23.2959C66.332 22.9128 65.8094 22.8084 65.3913 22.9825C60.8624 18.4904 54.7658 15.5306 47.9724 15.0083C47.7982 14.5904 47.3801 14.277 46.8924 14.2422C46.4047 14.2074 45.9518 14.4859 45.7427 14.9038C36.5455 14.9038 28.3238 19.4306 23.2722 26.395C22.889 26.2905 22.4361 26.395 22.1226 26.6736C21.6349 27.1263 21.6 27.9272 22.0529 28.4147C22.5058 28.9022 23.3071 28.937 23.7948 28.4843C24.2477 28.0664 24.3174 27.37 23.969 26.8825C28.8463 20.1271 36.7894 15.7743 45.6382 15.7395C45.7427 16.2619 46.2305 16.6797 46.7879 16.6797C47.3453 16.7145 47.833 16.3315 48.0072 15.8092C54.5219 16.3315 60.3747 19.1869 64.7294 23.47C64.4507 23.9575 64.5204 24.5494 64.9036 24.9673Z" fill="url(#paint1_linear_1006_3633)"/>
<path fill-rule="evenodd" clip-rule="evenodd" d="M30.0305 58.1873C29.6821 57.8391 29.1944 57.7695 28.7763 57.9088C25.3273 54.1132 23.1674 49.2033 22.8887 43.7363C23.3764 43.597 23.7248 43.1095 23.7248 42.5872C23.7248 42.03 23.3764 41.5773 22.8887 41.438C23.1674 36.0058 25.3273 31.096 28.7415 27.3004C29.1944 27.5093 29.7169 27.4049 30.1001 27.0566C30.4834 26.6736 30.553 26.1513 30.344 25.6986C34.1413 22.2512 39.0535 20.0923 44.4882 19.8137C44.6624 20.2664 45.1153 20.6146 45.6379 20.6146C46.1604 20.6146 46.6133 20.2664 46.7875 19.8137C54.4867 20.1968 61.2104 24.3754 65.0426 30.5388C64.6594 31.0263 64.6594 31.7228 65.1123 32.1755C65.6 32.663 66.3665 32.663 66.8194 32.1755C67.3071 31.6879 67.3071 30.9219 66.8194 30.4692C66.5406 30.1906 66.1226 30.0513 65.7394 30.121C61.733 23.7138 54.7654 19.361 46.7527 19.0128C46.5785 18.5601 46.1256 18.2119 45.603 18.2119C45.0805 18.2119 44.6276 18.5253 44.4534 19.0128C38.7748 19.2914 33.6536 21.5548 29.7169 25.1415C29.264 24.9325 28.7066 25.0022 28.3234 25.3852C27.9402 25.7682 27.8705 26.3254 28.0795 26.7781C24.5609 30.6433 22.2964 35.7969 22.0526 41.438C21.5997 41.6122 21.2861 42.0648 21.2861 42.5523C21.2861 43.0747 21.5997 43.4925 22.0526 43.6666C22.3313 49.3078 24.5609 54.4614 28.1144 58.3963C27.8357 58.8489 27.9053 59.4757 28.2886 59.8936C28.7066 60.3115 29.2989 60.3463 29.7866 60.0677C33.6884 63.6195 38.8096 65.8829 44.4534 66.1615C44.5927 66.6838 45.0805 67.0669 45.6379 67.0669C46.1953 67.0669 46.683 66.6838 46.8224 66.1615C54.8351 65.7785 61.7678 61.4258 65.7742 55.0534C66.1574 55.123 66.5755 55.0186 66.8542 54.7052C67.3419 54.2176 67.3419 53.4516 66.8542 52.9989C66.3665 52.5114 65.6 52.5114 65.1471 52.9989C64.6942 53.4516 64.6594 54.148 65.0775 54.6355C61.2104 60.799 54.4867 65.0124 46.7875 65.3606C46.5785 64.9428 46.1604 64.6642 45.6727 64.6642C45.185 64.6642 44.7669 64.9428 44.5579 65.3606C39.0883 65.082 34.1413 62.8883 30.344 59.4409C30.4485 59.0231 30.344 58.5356 30.0305 58.1873Z" fill="url(#paint2_linear_1006_3633)"/>
<path d="M45.5332 59.824C55.0957 59.824 62.8477 52.0757 62.8477 42.5176C62.8477 32.9595 55.0957 25.2112 45.5332 25.2112C35.9707 25.2112 28.2188 32.9595 28.2188 42.5176C28.2188 52.0757 35.9707 59.824 45.5332 59.824Z" fill="url(#paint3_linear_1006_3633)"/>
<path fill-rule="evenodd" clip-rule="evenodd" d="M44.8367 46.1044C45.5683 46.174 46.9967 45.9302 47.2057 46.9401C47.3451 47.532 46.9618 47.741 46.4741 47.8454C46.718 47.9499 47.2405 48.2285 47.3799 48.3678C47.7283 48.3329 48.5295 47.2186 47.7631 46.1044C47.3102 45.4427 46.4741 45.2338 45.7425 45.199C45.0457 45.1642 43.0948 45.1293 43.269 44.0499C43.3038 43.8061 43.478 43.5972 43.6174 43.4927C43.7567 43.3883 44.0354 43.3186 44.1748 43.1793C43.8961 43.1793 42.9903 42.9356 42.8858 42.8311C42.7813 42.8311 42.7116 42.9007 42.6071 43.04C42.2935 43.4579 42.1542 44.0499 42.2587 44.5722C42.5374 45.6168 43.8961 46.0347 44.8367 46.1044ZM34.9079 35.7275L31.668 35.9364C31.7376 36.8069 32.8525 37.1552 33.5841 37.19C34.6989 37.2596 36.3014 37.1203 37.033 36.981C37.3466 36.9462 37.5904 36.8766 37.6601 36.8069C37.3466 36.3194 37.2769 36.3194 36.8937 36.215C36.3014 36.0409 36.1969 35.9364 36.1272 35.623L34.9079 35.7275ZM56.1939 35.7275L59.4338 35.9364C59.3641 36.8069 58.2493 37.1552 57.5177 37.19C56.4029 37.2596 54.8004 37.1203 54.0688 36.981C53.7552 36.9462 53.5114 36.8766 53.4417 36.8069C53.7552 36.3194 53.8249 36.3194 54.2081 36.215C54.8004 36.0409 54.9049 35.9364 54.9746 35.623L56.1939 35.7275ZM45.9167 37.7819C46.2999 37.6078 46.7528 37.2596 46.927 36.8766C47.0315 36.8418 47.4496 36.7025 47.5541 36.6676C47.4844 37.0507 46.9967 37.6078 46.4393 37.9909C46.2999 37.8864 46.0909 37.8516 45.8819 37.8168L45.9167 37.7819ZM44.6625 37.9909C44.1051 37.6078 43.6174 37.0507 43.5477 36.6676C43.6522 36.7025 44.0703 36.8418 44.1748 36.8766C44.349 37.2596 44.8019 37.6078 45.1851 37.7819L45.2199 37.8516C45.0109 37.8516 44.8019 37.8864 44.6625 37.9909ZM46.6135 38.1302C46.6135 38.1302 46.6135 38.0953 46.6135 38.1302C46.718 37.9561 46.8225 37.9909 46.927 38.0953C46.8225 38.0953 46.718 38.0953 46.6135 38.1302ZM49.505 38.5828C49.505 38.757 49.4005 38.8614 49.2263 38.8962C49.1218 38.7918 48.9824 38.6873 48.8082 38.5828C48.4599 38.3391 47.8676 38.1302 47.345 38.0953C47.2405 37.9909 47.1709 37.8864 47.136 37.8168C47.136 37.7123 47.4496 37.1552 47.6586 37.3293C48.4599 37.9212 48.4947 38.0257 49.505 38.5828ZM50.5501 38.0257C50.4108 38.3739 50.0276 38.3739 49.6444 38.2694C49.1566 38.1302 47.8676 37.3641 47.7979 36.8069C47.7979 36.6676 47.8328 36.5284 47.9721 36.3543C47.9721 36.3543 48.5295 36.8069 49.1218 37.2248C49.7837 37.6427 50.5153 37.9909 50.5501 38.0257ZM51.8043 37.2248C51.7695 37.7471 51.2817 37.7819 50.794 37.6775C50.1669 37.5382 48.6689 36.6328 48.4599 36.1453C49.3308 35.7275 48.5992 35.8319 50.3063 36.6328C50.794 36.8418 51.3166 37.0855 51.8043 37.2248ZM51.4908 40.4632C51.4211 40.8463 50.8637 40.8463 50.5501 40.8463C50.4108 40.8463 50.1669 40.7766 49.9231 40.6373C49.9579 40.2195 49.8882 39.8713 49.714 39.523C50.2018 39.8713 50.6547 40.1846 51.4908 40.4632ZM55.1139 38.757C54.9746 39.1052 54.5565 39.2445 54.1036 39.3141C52.9191 39.3489 51.9088 38.7221 50.8985 38.1998C51.2469 37.8864 51.665 37.7471 52.1179 37.8864C52.7449 38.0953 54.2778 38.5828 55.1139 38.757ZM53.4069 36.3891C53.3023 36.8069 52.6056 36.9462 52.2572 36.9462C51.4908 36.9462 50.376 36.3543 49.7489 36.006C49.296 35.7623 48.9128 35.5882 49.3657 34.9962C49.6444 34.9962 50.8288 35.623 51.2469 35.7971C51.5953 35.9364 51.9088 36.0409 52.2572 36.1453C52.6056 36.215 53.1282 36.2846 53.4069 36.3891ZM54.661 35.4141C54.661 35.8667 54.1733 36.1105 53.581 36.0757C52.7101 36.0409 51.5953 35.5882 51.2817 35.4489C51.0379 35.3444 50.5153 35.1355 50.3411 34.9614C50.8637 34.4739 51.3166 34.4042 51.9437 34.6132C52.4314 34.7873 54.3823 35.4141 54.661 35.4141ZM53.372 39.6275C53.4417 40.0105 53.163 40.2891 52.7449 40.3239C52.0482 40.4284 51.1424 40.0105 50.5501 39.6971C50.2018 39.4882 49.9579 39.3489 49.6095 39.1052C50.1321 38.0605 50.8288 38.5828 51.5953 38.9311C52.1875 39.2445 52.6753 39.4882 53.372 39.6275ZM55.8107 37.4337L57.0997 37.5034C57.0997 37.5382 57.2739 37.4685 57.0648 37.7819C56.4029 38.8962 54.243 38.2346 53.2327 37.9212C52.6753 37.7471 52.1527 37.5382 52.1179 37.3293C52.6056 36.9114 53.4417 37.1552 53.8598 37.2248C54.4172 37.3293 55.1836 37.3989 55.8107 37.4337ZM50.8985 34.2649C49.7837 34.7873 49.6444 34.7873 49.0521 34.6828C48.7037 35.7275 48.7037 35.6578 47.9373 35.9016C47.5889 36.006 47.7631 36.1453 47.6238 36.3891C46.927 36.2498 46.9618 35.0658 47.136 34.6132C47.2754 34.2649 47.4496 34.0212 47.6238 33.8471C48.425 33.1855 50.5501 33.7426 50.8985 34.2649ZM44.4883 38.1302C44.3838 37.8864 44.2445 37.9909 44.14 38.0953C44.2445 38.0953 44.349 38.1302 44.4883 38.1302ZM41.562 38.5828C41.562 38.7918 41.7013 38.8962 41.8755 38.9311C42.3632 38.5132 42.9903 38.2346 43.6174 38.165H43.6522C43.7567 38.0605 43.8613 37.9561 43.8961 37.8516C43.8961 37.7471 43.5826 37.19 43.3735 37.3641C42.6419 37.9212 42.6071 38.0257 41.562 38.5828ZM40.5516 38.0257C40.691 38.3739 41.0742 38.3739 41.4574 38.2694C41.9452 38.1302 43.2342 37.3641 43.3038 36.8069C43.3038 36.6676 43.269 36.5284 43.1297 36.3543C43.1297 36.3543 42.5723 36.8069 41.98 37.2248C41.3181 37.6427 40.5516 37.9909 40.5516 38.0257ZM39.2626 37.2248C39.2975 37.7471 39.7852 37.7819 40.2729 37.6775C40.9 37.5382 42.3981 36.6328 42.6071 36.1453C41.7361 35.7275 42.4677 35.8319 40.7607 36.6328C40.2729 36.8418 39.7852 37.0855 39.2626 37.2248ZM39.611 40.4632C39.6807 40.8463 40.2381 40.8463 40.5516 40.8463C40.691 40.8463 40.9 40.7766 41.1787 40.6373C41.1787 40.498 41.1787 40.3239 41.1787 40.1846C41.2136 39.9409 41.2832 39.6971 41.4226 39.4882C40.9349 39.8364 40.4471 40.1846 39.611 40.4632ZM35.9879 38.757C36.1272 39.1052 36.5453 39.2445 36.9982 39.3141C38.1827 39.3489 39.193 38.7221 40.2033 38.1998C39.8549 37.8864 39.4368 37.7471 38.9839 37.8864C38.3569 38.0953 36.824 38.5828 35.9879 38.757ZM37.6949 36.3891C37.7994 36.8069 38.4962 36.9462 38.8446 36.9462C39.611 36.9462 40.7258 36.3543 41.3529 36.006C41.8058 35.7623 42.189 35.5882 41.7361 34.9962C41.4574 34.9962 40.2729 35.623 39.8549 35.7971C39.5065 35.9364 39.193 36.0409 38.8446 36.1453C38.4962 36.215 37.9736 36.2846 37.6949 36.3891ZM36.4408 35.4141C36.4408 35.8667 36.9285 36.1105 37.5207 36.0757C38.3917 36.0409 39.5065 35.5882 39.8201 35.4489C40.0639 35.3444 40.5865 35.1355 40.7607 34.9614C40.2381 34.4739 39.7852 34.4042 39.1581 34.6132C38.6704 34.7873 36.7195 35.4141 36.4408 35.4141ZM37.7298 39.6275C37.6601 40.0105 37.9388 40.2891 38.3569 40.3239C39.0536 40.4284 39.9594 40.0105 40.5516 39.6971C40.9 39.4882 41.1439 39.3489 41.4923 39.1052C40.9697 38.0605 40.2729 38.5828 39.5065 38.9311C38.9143 39.2445 38.4265 39.4882 37.7298 39.6275ZM35.2911 37.4337L34.0021 37.5034C34.0021 37.5382 33.8279 37.4685 34.0369 37.7819C34.6989 38.8962 36.8588 38.2346 37.8691 37.9212C38.4265 37.7471 38.9491 37.5382 38.9839 37.3293C38.4962 36.9114 37.6601 37.1552 37.242 37.2248C36.6846 37.3293 35.9182 37.3989 35.2911 37.4337ZM40.2033 34.2649C41.3181 34.7873 41.4574 34.7873 42.0497 34.6828C42.3981 35.7275 42.3981 35.6578 43.1645 35.9016C43.5129 36.006 43.3387 36.1453 43.478 36.3891C44.1748 36.2498 44.14 35.0658 43.9658 34.6132C43.8264 34.2649 43.6522 34.0212 43.478 33.8471C42.6768 33.1855 40.5516 33.7426 40.2033 34.2649ZM44.6974 38.5828C44.767 38.5828 44.8367 38.6525 44.8367 38.7221C44.8367 38.7918 44.767 38.8614 44.6974 38.8614C44.6277 38.8614 44.558 38.7918 44.558 38.7221C44.558 38.6525 44.6277 38.5828 44.6974 38.5828ZM46.5438 38.5828C46.6135 38.5828 46.6831 38.6525 46.6831 38.7221C46.6831 38.7918 46.6135 38.8614 46.5438 38.8614C46.4741 38.8614 46.4044 38.7918 46.4044 38.7221C46.4044 38.6525 46.4741 38.5828 46.5438 38.5828ZM44.9064 42.9704C45.7077 43.0052 47.7631 42.9704 47.8328 44.1543C47.8328 44.6767 47.1709 44.9552 46.6831 45.0597C46.6831 45.0597 47.5192 45.3035 47.8328 45.6865C48.8082 45.2686 49.1218 44.224 48.6341 43.2838C48.3902 42.8311 47.9721 42.4829 47.4844 42.274C46.056 41.6472 44.6625 42.0998 43.4432 41.5427C43.06 41.3686 42.7116 41.1597 42.6419 40.7766C42.5374 40.2891 42.7464 39.7668 42.9903 39.5579C43.478 39.1052 43.5477 39.3837 44.14 39.4534C44.5929 39.523 45.1503 39.3489 45.2896 39.0355C45.1851 38.3391 44.2445 38.2694 43.6871 38.3739C41.3181 38.7221 40.5865 41.0204 42.4677 42.3088C43.0948 42.7615 44.14 42.9356 44.9064 42.9704ZM45.4638 38.0953C45.2548 38.0605 44.8716 38.0605 44.6974 38.3043C44.9412 38.4087 45.1503 38.5132 45.3245 38.7918C45.4986 38.5828 45.4986 38.3043 45.4638 38.0953ZM45.638 38.0953C45.847 38.0605 46.2302 38.0605 46.4044 38.3043C46.1606 38.4087 45.9515 38.5132 45.7773 38.7918C45.6032 38.5828 45.6032 38.3043 45.638 38.0953ZM45.5335 33.7426C46.056 33.7426 46.5089 34.1605 46.5089 34.7176C46.5089 35.24 46.056 35.6926 45.5335 35.6926C45.0109 35.6926 44.558 35.2748 44.558 34.7176C44.558 34.1953 45.0109 33.7426 45.5335 33.7426ZM45.0806 34.0908C45.1851 34.0908 45.2896 34.1953 45.2896 34.2998C45.2896 34.4042 45.1851 34.5087 45.0806 34.5087C44.9761 34.5087 44.8716 34.4042 44.8716 34.2998C44.9064 34.1953 44.9761 34.0908 45.0806 34.0908ZM45.3593 52.6508H45.6728L45.7077 51.3276H45.2896L45.3593 52.6508ZM46.1954 35.7275C45.6032 35.9016 45.5335 35.9016 44.9064 35.7275C44.8716 36.4239 46.2302 36.4239 46.1954 35.7275ZM45.1851 36.6676C45.1851 37.2248 45.3941 37.6427 45.5683 38.0257C45.7425 37.6427 45.9515 37.2248 45.9515 36.6676C45.9515 36.4239 45.7773 36.3194 45.5683 36.2846C45.3593 36.3194 45.1851 36.4587 45.1851 36.6676ZM45.3245 50.4223H45.7773L45.8122 48.8205H45.2896L45.3245 50.4223ZM45.2548 47.8454H45.8122V46.3133H45.2548V47.8454ZM45.847 43.1793H45.2199C45.1503 43.3883 45.1851 44.4329 45.2199 44.7811C45.2199 45.0597 45.2199 45.0249 45.5335 45.0249C45.9515 45.0249 45.847 45.0945 45.8819 44.2936C45.8819 44.015 45.9167 43.4231 45.847 43.1793ZM45.5335 38.8614C45.2896 39.2445 45.1851 39.5579 45.1851 40.0802C45.1851 40.6025 45.1851 41.1248 45.1851 41.6472C45.3593 41.7168 45.7077 41.7168 45.8819 41.6472C45.8819 41.1248 45.8819 40.5677 45.8819 40.0454C45.8819 39.6971 45.8122 39.3489 45.638 39.0355C45.638 39.0007 45.5683 38.8266 45.5335 38.8614ZM45.6728 54.775L45.7077 53.3125H45.3941L45.429 54.7402C45.1154 54.6705 44.9761 54.4268 44.9412 54.0785C44.9064 53.5214 45.1154 53.5562 45.2896 53.2428C45.2199 53.2428 44.9412 53.1035 44.9412 53.1035C44.4883 53.7303 44.5232 54.7402 45.429 54.8794C45.429 55.0187 45.4638 55.9589 45.5335 55.9241C45.6032 55.8893 45.638 54.9839 45.638 54.8794C46.7528 54.6357 46.718 53.4866 45.9515 52.9294C45.6032 52.6857 45.1503 52.6857 44.8367 52.3723C44.5929 52.1633 44.5232 51.6758 44.8716 51.3624L44.9761 51.258C44.8367 51.258 44.349 51.0839 44.349 51.0839C44.2445 51.3276 44.1051 51.5017 44.1051 51.7107C44.1051 53.2428 45.847 52.8946 46.1257 53.6955C46.3347 54.2527 46.0909 54.7053 45.6728 54.775ZM44.6625 50.3178C43.8264 49.7258 44.558 49.0642 44.6277 48.9597C44.4883 48.9597 43.9309 48.7856 43.8613 48.716C43.7916 48.9946 43.3387 49.5169 43.7219 50.2481C44.349 51.5017 45.9864 50.9446 46.3696 51.5714C46.5089 51.7803 46.5089 52.0937 46.3696 52.3026C46.2302 52.5464 46.056 52.5464 45.8122 52.7205C45.847 52.7553 46.0909 52.8598 46.1954 52.9642C46.2651 53.0339 46.4393 52.8946 46.5089 52.825C47.0663 52.4071 47.2057 51.4321 46.4741 50.9098C46.0909 50.5615 45.1851 50.666 44.6625 50.3178ZM45.1851 48.7508C45.638 48.7508 46.0909 48.716 46.4393 48.9249C46.6831 49.0642 46.9967 49.4821 46.8225 49.8999C46.6831 50.3178 46.1606 50.4223 46.0212 50.5615C46.3696 50.5615 46.6831 50.8401 46.7876 50.8401C46.8922 50.8401 46.9967 50.7705 47.2405 50.5267C47.6934 50.0044 47.6934 49.3428 47.3102 48.7856C46.927 48.1937 46.2302 47.9847 45.5683 47.9847C45.1503 47.9847 44.767 47.9847 44.4187 47.8106C43.5477 47.4624 43.9658 46.4177 44.4883 46.2785C44.14 46.2436 43.6522 46.1044 43.4432 45.9651C43.4432 46.0347 42.4329 47.4972 43.6522 48.3329C44.0006 48.6115 44.6625 48.7508 45.1851 48.7508ZM46.7876 41.8213C47.1012 41.8909 47.3799 41.9954 47.6586 42.1347C48.007 42.3088 48.1463 42.4481 48.3205 42.4481C48.3902 42.4481 48.4599 42.4481 48.5295 42.3784C48.9824 42.1347 49.505 41.6123 49.6444 41.0204C50.2018 38.6525 47.2405 37.9212 46.4044 38.4436C45.3941 39.0355 46.0212 39.3837 46.718 39.4534C47.1709 39.4882 47.4496 39.2445 47.7979 39.3489C48.4599 39.523 48.6689 40.5677 48.3902 40.9855C48.0418 41.5775 47.0663 41.682 46.7876 41.8213Z" fill="white"/>
<path d="M85.0051 57.0381V65.1168H83.96V57.0381H85.0051Z" fill="#0E162D"/>
<path d="M91.7634 59.3713C92.2511 59.824 92.495 60.5204 92.495 61.3909V65.1169H91.4499V61.5302C91.4499 60.9034 91.2757 60.4159 90.9621 60.0677C90.6486 59.7195 90.2305 59.5802 89.6731 59.5802C89.1157 59.5802 88.6628 59.7543 88.3493 60.1025C88.0357 60.4508 87.8615 60.9383 87.8615 61.6347V65.1169H86.8164V58.7793H87.8615V59.6847C88.0706 59.3713 88.3493 59.0927 88.6977 58.9186C89.046 58.7445 89.4641 58.64 89.8821 58.64C90.6834 58.6748 91.3105 58.8838 91.7634 59.3713Z" fill="#0E162D"/>
<path d="M95.4916 59.6497V63.3756C95.4916 63.689 95.5613 63.898 95.7006 64.0373C95.84 64.1765 96.049 64.2114 96.3974 64.2114H97.1638V65.1167H96.2232C95.631 65.1167 95.2129 64.9775 94.8993 64.6989C94.6206 64.4203 94.4465 64.0024 94.4465 63.3756V59.6497H93.6104V58.7792H94.4465V57.1774H95.4916V58.7792H97.1638V59.6497H95.4916Z" fill="#0E162D"/>
<path d="M104.201 62.3311H99.1142C99.149 62.9579 99.358 63.4454 99.7412 63.7936C100.124 64.1419 100.612 64.316 101.17 64.316C101.622 64.316 102.006 64.2115 102.319 64.0026C102.633 63.7936 102.842 63.5151 102.946 63.1668H104.096C103.922 63.7936 103.573 64.2811 103.086 64.6642C102.563 65.0472 101.936 65.2213 101.17 65.2213C100.577 65.2213 100.02 65.0821 99.567 64.8035C99.0793 64.5249 98.7309 64.1419 98.4522 63.6544C98.1735 63.1669 98.0342 62.5749 98.0342 61.9133C98.0342 61.2517 98.1735 60.6945 98.4174 60.1722C98.6613 59.6498 99.0445 59.3016 99.5322 59.0231C100.02 58.7445 100.543 58.64 101.17 58.64C101.762 58.64 102.319 58.7793 102.772 59.0231C103.225 59.3016 103.608 59.6499 103.852 60.1025C104.096 60.5552 104.235 61.0775 104.235 61.6695C104.235 61.9133 104.201 62.1222 104.201 62.3311ZM102.877 60.4508C102.702 60.1722 102.459 59.9284 102.145 59.7891C101.832 59.6498 101.518 59.5802 101.135 59.5802C100.612 59.5802 100.159 59.7543 99.7761 60.1025C99.3929 60.4508 99.1838 60.9034 99.149 61.5302H103.121C103.121 61.0775 103.051 60.7293 102.877 60.4508Z" fill="#0E162D"/>
<path d="M107.475 58.9534C107.824 58.7445 108.242 58.64 108.729 58.64V59.7195H108.451C107.266 59.7195 106.674 60.3463 106.674 61.6347V65.082H105.629V58.7445H106.674V59.7891C106.848 59.4409 107.127 59.1623 107.475 58.9534Z" fill="#0E162D"/>
<path d="M114.896 59.3712C115.384 59.8239 115.628 60.5203 115.628 61.3909V65.1168H114.583V61.5302C114.583 60.9034 114.408 60.4159 114.095 60.0676C113.781 59.7194 113.363 59.5801 112.806 59.5801C112.249 59.5801 111.796 59.7543 111.482 60.1025C111.169 60.4507 110.994 60.9382 110.994 61.6346V65.1168H109.949V58.7792H110.994V59.6846C111.203 59.3712 111.482 59.0926 111.83 58.9185C112.179 58.7444 112.597 58.64 113.015 58.64C113.816 58.6748 114.408 58.8837 114.896 59.3712Z" fill="#0E162D"/>
<path d="M117.334 60.207C117.613 59.7195 117.961 59.3365 118.414 59.0579C118.867 58.7793 119.39 58.64 119.947 58.64C120.505 58.64 120.992 58.7445 121.41 58.9882C121.828 59.232 122.107 59.5454 122.316 59.8936V58.7445H123.396V65.1169H122.316V63.9329C122.107 64.316 121.794 64.5945 121.376 64.8383C120.958 65.082 120.47 65.1865 119.947 65.1865C119.39 65.1865 118.867 65.0472 118.414 64.7687C117.961 64.4901 117.613 64.107 117.334 63.5847C117.056 63.0624 116.951 62.5052 116.951 61.8784C116.951 61.2865 117.091 60.6945 117.334 60.207ZM122.038 60.6945C121.828 60.3463 121.585 60.0677 121.271 59.8936C120.958 59.7195 120.574 59.615 120.191 59.615C119.808 59.615 119.425 59.7195 119.111 59.8936C118.798 60.0677 118.519 60.3463 118.345 60.6945C118.136 61.0427 118.066 61.4606 118.066 61.9481C118.066 62.4356 118.171 62.8535 118.345 63.2017C118.554 63.5499 118.798 63.8285 119.111 64.0374C119.425 64.2115 119.808 64.316 120.191 64.316C120.574 64.316 120.958 64.2115 121.271 64.0374C121.585 63.8633 121.863 63.5847 122.038 63.2017C122.247 62.8535 122.316 62.4356 122.316 61.9481C122.316 61.4606 122.247 61.0427 122.038 60.6945Z" fill="#0E162D"/>
<path d="M126.462 59.6497V63.3756C126.462 63.689 126.532 63.898 126.671 64.0373C126.81 64.1765 127.019 64.2114 127.368 64.2114H128.134V65.1167H127.159C126.567 65.1167 126.148 64.9775 125.835 64.6989C125.556 64.4203 125.382 64.0024 125.382 63.3756V59.6497H124.546V58.7792H125.382V57.1774H126.427V58.7792H128.099V59.6497H126.462Z" fill="#0E162D"/>
<path d="M129.424 57.5257C129.285 57.3864 129.215 57.2123 129.215 57.0033C129.215 56.7944 129.285 56.6203 129.424 56.481C129.563 56.3417 129.737 56.2721 129.946 56.2721C130.155 56.2721 130.295 56.3417 130.434 56.481C130.574 56.6203 130.643 56.7944 130.643 57.0033C130.643 57.2123 130.574 57.3864 130.434 57.5257C130.295 57.665 130.121 57.7346 129.946 57.7346C129.737 57.7346 129.563 57.665 129.424 57.5257ZM130.434 58.7793V65.1168H129.389V58.7793H130.434Z" fill="#0E162D"/>
<path d="M133.395 64.8034C132.907 64.5249 132.524 64.1418 132.245 63.6543C131.967 63.1668 131.827 62.5748 131.827 61.9132C131.827 61.2516 131.967 60.6945 132.245 60.207C132.524 59.7195 132.907 59.3364 133.395 59.0578C133.883 58.7793 134.44 58.6748 135.032 58.6748C135.624 58.6748 136.182 58.8141 136.67 59.0578C137.157 59.3016 137.541 59.7195 137.819 60.207C138.098 60.6945 138.237 61.2864 138.237 61.9481C138.237 62.6097 138.098 63.1668 137.819 63.6891C137.541 64.2115 137.123 64.5597 136.635 64.8383C136.147 65.1168 135.59 65.2561 134.997 65.2561C134.405 65.2213 133.883 65.082 133.395 64.8034ZM136.077 64.0374C136.426 63.8632 136.67 63.5847 136.879 63.2365C137.088 62.8882 137.192 62.4356 137.192 61.9481C137.192 61.4605 137.088 61.0079 136.879 60.6596C136.67 60.3114 136.426 60.0329 136.077 59.8587C135.764 59.6846 135.415 59.615 135.032 59.615C134.649 59.615 134.301 59.6846 133.987 59.8587C133.674 60.0329 133.395 60.3114 133.221 60.6596C133.012 61.0079 132.942 61.4605 132.942 61.9481C132.942 62.4704 133.046 62.8882 133.221 63.2713C133.395 63.6195 133.674 63.8981 133.987 64.0722C134.301 64.2463 134.649 64.3159 135.032 64.3159C135.415 64.3159 135.729 64.2115 136.077 64.0374Z" fill="#0E162D"/>
<path d="M144.613 59.3712C145.101 59.8239 145.345 60.5203 145.345 61.3909V65.1168H144.299V61.5302C144.299 60.9034 144.125 60.4159 143.812 60.0676C143.498 59.7194 143.08 59.5801 142.523 59.5801C141.965 59.5801 141.512 59.7543 141.199 60.1025C140.885 60.4507 140.711 60.9382 140.711 61.6346V65.1168H139.666V58.7792H140.711V59.6846C140.92 59.3712 141.199 59.0926 141.547 58.9185C141.896 58.7444 142.314 58.64 142.732 58.64C143.533 58.6748 144.125 58.8837 144.613 59.3712Z" fill="#0E162D"/>
<path d="M147.051 60.207C147.33 59.7195 147.678 59.3365 148.131 59.0579C148.584 58.7793 149.107 58.64 149.664 58.64C150.221 58.64 150.709 58.7445 151.127 58.9882C151.545 59.232 151.824 59.5454 152.033 59.8936V58.7445H153.113V65.1169H152.033V63.9329C151.824 64.316 151.51 64.5945 151.092 64.8383C150.674 65.082 150.187 65.1865 149.664 65.1865C149.107 65.1865 148.584 65.0472 148.131 64.7687C147.678 64.4901 147.33 64.107 147.051 63.5847C146.772 63.0624 146.668 62.5052 146.668 61.8784C146.668 61.2865 146.807 60.6945 147.051 60.207ZM151.754 60.6945C151.545 60.3463 151.301 60.0677 150.988 59.8936C150.674 59.7195 150.291 59.615 149.908 59.615C149.525 59.615 149.141 59.7195 148.828 59.8936C148.514 60.0677 148.236 60.3463 148.061 60.6945C147.852 61.0427 147.783 61.4606 147.783 61.9481C147.783 62.4356 147.887 62.8535 148.061 63.2017C148.271 63.5499 148.514 63.8285 148.828 64.0374C149.141 64.2115 149.525 64.316 149.908 64.316C150.291 64.316 150.674 64.2115 150.988 64.0374C151.301 63.8633 151.58 63.5847 151.754 63.2017C151.963 62.8535 152.033 62.4356 152.033 61.9481C152.033 61.4606 151.963 61.0427 151.754 60.6945Z" fill="#0E162D"/>
<path d="M155.935 56.5507V65.1168H154.89V56.5507H155.935Z" fill="#0E162D"/>
<path d="M169.034 57.1078V65.1168H167.989V59.1275L165.341 65.1168H164.61L161.927 59.1275V65.1168H160.882V57.1078H162.031L164.993 63.7239L167.954 57.1078H169.034Z" fill="#0E162D"/>
<path d="M176.559 62.3311H171.473C171.507 62.9579 171.716 63.4454 172.1 63.7936C172.483 64.1419 172.971 64.316 173.528 64.316C173.981 64.316 174.364 64.2115 174.678 64.0026C174.991 63.7936 175.2 63.5151 175.305 63.1668H176.454C176.28 63.7936 175.932 64.2811 175.444 64.6642C174.922 65.0472 174.294 65.2213 173.528 65.2213C172.936 65.2213 172.378 65.0821 171.925 64.8035C171.438 64.5249 171.089 64.1419 170.811 63.6544C170.532 63.1669 170.393 62.5749 170.393 61.9133C170.393 61.2517 170.532 60.6945 170.776 60.1722C171.055 59.6847 171.403 59.3016 171.891 59.0231C172.378 58.7445 172.901 58.64 173.528 58.64C174.12 58.64 174.678 58.7793 175.131 59.0231C175.583 59.3016 175.967 59.6499 176.211 60.1025C176.454 60.5552 176.594 61.0775 176.594 61.6695C176.594 61.9133 176.594 62.1222 176.559 62.3311ZM175.235 60.4508C175.061 60.1722 174.817 59.9284 174.503 59.7891C174.19 59.6498 173.876 59.5802 173.493 59.5802C172.971 59.5802 172.518 59.7543 172.134 60.1025C171.751 60.4508 171.542 60.9034 171.507 61.5302H175.514C175.514 61.0775 175.409 60.7293 175.235 60.4508Z" fill="#0E162D"/>
<path d="M177.988 60.2069C178.266 59.7194 178.615 59.3364 179.068 59.0578C179.521 58.7793 180.043 58.64 180.601 58.64C181.088 58.64 181.541 58.7444 181.994 58.9882C182.447 59.2319 182.726 59.5105 182.97 59.8936V56.5507H184.05V65.1168H182.97V63.9329C182.761 64.3159 182.447 64.6293 182.029 64.8731C181.611 65.1168 181.158 65.2213 180.601 65.2213C180.043 65.2213 179.521 65.082 179.068 64.8034C178.615 64.5249 178.232 64.1418 177.988 63.6195C177.709 63.132 177.604 62.54 177.604 61.9132C177.604 61.2864 177.709 60.6945 177.988 60.2069ZM182.691 60.6945C182.482 60.3462 182.238 60.0677 181.924 59.8936C181.611 59.7194 181.228 59.615 180.844 59.615C180.461 59.615 180.078 59.7194 179.764 59.8936C179.451 60.0677 179.172 60.3462 178.998 60.6945C178.824 61.0427 178.719 61.4605 178.719 61.948C178.719 62.4355 178.824 62.8534 178.998 63.2016C179.207 63.5498 179.451 63.8284 179.764 64.0373C180.078 64.2115 180.461 64.3159 180.844 64.3159C181.228 64.3159 181.611 64.2115 181.924 64.0373C182.238 63.8632 182.517 63.5847 182.691 63.2016C182.9 62.8534 182.97 62.4355 182.97 61.948C182.97 61.4605 182.865 61.0427 182.691 60.6945Z" fill="#0E162D"/>
<path d="M185.861 57.5257C185.722 57.3864 185.652 57.2123 185.652 57.0033C185.652 56.7944 185.722 56.6203 185.861 56.481C186.001 56.3417 186.175 56.2721 186.384 56.2721C186.593 56.2721 186.732 56.3417 186.872 56.481C187.011 56.6203 187.081 56.7944 187.081 57.0033C187.081 57.2123 187.011 57.3864 186.872 57.5257C186.732 57.665 186.558 57.7346 186.384 57.7346C186.14 57.7346 186.001 57.665 185.861 57.5257ZM186.872 58.7793V65.1168H185.827V58.7793H186.872Z" fill="#0E162D"/>
<path d="M188.648 60.2069C188.927 59.7194 189.275 59.3364 189.728 59.0578C190.181 58.7792 190.738 58.64 191.33 58.64C192.097 58.64 192.759 58.8141 193.246 59.1971C193.734 59.5801 194.083 60.1025 194.257 60.7641H193.107C193.003 60.381 192.794 60.0676 192.48 59.8587C192.166 59.6498 191.783 59.5105 191.33 59.5105C190.738 59.5105 190.25 59.7194 189.867 60.1373C189.484 60.5552 189.31 61.1471 189.31 61.8784C189.31 62.6445 189.484 63.2364 189.867 63.6543C190.25 64.0722 190.738 64.2811 191.33 64.2811C191.783 64.2811 192.166 64.1766 192.48 63.9677C192.794 63.7588 193.003 63.4454 193.107 63.0275H194.257C194.083 63.6891 193.734 64.2114 193.246 64.5945C192.724 64.9775 192.097 65.1865 191.33 65.1865C190.738 65.1865 190.181 65.0472 189.728 64.7686C189.275 64.49 188.892 64.107 188.648 63.6195C188.369 63.132 188.265 62.54 188.265 61.8784C188.265 61.2864 188.404 60.6944 188.648 60.2069Z" fill="#0E162D"/>
<path d="M195.685 60.207C195.964 59.7195 196.312 59.3365 196.765 59.0579C197.218 58.7793 197.74 58.64 198.298 58.64C198.855 58.64 199.343 58.7445 199.761 58.9882C200.179 59.232 200.458 59.5454 200.667 59.8936V58.7445H201.747V65.1169H200.667V63.9329C200.458 64.316 200.144 64.5945 199.726 64.8383C199.308 65.082 198.82 65.1865 198.298 65.1865C197.74 65.1865 197.218 65.0472 196.765 64.7687C196.312 64.4901 195.964 64.107 195.685 63.5847C195.406 63.0972 195.302 62.5052 195.302 61.8784C195.302 61.2865 195.441 60.6945 195.685 60.207ZM200.388 60.6945C200.179 60.3463 199.935 60.0677 199.622 59.8936C199.308 59.7195 198.925 59.615 198.542 59.615C198.158 59.615 197.775 59.7195 197.462 59.8936C197.148 60.0677 196.869 60.3463 196.695 60.6945C196.521 61.0427 196.417 61.4606 196.417 61.9481C196.417 62.4356 196.521 62.8535 196.695 63.2017C196.904 63.5499 197.148 63.8285 197.462 64.0374C197.775 64.2115 198.158 64.316 198.542 64.316C198.925 64.316 199.308 64.2115 199.622 64.0374C199.935 63.8633 200.214 63.5847 200.388 63.2017C200.597 62.8535 200.667 62.4356 200.667 61.9481C200.667 61.4606 200.562 61.0427 200.388 60.6945Z" fill="#0E162D"/>
<path d="M204.569 56.5507V65.1168H203.523V56.5507H204.569Z" fill="#0E162D"/>
<path d="M215.822 65.1169H214.777L210.527 58.7097V65.1169H209.481V57.0382H210.527L214.777 63.4454V57.0382H215.822V65.1169Z" fill="#0E162D"/>
<path d="M223.347 62.3311H218.261C218.295 62.9579 218.504 63.4454 218.888 63.7936C219.271 64.1419 219.759 64.316 220.316 64.316C220.769 64.316 221.152 64.2115 221.466 64.0026C221.779 63.7936 221.988 63.5151 222.093 63.1668H223.242C223.068 63.7936 222.72 64.2811 222.232 64.6642C221.71 65.0472 221.083 65.2213 220.316 65.2213C219.724 65.2213 219.166 65.0821 218.714 64.8035C218.226 64.5249 217.877 64.1419 217.599 63.6544C217.32 63.1669 217.181 62.5749 217.181 61.9133C217.181 61.2517 217.32 60.6945 217.564 60.1722C217.843 59.6847 218.191 59.3016 218.679 59.0231C219.166 58.7445 219.689 58.64 220.316 58.64C220.908 58.64 221.466 58.7793 221.919 59.0231C222.372 59.3016 222.755 59.6499 222.999 60.1025C223.242 60.5552 223.382 61.0775 223.382 61.6695C223.382 61.9133 223.382 62.1222 223.347 62.3311ZM222.023 60.4508C221.849 60.1722 221.605 59.9284 221.292 59.7891C220.978 59.6498 220.664 59.5802 220.281 59.5802C219.759 59.5802 219.306 59.7543 218.923 60.1025C218.539 60.4508 218.33 60.9034 218.295 61.5302H222.302C222.302 61.0775 222.232 60.7293 222.023 60.4508Z" fill="#0E162D"/>
<path d="M226.064 59.6498V63.3757C226.064 63.6891 226.134 63.898 226.273 64.0373C226.412 64.1766 226.621 64.2114 226.97 64.2114H227.736V65.1168H226.795C226.203 65.1168 225.785 64.9775 225.472 64.6989C225.193 64.4204 225.019 64.0025 225.019 63.3757V59.6498H224.183V58.7792H225.019V57.1774H226.064V58.7792H227.736V59.6498H226.064Z" fill="#0E162D"/>
<path d="M237.456 58.7792L235.47 65.1168H234.39L232.857 60.0676L231.325 65.1168H230.245L228.259 58.7792H229.339L230.802 64.107L232.37 58.7792H233.45L234.983 64.107L236.411 58.7792H237.456Z" fill="#0E162D"/>
<path d="M239.651 64.8034C239.163 64.5249 238.78 64.1418 238.501 63.6543C238.222 63.1668 238.083 62.5748 238.083 61.9132C238.083 61.2516 238.222 60.6945 238.501 60.207C238.78 59.7195 239.163 59.3364 239.651 59.0578C240.138 58.7793 240.696 58.6748 241.288 58.6748C241.88 58.6748 242.438 58.8141 242.925 59.0578C243.413 59.3364 243.796 59.7195 244.075 60.207C244.354 60.6945 244.493 61.2864 244.493 61.9481C244.493 62.6097 244.354 63.1668 244.075 63.6891C243.796 64.2115 243.378 64.5597 242.891 64.8383C242.403 65.1168 241.845 65.2561 241.253 65.2561C240.661 65.2213 240.138 65.082 239.651 64.8034ZM242.333 64.0374C242.682 63.8632 242.925 63.5847 243.135 63.2365C243.344 62.8882 243.448 62.4356 243.448 61.9481C243.448 61.4605 243.344 61.0079 243.135 60.6596C242.925 60.3114 242.682 60.0329 242.333 59.8587C242.02 59.6846 241.671 59.615 241.288 59.615C240.905 59.615 240.556 59.6846 240.243 59.8587C239.929 60.0329 239.651 60.3114 239.477 60.6596C239.267 61.0079 239.198 61.4605 239.198 61.9481C239.198 62.4704 239.302 62.8882 239.477 63.2713C239.651 63.6195 239.929 63.8981 240.243 64.0722C240.556 64.2463 240.905 64.3159 241.288 64.3159C241.636 64.2811 241.985 64.2115 242.333 64.0374Z" fill="#0E162D"/>
<path d="M247.768 58.9534C248.117 58.7444 248.535 58.64 249.022 58.64V59.7194H248.744C247.559 59.7194 246.967 60.3462 246.967 61.6346V65.082H245.922V58.7444H246.967V59.7891C247.141 59.4409 247.42 59.1623 247.768 58.9534Z" fill="#0E162D"/>
<path d="M253.76 65.1168L251.286 62.3311V65.1168H250.241V56.5507H251.286V61.5998L253.725 58.7793H255.188L252.192 61.948L255.188 65.1168H253.76Z" fill="#0E162D"/>
<path d="M84.4479 19.1172H90.1613V38.4782C90.1613 40.1496 90.3007 41.3336 90.6142 42.03C90.8929 42.7264 91.3807 43.2836 92.0426 43.7014C92.7045 44.1193 93.5406 44.3282 94.4813 44.3282C95.4916 44.3282 96.3625 44.0845 97.0941 43.6318C97.8257 43.1791 98.3134 42.5871 98.5921 41.8907C98.8708 41.1943 99.0102 39.8362 99.0102 37.8166V19.1172H104.724V36.946C104.724 39.9407 104.549 42.03 104.201 43.2139C103.853 44.3979 103.226 45.5122 102.25 46.5916C101.309 47.6711 100.195 48.472 98.9405 48.9943C97.6863 49.5167 96.2232 49.7604 94.5858 49.7604C92.4258 49.7604 90.5097 49.2729 88.9072 48.2631C87.3046 47.2533 86.155 46.0345 85.4582 44.5023C84.7615 43.005 84.4131 40.463 84.4131 36.9112V19.1172H84.4479Z" fill="#0D152C"/>
<path d="M109.914 26.9173H115.488V29.1807C116.743 28.1361 117.892 27.37 118.903 26.9521C119.913 26.5342 120.958 26.3253 122.038 26.3253C124.233 26.3253 126.079 27.0914 127.612 28.6236C128.901 29.912 129.528 31.862 129.528 34.404V49.0291H124.024V39.3487C124.024 36.7022 123.919 34.9611 123.675 34.0906C123.432 33.22 123.013 32.5584 122.421 32.1057C121.829 31.6531 121.097 31.4093 120.226 31.4093C119.112 31.4093 118.136 31.7923 117.335 32.5236C116.534 33.2897 115.976 34.2995 115.663 35.6576C115.488 36.354 115.419 37.8513 115.419 40.1496V49.0291H109.845V26.9173H109.914Z" fill="#0D152C"/>
<path d="M137.088 17.794C138.063 17.794 138.899 18.1422 139.596 18.8387C140.293 19.5351 140.641 20.4056 140.641 21.4155C140.641 22.3905 140.293 23.261 139.596 23.9575C138.899 24.6539 138.063 25.0021 137.122 25.0021C136.147 25.0021 135.276 24.6539 134.579 23.9226C133.883 23.2262 133.534 22.3557 133.534 21.311C133.534 20.336 133.883 19.5003 134.579 18.8038C135.276 18.1422 136.112 17.794 137.088 17.794ZM134.301 26.9173H139.875V49.064H134.301V26.9173Z" fill="#0D152C"/>
<path d="M142.558 26.9173H148.236L153.845 39.9755L159.419 26.9173H165.063L155.622 49.064H152.034L142.558 26.9173Z" fill="#0D152C"/>
<path d="M190.46 39.5924H172.623C172.866 41.1593 173.563 42.4129 174.678 43.3531C175.793 44.2933 177.221 44.746 178.963 44.746C181.053 44.746 182.83 44.0147 184.328 42.5522L188.996 44.746C187.812 46.4174 186.418 47.6362 184.816 48.4023C183.178 49.2032 181.262 49.5862 178.998 49.5862C175.514 49.5862 172.692 48.5067 170.497 46.313C168.303 44.1192 167.223 41.3683 167.223 38.095C167.223 34.7173 168.303 31.8967 170.497 29.6681C172.692 27.4396 175.41 26.3253 178.684 26.3253C182.168 26.3253 185.025 27.4396 187.185 29.6681C189.38 31.8967 190.46 34.8566 190.46 38.5129V39.5924ZM184.92 35.2048C184.537 33.9861 183.84 32.9762 182.76 32.2101C181.68 31.4441 180.426 31.061 178.998 31.061C177.465 31.061 176.072 31.4789 174.922 32.3494C174.19 32.9066 173.493 33.8468 172.866 35.2048H184.92V35.2048Z" fill="#0D152C"/>
<path d="M193.665 26.9173H198.438V29.703C198.96 28.5887 199.622 27.753 200.493 27.1959C201.364 26.6387 202.27 26.3253 203.315 26.3253C204.047 26.3253 204.778 26.4994 205.58 26.8825L203.803 31.6879C203.141 31.3745 202.618 31.2004 202.2 31.2004C201.329 31.2004 200.633 31.7227 200.04 32.8022C199.448 33.8816 199.169 35.9361 199.169 39.0353L199.204 40.1147V49.0639H193.7V26.9173H193.665Z" fill="#0D152C"/>
<path d="M221.849 29.6912L218.4 33.1385C217.006 31.7457 215.717 31.0492 214.602 31.0492C213.975 31.0492 213.487 31.1885 213.139 31.4323C212.791 31.7108 212.616 32.0242 212.616 32.4073C212.616 32.7207 212.721 32.9644 212.965 33.243C213.174 33.4867 213.731 33.835 214.637 34.2876L216.658 35.2975C218.818 36.3421 220.281 37.4216 221.082 38.5359C221.883 39.6502 222.267 40.9386 222.267 42.4011C222.267 44.3511 221.535 46.0226 220.107 47.311C218.678 48.6342 216.727 49.2958 214.289 49.2958C211.049 49.2958 208.471 48.0423 206.555 45.5003L209.969 41.7743C210.631 42.5404 211.397 43.1324 212.268 43.6199C213.139 44.0726 213.905 44.3163 214.602 44.3163C215.334 44.3163 215.926 44.1422 216.379 43.794C216.832 43.4458 217.041 43.0279 217.041 42.5752C217.041 41.7047 216.24 40.9038 214.602 40.0681L212.721 39.1279C209.133 37.3171 207.356 35.0537 207.356 32.3376C207.356 30.5965 208.018 29.0992 209.377 27.8456C210.735 26.592 212.442 26.0001 214.567 26.0001C215.996 26.0001 217.354 26.3135 218.643 26.9403C219.898 27.6019 220.978 28.5072 221.849 29.6912Z" fill="#0D152C"/>
<path d="M261.591 27H267.269L272.878 40.0582L278.452 27H284.096L274.655 49.1467H271.067L261.591 27Z" fill="#0D152C"/>
<path d="M236.017 44.5901V49.5H233.112C231.043 49.5 229.429 48.9921 228.272 47.9762C227.115 46.9378 226.536 45.256 226.536 42.9308V35.4135H224.267V30.6052H226.536V26H232.245V30.6052H235.983V35.4135H232.245V42.9986C232.245 43.5629 232.378 43.9693 232.645 44.2176C232.912 44.4659 233.357 44.5901 233.98 44.5901H236.017Z" fill="#0D152C"/>
<path d="M249.855 44.5371C246.231 44.5371 243.27 41.5773 243.27 37.9558C243.27 34.3343 246.197 31.3397 249.855 31.3397C253.478 31.3397 256.439 34.2995 256.439 37.921C256.439 38.3737 256.404 38.8263 256.3 39.2442L260.341 42.9353C261.072 41.4032 261.491 39.6969 261.491 37.8862C261.491 31.4789 256.265 26.2557 249.855 26.2557C243.444 26.2557 238.219 31.4789 238.219 37.8862C238.219 44.2934 243.444 49.5166 249.855 49.5166C251.701 49.5166 253.443 49.0988 254.976 48.3327L250.726 44.4327C250.447 44.5023 250.133 44.5371 249.855 44.5371Z" fill="url(#paint4_linear_1006_3633)"/>
<path d="M249.855 42.9005C252.606 42.9005 254.837 40.6711 254.837 37.921C254.837 35.1709 252.606 32.9415 249.855 32.9415C247.103 32.9415 244.873 35.1709 244.873 37.921C244.873 40.6711 247.103 42.9005 249.855 42.9005Z" fill="url(#paint5_linear_1006_3633)"/>
<path d="M255.847 46.522C257.175 46.522 258.251 45.4463 258.251 44.1193C258.251 42.7923 257.175 41.7166 255.847 41.7166C254.52 41.7166 253.443 42.7923 253.443 44.1193C253.443 45.4463 254.52 46.522 255.847 46.522Z" fill="url(#paint6_linear_1006_3633)"/>
</g>
<defs>
<linearGradient id="paint0_linear_1006_3633" x1="13.7037" y1="42.4966" x2="73.5141" y2="42.4966" gradientUnits="userSpaceOnUse">
<stop stop-color="#1782B1"/>
<stop offset="1" stop-color="#00A48C"/>
</linearGradient>
<linearGradient id="paint1_linear_1006_3633" x1="20.6794" y1="42.6522" x2="74.3909" y2="42.6522" gradientUnits="userSpaceOnUse">
<stop stop-color="#1782B1"/>
<stop offset="1" stop-color="#43AE70"/>
</linearGradient>
<linearGradient id="paint2_linear_1006_3633" x1="21.2964" y1="42.6183" x2="67.1824" y2="42.6183" gradientUnits="userSpaceOnUse">
<stop stop-color="#1782B1"/>
<stop offset="1" stop-color="#43AE70"/>
</linearGradient>
<linearGradient id="paint3_linear_1006_3633" x1="28.2201" y1="42.5231" x2="62.8763" y2="42.5231" gradientUnits="userSpaceOnUse">
<stop stop-color="#295BA8"/>
<stop offset="1" stop-color="#14B3A0"/>
</linearGradient>
<linearGradient id="paint4_linear_1006_3633" x1="238.209" y1="37.9362" x2="261.485" y2="37.9362" gradientUnits="userSpaceOnUse">
<stop stop-color="#14B3A0"/>
<stop offset="1" stop-color="#295BA8"/>
</linearGradient>
<linearGradient id="paint5_linear_1006_3633" x1="244.871" y1="37.9362" x2="254.824" y2="37.9362" gradientUnits="userSpaceOnUse">
<stop stop-color="#14B3A0"/>
<stop offset="1" stop-color="#295BA8"/>
</linearGradient>
<linearGradient id="paint6_linear_1006_3633" x1="253.422" y1="44.1273" x2="258.25" y2="44.1273" gradientUnits="userSpaceOnUse">
<stop stop-color="#14B3A0"/>
<stop offset="1" stop-color="#295BA8"/>
</linearGradient>
<clipPath id="clip0_1006_3633">
<rect width="301" height="85" fill="white"/>
</clipPath>
</defs>
</svg>
