<svg width="277" height="65" viewBox="0 0 277 65" fill="none" xmlns="http://www.w3.org/2000/svg">
<path fill-rule="evenodd" clip-rule="evenodd" d="M11.2875 53.3818C10.9043 52.9988 10.3469 52.9291 9.85914 53.1381C5.01667 47.9148 1.98576 41.0201 1.70706 33.3941C2.12512 33.1852 2.40382 32.7673 2.40382 32.2798C2.40382 31.7923 2.12512 31.3744 1.70706 31.1655C1.98576 23.5395 5.01667 16.6448 9.85914 11.4215C10.312 11.6653 10.9043 11.5608 11.2875 11.1778C11.6707 10.7948 11.7404 10.2028 11.5314 9.7501C16.7222 4.90987 23.6201 1.84556 31.2148 1.56698C31.3542 2.08931 31.8419 2.43753 32.3993 2.43753C32.9567 2.43753 33.4444 2.05449 33.5838 1.56698C43.4778 1.9152 52.1873 6.99918 57.5523 14.5555C57.2039 15.043 57.2388 15.7046 57.6917 16.1573C58.1794 16.6448 58.9458 16.6448 59.4336 16.1573C59.9213 15.6698 59.9213 14.9037 59.4336 14.4162C59.12 14.1028 58.6671 13.9984 58.2491 14.1028C52.7447 6.26792 43.7565 1.07948 33.5141 0.731258C33.3399 0.278575 32.887 0 32.3993 0C31.8767 0 31.4587 0.313396 31.2845 0.731258C23.4111 1.00983 16.3042 4.17862 10.9391 9.19295C10.4862 8.98402 9.96366 9.08849 9.58044 9.47153C9.19722 9.85457 9.12755 10.3769 9.33657 10.8296C4.31991 16.1921 1.18449 23.2958 0.905787 31.0959C0.383217 31.2352 0 31.7227 0 32.2798C0 32.837 0.383217 33.3245 0.905787 33.4637C1.18449 41.2987 4.35474 48.3675 9.33657 53.73C9.12755 54.1827 9.23206 54.7399 9.58044 55.0881C9.96366 55.4711 10.4862 55.5408 10.9391 55.3318C16.3042 60.3462 23.4111 63.4801 31.2845 63.7587C31.4587 64.2114 31.9116 64.5248 32.4341 64.5248C32.9567 64.5248 33.3748 64.2114 33.5838 63.7587C43.7913 63.4105 52.7795 58.222 58.3187 50.3871C58.7368 50.4916 59.1897 50.3871 59.5032 50.0737C59.991 49.5862 59.991 48.8202 59.5032 48.3327C59.0155 47.8451 58.2491 47.8451 57.7613 48.3327C57.3433 48.7505 57.2736 49.4469 57.622 49.9345C52.2569 57.5256 43.5475 62.5748 33.6535 62.923C33.5141 62.4355 33.0264 62.0524 32.469 62.0524C31.9116 62.0524 31.4587 62.4007 31.2845 62.923C23.6898 62.6444 16.7919 59.5801 11.601 54.7399C11.7752 54.322 11.6707 53.7649 11.2875 53.3818Z" fill="white"/>
<path fill-rule="evenodd" clip-rule="evenodd" d="M51.177 14.7644C51.5603 15.1823 52.1525 15.2519 52.6402 15.043C56.6118 19.7091 59.0156 25.7681 59.0504 32.3146C58.5975 32.4887 58.2492 32.9066 58.2143 33.4289C58.1795 33.9512 58.493 34.4039 58.9459 34.6128C58.4233 41.1593 55.6015 47.0094 51.3164 51.3621C50.8635 51.0836 50.2364 51.1184 49.8184 51.5014C49.4003 51.8844 49.3306 52.5112 49.5745 52.9639C44.9062 56.9336 38.8792 59.3363 32.3297 59.406C32.2252 58.8488 31.7375 58.4658 31.1801 58.431C30.5878 58.3961 30.1001 58.7792 29.9607 59.3363C21.1119 58.6399 13.552 53.6952 9.16247 46.6264C9.54568 46.1737 9.54568 45.4772 9.12763 44.9897C8.67473 44.5022 7.87346 44.4674 7.38573 44.9201C6.898 45.3728 6.86316 46.1737 7.31606 46.6612C7.6296 46.9746 8.04765 47.1139 8.43087 47.0442C12.9598 54.3916 20.8332 59.4756 29.9956 60.172C30.1698 60.5899 30.5878 60.8685 31.0755 60.9033C31.5633 60.9381 31.9813 60.6595 32.1904 60.2765C39.0186 60.2417 45.3243 57.7345 50.1667 53.5559C50.5848 53.73 51.1074 53.6604 51.4558 53.3121C51.8041 52.9639 51.9435 52.4764 51.8041 52.0237C56.2982 47.4969 59.2246 41.4379 59.782 34.6477C60.2698 34.5084 60.653 34.0557 60.653 33.4985C60.6878 32.9414 60.3394 32.4887 59.8517 32.3146C59.8169 25.5244 57.3085 19.2564 53.1977 14.4162C53.3718 13.9983 53.3022 13.476 52.9538 13.093C52.6054 12.7099 52.0828 12.6055 51.6648 12.7796C47.1358 8.28757 41.0392 5.32771 34.2458 4.80539C34.0716 4.38753 33.6536 4.07413 33.1658 4.03931C32.6781 4.00449 32.2252 4.28306 32.0162 4.70092C22.8189 4.70092 14.5972 9.22776 9.54569 16.1921C9.16247 16.0877 8.70957 16.1921 8.39603 16.4707C7.9083 16.9234 7.87346 17.7243 8.32636 18.2118C8.77925 18.6993 9.58052 18.7341 10.0683 18.2814C10.5211 17.8636 10.5908 17.1671 10.2424 16.6796C15.1198 9.92419 23.0628 5.57147 31.9117 5.53665C32.0162 6.05897 32.5039 6.47683 33.0613 6.47683C33.6187 6.51166 34.1064 6.12862 34.2806 5.60629C40.7953 6.12862 46.6481 8.984 51.0029 13.2671C50.7242 13.7546 50.7938 14.3466 51.177 14.7644Z" fill="white"/>
<path fill-rule="evenodd" clip-rule="evenodd" d="M16.3039 47.9842C15.9555 47.636 15.4678 47.5663 15.0497 47.7056C11.6008 43.9101 9.44082 39.0002 9.16212 33.5332C9.64985 33.3939 9.99823 32.9064 9.99823 32.384C9.99823 31.8269 9.64985 31.3742 9.16212 31.2349C9.44082 25.8027 11.6008 20.8929 15.0149 17.0973C15.4678 17.3062 15.9904 17.2017 16.3736 16.8535C16.7568 16.4705 16.8265 15.9482 16.6174 15.4955C20.4148 12.0481 25.3269 9.88917 30.7617 9.61059C30.9358 10.0633 31.3887 10.4115 31.9113 10.4115C32.4339 10.4115 32.8868 10.0633 33.061 9.61059C40.7601 9.99363 47.4839 14.1722 51.316 20.3357C50.9328 20.8232 50.9328 21.5196 51.3857 21.9723C51.8735 22.4598 52.6399 22.4598 53.0928 21.9723C53.5805 21.4848 53.5805 20.7187 53.0928 20.2661C52.8141 19.9875 52.396 19.8482 52.0128 19.9178C48.0064 13.5106 41.0389 9.15791 33.0261 8.80969C32.8519 8.35701 32.399 8.00879 31.8765 8.00879C31.3539 8.00879 30.901 8.32218 30.7268 8.80969C25.0482 9.08826 19.927 11.3517 15.9904 14.9383C15.5375 14.7294 14.9801 14.799 14.5968 15.1821C14.2136 15.5651 14.1439 16.1223 14.353 16.575C10.8343 20.4402 8.56987 25.5938 8.32601 31.2349C7.87311 31.409 7.55957 31.8617 7.55957 32.3492C7.55957 32.8715 7.87311 33.2894 8.32601 33.4635C8.60471 39.1047 10.8343 44.2583 14.3878 48.1931C14.1091 48.6458 14.1788 49.2726 14.562 49.6905C14.9801 50.1083 15.5723 50.1432 16.06 49.8646C19.9619 53.4164 25.0831 55.6798 30.7268 55.9584C30.8662 56.4807 31.3539 56.8638 31.9113 56.8638C32.4687 56.8638 32.9564 56.4807 33.0958 55.9584C41.1085 55.5754 48.0413 51.2226 52.0476 44.8502C52.4309 44.9199 52.8489 44.8154 53.1276 44.502C53.6154 44.0145 53.6154 43.2484 53.1276 42.7958C52.6399 42.3083 51.8735 42.3083 51.4206 42.7958C50.9677 43.2484 50.9328 43.9449 51.3509 44.4324C47.4839 50.5958 40.7601 54.8093 33.061 55.1575C32.8519 54.7396 32.4339 54.4611 31.9461 54.4611C31.4584 54.4611 31.0404 54.7396 30.8313 55.1575C25.3618 54.8789 20.4148 52.6851 16.6174 49.2378C16.722 48.8199 16.6174 48.3324 16.3039 47.9842Z" fill="white"/>
<path d="M31.8067 49.6212C41.3692 49.6212 49.1211 41.8728 49.1211 32.3147C49.1211 22.7567 41.3692 15.0083 31.8067 15.0083C22.2441 15.0083 14.4922 22.7567 14.4922 32.3147C14.4922 41.8728 22.2441 49.6212 31.8067 49.6212Z" fill="white"/>
<path fill-rule="evenodd" clip-rule="evenodd" d="M31.1102 35.9015C31.8418 35.9711 33.2701 35.7274 33.4791 36.7372C33.6185 37.3292 33.2353 37.5381 32.7475 37.6426C32.9914 37.747 33.514 38.0256 33.6533 38.1649C34.0017 38.1301 34.803 37.0158 34.0365 35.9015C33.5837 35.2399 32.7475 35.0309 32.0159 34.9961C31.3192 34.9613 29.3683 34.9265 29.5424 33.847C29.5773 33.6032 29.7515 33.3943 29.8908 33.2898C30.0302 33.1854 30.3089 33.1157 30.4482 32.9764C30.1695 32.9764 29.2637 32.7327 29.1592 32.6282C29.0547 32.6282 28.985 32.6979 28.8805 32.8372C28.567 33.255 28.4276 33.847 28.5321 34.3693C28.8109 35.414 30.1695 35.8318 31.1102 35.9015ZM21.1813 25.5246L17.9414 25.7335C18.0111 26.6041 19.1259 26.9523 19.8575 26.9871C20.9723 27.0567 22.5749 26.9174 23.3065 26.7782C23.62 26.7433 23.8639 26.6737 23.9335 26.6041C23.62 26.1165 23.5503 26.1165 23.1671 26.0121C22.5749 25.838 22.4703 25.7335 22.4007 25.4201L21.1813 25.5246ZM42.4673 25.5246L45.7073 25.7335C45.6376 26.6041 44.5228 26.9523 43.7912 26.9871C42.6764 27.0567 41.0738 26.9174 40.3422 26.7782C40.0287 26.7433 39.7848 26.6737 39.7151 26.6041C40.0287 26.1165 40.0984 26.1165 40.4816 26.0121C41.0738 25.838 41.1783 25.7335 41.248 25.4201L42.4673 25.5246ZM32.1901 27.5791C32.5734 27.405 33.0262 27.0567 33.2004 26.6737C33.3049 26.6389 33.723 26.4996 33.8275 26.4648C33.7578 26.8478 33.2701 27.405 32.7127 27.788C32.5734 27.6835 32.3643 27.6487 32.1553 27.6139L32.1901 27.5791ZM30.936 27.788C30.3786 27.405 29.8908 26.8478 29.8212 26.4648C29.9257 26.4996 30.3437 26.6389 30.4482 26.6737C30.6224 27.0567 31.0753 27.405 31.4585 27.5791L31.4934 27.6487C31.2843 27.6487 31.0753 27.6835 30.936 27.788ZM32.8869 27.9273C32.8869 27.9273 32.8869 27.8925 32.8869 27.9273C32.9914 27.7532 33.0959 27.788 33.2004 27.8925C33.0959 27.8925 32.9914 27.8925 32.8869 27.9273ZM35.7784 28.38C35.7784 28.5541 35.6739 28.6585 35.4997 28.6934C35.3952 28.5889 35.2559 28.4844 35.0817 28.38C34.7333 28.1362 34.1411 27.9273 33.6185 27.8925C33.514 27.788 33.4443 27.6835 33.4095 27.6139C33.4095 27.5094 33.723 26.9523 33.932 27.1264C34.7333 27.7183 34.7681 27.8228 35.7784 28.38ZM36.8236 27.8228C36.6842 28.171 36.301 28.171 35.9178 28.0666C35.4301 27.9273 34.1411 27.1612 34.0714 26.6041C34.0714 26.4648 34.1062 26.3255 34.2456 26.1514C34.2456 26.1514 34.803 26.6041 35.3952 27.0219C36.0571 27.4398 36.7887 27.788 36.8236 27.8228ZM38.0777 27.0219C38.0429 27.5442 37.5552 27.5791 37.0674 27.4746C36.4404 27.3353 34.9423 26.4299 34.7333 25.9424C35.6043 25.5246 34.8727 25.629 36.5797 26.4299C37.0674 26.6389 37.59 26.8826 38.0777 27.0219ZM37.7642 30.2603C37.6945 30.6434 37.1371 30.6434 36.8236 30.6434C36.6842 30.6434 36.4404 30.5737 36.1965 30.4344C36.2313 30.0166 36.1617 29.6684 35.9875 29.3202C36.4752 29.6684 36.9281 29.9818 37.7642 30.2603ZM41.3874 28.5541C41.248 28.9023 40.8299 29.0416 40.3771 29.1112C39.1926 29.146 38.1823 28.5193 37.172 27.9969C37.5203 27.6835 37.9384 27.5442 38.3913 27.6835C39.0184 27.8925 40.5512 28.38 41.3874 28.5541ZM39.6803 26.1862C39.5758 26.6041 38.879 26.7433 38.5306 26.7433C37.7642 26.7433 36.6494 26.1514 36.0223 25.8032C35.5694 25.5594 35.1862 25.3853 35.6391 24.7933C35.9178 24.7933 37.1023 25.4201 37.5203 25.5942C37.8687 25.7335 38.1823 25.838 38.5306 25.9424C38.879 26.0121 39.4016 26.0817 39.6803 26.1862ZM40.9345 25.2112C40.9345 25.6639 40.4467 25.9076 39.8545 25.8728C38.9835 25.838 37.8687 25.3853 37.5552 25.246C37.3113 25.1415 36.7887 24.9326 36.6146 24.7585C37.1371 24.271 37.59 24.2013 38.2171 24.4103C38.7048 24.5844 40.6558 25.2112 40.9345 25.2112ZM39.6455 29.4246C39.7151 29.8077 39.4364 30.0862 39.0184 30.1211C38.3216 30.2255 37.4158 29.8077 36.8236 29.4943C36.4752 29.2853 36.2313 29.146 35.883 28.9023C36.4055 27.8576 37.1023 28.38 37.8687 28.7282C38.461 29.0416 38.9487 29.2853 39.6455 29.4246ZM42.0841 27.2308L43.3731 27.3005C43.3731 27.3353 43.5473 27.2657 43.3383 27.5791C42.6764 28.6934 40.5164 28.0317 39.5061 27.7184C38.9487 27.5442 38.4261 27.3353 38.3913 27.1264C38.879 26.7085 39.7151 26.9523 40.1332 27.0219C40.6906 27.1264 41.457 27.196 42.0841 27.2308ZM37.172 24.0621C36.0571 24.5844 35.9178 24.5844 35.3255 24.4799C34.9772 25.5246 34.9772 25.4549 34.2107 25.6987C33.8624 25.8032 34.0365 25.9424 33.8972 26.1862C33.2004 26.0469 33.2353 24.863 33.4095 24.4103C33.5488 24.0621 33.723 23.8183 33.8972 23.6442C34.6985 22.9826 36.8236 23.5397 37.172 24.0621ZM30.7618 27.9273C30.6573 27.6835 30.5179 27.788 30.4134 27.8925C30.5179 27.8925 30.6224 27.9273 30.7618 27.9273ZM27.8354 28.38C27.8354 28.5889 27.9747 28.6934 28.1489 28.7282C28.6367 28.3103 29.2637 28.0317 29.8908 27.9621H29.9257C30.0302 27.8576 30.1347 27.7532 30.1695 27.6487C30.1695 27.5442 29.856 26.9871 29.647 27.1612C28.9154 27.7184 28.8805 27.8228 27.8354 28.38ZM26.8251 27.8228C26.9644 28.171 27.3477 28.171 27.7309 28.0666C28.2186 27.9273 29.5076 27.1612 29.5773 26.6041C29.5773 26.4648 29.5424 26.3255 29.4031 26.1514C29.4031 26.1514 28.8457 26.6041 28.2534 27.0219C27.5915 27.4398 26.8251 27.788 26.8251 27.8228ZM25.5361 27.0219C25.5709 27.5442 26.0587 27.5791 26.5464 27.4746C27.1735 27.3353 28.6715 26.4299 28.8805 25.9424C28.0096 25.5246 28.7412 25.629 27.0341 26.4299C26.5464 26.6389 26.0586 26.8826 25.5361 27.0219ZM25.8845 30.2603C25.9541 30.6434 26.5115 30.6434 26.8251 30.6434C26.9644 30.6434 27.1735 30.5737 27.4522 30.4344C27.4522 30.2952 27.4522 30.1211 27.4522 29.9818C27.487 29.738 27.5567 29.4943 27.696 29.2853C27.2083 29.6335 26.7206 29.9818 25.8845 30.2603ZM22.2613 28.5541C22.4007 28.9023 22.8187 29.0416 23.2716 29.1112C24.4561 29.146 25.4664 28.5193 26.4767 27.9969C26.1283 27.6835 25.7103 27.5442 25.2574 27.6835C24.6303 27.8925 23.0974 28.38 22.2613 28.5541ZM23.9684 26.1862C24.0729 26.6041 24.7696 26.7433 25.118 26.7433C25.8845 26.7433 26.9993 26.1514 27.6264 25.8032C28.0793 25.5594 28.4625 25.3853 28.0096 24.7933C27.7309 24.7933 26.5464 25.4201 26.1283 25.5942C25.7799 25.7335 25.4664 25.838 25.118 25.9424C24.7696 26.0121 24.2471 26.0817 23.9684 26.1862ZM22.7142 25.2112C22.7142 25.6639 23.2019 25.9076 23.7942 25.8728C24.6651 25.838 25.7799 25.3853 26.0935 25.246C26.3374 25.1415 26.8599 24.9326 27.0341 24.7585C26.5115 24.271 26.0587 24.2013 25.4316 24.4103C24.9438 24.5844 22.9929 25.2112 22.7142 25.2112ZM24.0032 29.4246C23.9335 29.8077 24.2122 30.0862 24.6303 30.1211C25.3271 30.2255 26.2328 29.8077 26.8251 29.4943C27.1735 29.2853 27.4173 29.146 27.7657 28.9023C27.2431 27.8576 26.5464 28.38 25.7799 28.7282C25.1877 29.0416 24.7 29.2853 24.0032 29.4246ZM21.5646 27.2308L20.2755 27.3005C20.2755 27.3353 20.1014 27.2657 20.3104 27.5791C20.9723 28.6934 23.1323 28.0317 24.1426 27.7184C24.7 27.5442 25.2225 27.3353 25.2574 27.1264C24.7696 26.7085 23.9335 26.9523 23.5155 27.0219C22.9581 27.1264 22.1916 27.196 21.5646 27.2308ZM26.4767 24.0621C27.5915 24.5844 27.7309 24.5844 28.3231 24.4799C28.6715 25.5246 28.6715 25.4549 29.4379 25.6987C29.7863 25.8032 29.6121 25.9424 29.7515 26.1862C30.4482 26.0469 30.4134 24.863 30.2392 24.4103C30.0999 24.0621 29.9257 23.8183 29.7515 23.6442C28.9502 22.9826 26.8251 23.5397 26.4767 24.0621ZM30.9708 28.38C31.0405 28.38 31.1102 28.4496 31.1102 28.5193C31.1102 28.5889 31.0405 28.6585 30.9708 28.6585C30.9011 28.6585 30.8315 28.5889 30.8315 28.5193C30.8315 28.4496 30.9011 28.38 30.9708 28.38ZM32.8172 28.38C32.8869 28.38 32.9566 28.4496 32.9566 28.5193C32.9566 28.5889 32.8869 28.6585 32.8172 28.6585C32.7475 28.6585 32.6779 28.5889 32.6779 28.5193C32.6779 28.4496 32.7475 28.38 32.8172 28.38ZM31.1798 32.7675C31.9811 32.8023 34.0365 32.7675 34.1062 33.9515C34.1062 34.4738 33.4443 34.7524 32.9566 34.8568C32.9566 34.8568 33.7927 35.1006 34.1062 35.4836C35.0817 35.0657 35.3952 34.0211 34.9075 33.0809C34.6636 32.6282 34.2456 32.28 33.7578 32.0711C32.3295 31.4443 30.936 31.897 29.7166 31.3398C29.3334 31.1657 28.985 30.9568 28.9154 30.5737C28.8109 30.0862 29.0199 29.5639 29.2637 29.355C29.7515 28.9023 29.8211 29.1809 30.4134 29.2505C30.8663 29.3202 31.4237 29.146 31.563 28.8326C31.4585 28.1362 30.5179 28.0666 29.9605 28.171C27.5915 28.5193 26.8599 30.8175 28.7412 32.1059C29.3683 32.5586 30.4134 32.7327 31.1798 32.7675ZM31.7372 27.8925C31.5282 27.8576 31.145 27.8576 30.9708 28.1014C31.2147 28.2059 31.4237 28.3103 31.5979 28.5889C31.7721 28.38 31.7721 28.1014 31.7372 27.8925ZM31.9114 27.8925C32.1205 27.8576 32.5037 27.8576 32.6779 28.1014C32.434 28.2059 32.225 28.3103 32.0508 28.5889C31.8766 28.38 31.8766 28.1014 31.9114 27.8925ZM31.8069 23.5397C32.3295 23.5397 32.7824 23.9576 32.7824 24.5147C32.7824 25.0371 32.3295 25.4898 31.8069 25.4898C31.2843 25.4898 30.8315 25.0719 30.8315 24.5147C30.8315 23.9924 31.2843 23.5397 31.8069 23.5397ZM31.354 23.888C31.4585 23.888 31.563 23.9924 31.563 24.0969C31.563 24.2013 31.4585 24.3058 31.354 24.3058C31.2495 24.3058 31.145 24.2013 31.145 24.0969C31.1798 23.9924 31.2495 23.888 31.354 23.888ZM31.6327 42.448H31.9463L31.9811 41.1247H31.563L31.6327 42.448ZM32.4688 25.5246C31.8766 25.6987 31.8069 25.6987 31.1798 25.5246C31.145 26.221 32.5037 26.221 32.4688 25.5246ZM31.4585 26.4648C31.4585 27.0219 31.6676 27.4398 31.8418 27.8228C32.0159 27.4398 32.225 27.0219 32.225 26.4648C32.225 26.221 32.0508 26.1165 31.8418 26.0817C31.6327 26.1165 31.4585 26.2558 31.4585 26.4648ZM31.5979 40.2194H32.0508L32.0856 38.6176H31.563L31.5979 40.2194ZM31.5282 37.6426H32.0856V36.1104H31.5282V37.6426ZM32.1205 32.9764H31.4934C31.4237 33.1854 31.4585 34.23 31.4934 34.5782C31.4934 34.8568 31.4934 34.822 31.8069 34.822C32.225 34.822 32.1205 34.8916 32.1553 34.0907C32.1553 33.8122 32.1901 33.2202 32.1205 32.9764ZM31.8069 28.6585C31.563 29.0416 31.4585 29.355 31.4585 29.8773C31.4585 30.3996 31.4585 30.922 31.4585 31.4443C31.6327 31.5139 31.9811 31.5139 32.1553 31.4443C32.1553 30.922 32.1553 30.3648 32.1553 29.8425C32.1553 29.4943 32.0856 29.146 31.9114 28.8326C31.9114 28.7978 31.8418 28.6237 31.8069 28.6585ZM31.9463 44.5721L31.9811 43.1096H31.6676L31.7024 44.5373C31.3889 44.4676 31.2495 44.2239 31.2147 43.8757C31.1798 43.3185 31.3889 43.3533 31.563 43.0399C31.4934 43.0399 31.2147 42.9007 31.2147 42.9007C30.7618 43.5274 30.7966 44.5373 31.7024 44.6766C31.7024 44.8159 31.7372 45.756 31.8069 45.7212C31.8766 45.6864 31.9114 44.781 31.9114 44.6766C33.0262 44.4328 32.9914 43.2837 32.225 42.7265C31.8766 42.4828 31.4237 42.4828 31.1102 42.1694C30.8663 41.9605 30.7966 41.473 31.145 41.1596L31.2495 41.0551C31.1102 41.0551 30.6224 40.881 30.6224 40.881C30.5179 41.1247 30.3786 41.2988 30.3786 41.5078C30.3786 43.0399 32.1205 42.6917 32.3992 43.4926C32.6082 44.0498 32.3643 44.5025 31.9463 44.5721ZM30.936 40.1149C30.0999 39.5229 30.8315 38.8613 30.9011 38.7569C30.7618 38.7569 30.2044 38.5827 30.1347 38.5131C30.065 38.7917 29.6121 39.314 29.9953 40.0453C30.6224 41.2989 32.2598 40.7417 32.643 41.3685C32.7824 41.5774 32.7824 41.8908 32.643 42.0998C32.5037 42.3435 32.3295 42.3435 32.0856 42.5176C32.1205 42.5524 32.3643 42.6569 32.4688 42.7614C32.5385 42.831 32.7127 42.6917 32.7824 42.6221C33.3398 42.2042 33.4791 41.2292 32.7475 40.7069C32.3643 40.3587 31.4585 40.4631 30.936 40.1149ZM31.4585 38.5479C31.9114 38.5479 32.3643 38.5131 32.7127 38.722C32.9566 38.8613 33.2701 39.2792 33.0959 39.697C32.9566 40.1149 32.434 40.2194 32.2946 40.3587C32.643 40.3587 32.9566 40.6372 33.0611 40.6372C33.1656 40.6372 33.2701 40.5676 33.514 40.3238C33.9669 39.8015 33.9669 39.1399 33.5837 38.5828C33.2004 37.9908 32.5037 37.7818 31.8418 37.7818C31.4237 37.7818 31.0405 37.7818 30.6921 37.6077C29.8212 37.2595 30.2392 36.2149 30.7618 36.0756C30.4134 36.0408 29.9257 35.9015 29.7166 35.7622C29.7166 35.8318 28.7063 37.2943 29.9257 38.1301C30.274 38.4086 30.936 38.5479 31.4585 38.5479ZM33.0611 31.6184C33.3746 31.688 33.6533 31.7925 33.932 31.9318C34.2804 32.1059 34.4198 32.2452 34.594 32.2452C34.6636 32.2452 34.7333 32.2452 34.803 32.1755C35.2559 31.9318 35.7784 31.4095 35.9178 30.8175C36.4752 28.4496 33.514 27.7184 32.6779 28.2407C31.6676 28.8326 32.2946 29.1809 32.9914 29.2505C33.4443 29.2853 33.723 29.0416 34.0714 29.146C34.7333 29.3202 34.9423 30.3648 34.6636 30.7827C34.3152 31.3746 33.3398 31.4791 33.0611 31.6184Z" fill="#18A4A1"/>
<path d="M71.2785 46.8352V54.9139H70.2334V46.8352H71.2785Z" fill="white"/>
<path d="M78.0368 49.1685C78.5246 49.6212 78.7684 50.3176 78.7684 51.1882V54.9141H77.7233V51.3275C77.7233 50.7007 77.5491 50.2132 77.2356 49.865C76.922 49.5167 76.504 49.3774 75.9466 49.3774C75.3891 49.3774 74.9363 49.5516 74.6227 49.8998C74.3092 50.248 74.135 50.7355 74.135 51.4319V54.9141H73.0898V48.5765H74.135V49.4819C74.344 49.1685 74.6227 48.8899 74.9711 48.7158C75.3195 48.5417 75.7375 48.4373 76.1556 48.4373C76.9569 48.4721 77.5839 48.681 78.0368 49.1685Z" fill="white"/>
<path d="M81.765 49.4467V53.1726C81.765 53.486 81.8347 53.695 81.9741 53.8343C82.1134 53.9735 82.3224 54.0084 82.6708 54.0084H83.4373V54.9137H82.4966C81.9044 54.9137 81.4863 54.7744 81.1728 54.4959C80.8941 54.2173 80.7199 53.7994 80.7199 53.1726V49.4467H79.8838V48.5762H80.7199V46.9744H81.765V48.5762H83.4373V49.4467H81.765Z" fill="white"/>
<path d="M90.4739 52.1284H85.3876C85.4224 52.7552 85.6315 53.2427 86.0147 53.5909C86.3979 53.9391 86.8856 54.1132 87.443 54.1132C87.8959 54.1132 88.2792 54.0087 88.5927 53.7998C88.9062 53.5909 89.1153 53.3123 89.2198 52.9641H90.3694C90.1952 53.5909 89.8469 54.0784 89.3591 54.4614C88.8366 54.8445 88.2095 55.0186 87.443 55.0186C86.8508 55.0186 86.2934 54.8793 85.8405 54.6007C85.3528 54.3221 85.0044 53.9391 84.7257 53.4516C84.447 52.9641 84.3076 52.3721 84.3076 51.7105C84.3076 51.0489 84.447 50.4917 84.6908 49.9694C84.9347 49.4471 85.3179 49.0989 85.8057 48.8203C86.2934 48.5417 86.816 48.4373 87.443 48.4373C88.0353 48.4373 88.5927 48.5765 89.0456 48.8203C89.4985 49.0989 89.8817 49.4471 90.1256 49.8998C90.3694 50.3525 90.5088 50.8748 90.5088 51.4668C90.5088 51.7105 90.4739 51.9194 90.4739 52.1284ZM89.1501 50.248C88.9759 49.9694 88.732 49.7257 88.4185 49.5864C88.105 49.4471 87.7914 49.3774 87.4082 49.3774C86.8856 49.3774 86.4327 49.5516 86.0495 49.8998C85.6663 50.248 85.4573 50.7007 85.4224 51.3275H89.394C89.394 50.8748 89.3243 50.5266 89.1501 50.248Z" fill="white"/>
<path d="M93.7488 48.7507C94.0971 48.5417 94.5152 48.4373 95.0029 48.4373V49.5167H94.7242C93.5397 49.5167 92.9475 50.1435 92.9475 51.4319V54.8793H91.9023V48.5417H92.9475V49.5864C93.1217 49.2382 93.4004 48.9596 93.7488 48.7507Z" fill="white"/>
<path d="M101.17 49.1683C101.657 49.621 101.901 50.3174 101.901 51.1879V54.9139H100.856V51.3272C100.856 50.7004 100.682 50.2129 100.368 49.8647C100.055 49.5165 99.6368 49.3772 99.0794 49.3772C98.522 49.3772 98.0691 49.5513 97.7555 49.8995C97.442 50.2477 97.2678 50.7353 97.2678 51.4317V54.9139H96.2227V48.5763H97.2678V49.4817C97.4768 49.1683 97.7555 48.8897 98.1039 48.7156C98.4523 48.5415 98.8703 48.437 99.2884 48.437C100.09 48.4718 100.682 48.6808 101.17 49.1683Z" fill="white"/>
<path d="M103.608 50.0042C103.887 49.5167 104.235 49.1337 104.688 48.8551C105.141 48.5765 105.663 48.4373 106.221 48.4373C106.778 48.4373 107.266 48.5417 107.684 48.7855C108.102 49.0292 108.381 49.3426 108.59 49.6908V48.5417H109.67V54.9141H108.59V53.7302C108.381 54.1132 108.067 54.3918 107.649 54.6355C107.231 54.8793 106.743 54.9838 106.221 54.9838C105.663 54.9838 105.141 54.8445 104.688 54.5659C104.235 54.2873 103.887 53.9043 103.608 53.382C103.329 52.8596 103.225 52.3025 103.225 51.6757C103.225 51.0837 103.364 50.4917 103.608 50.0042ZM108.311 50.4917C108.102 50.1435 107.858 49.865 107.545 49.6908C107.231 49.5167 106.848 49.4123 106.465 49.4123C106.081 49.4123 105.698 49.5167 105.385 49.6908C105.071 49.865 104.792 50.1435 104.618 50.4917C104.409 50.84 104.339 51.2578 104.339 51.7453C104.339 52.2328 104.444 52.6507 104.618 52.9989C104.827 53.3471 105.071 53.6257 105.385 53.8346C105.698 54.0087 106.081 54.1132 106.465 54.1132C106.848 54.1132 107.231 54.0087 107.545 53.8346C107.858 53.6605 108.137 53.382 108.311 52.9989C108.52 52.6507 108.59 52.2328 108.59 51.7453C108.59 51.2578 108.52 50.84 108.311 50.4917Z" fill="white"/>
<path d="M112.735 49.4467V53.1726C112.735 53.486 112.805 53.695 112.944 53.8343C113.084 53.9735 113.293 54.0084 113.641 54.0084H114.408V54.9137H113.432C112.84 54.9137 112.422 54.7744 112.108 54.4959C111.83 54.2173 111.655 53.7994 111.655 53.1726V49.4467H110.819V48.5762H111.655V46.9744H112.701V48.5762H114.373V49.4467H112.735Z" fill="white"/>
<path d="M115.697 47.3227C115.558 47.1834 115.488 47.0093 115.488 46.8003C115.488 46.5914 115.558 46.4173 115.697 46.278C115.837 46.1387 116.011 46.0691 116.22 46.0691C116.429 46.0691 116.568 46.1387 116.708 46.278C116.847 46.4173 116.917 46.5914 116.917 46.8003C116.917 47.0093 116.847 47.1834 116.708 47.3227C116.568 47.462 116.394 47.5316 116.22 47.5316C116.011 47.5316 115.837 47.462 115.697 47.3227ZM116.708 48.5763V54.9138H115.662V48.5763H116.708Z" fill="white"/>
<path d="M119.668 54.6003C119.181 54.3217 118.797 53.9387 118.519 53.4512C118.24 52.9637 118.101 52.3717 118.101 51.7101C118.101 51.0485 118.24 50.4913 118.519 50.0038C118.797 49.5163 119.181 49.1333 119.668 48.8547C120.156 48.5761 120.713 48.4717 121.306 48.4717C121.898 48.4717 122.455 48.611 122.943 48.8547C123.431 49.0985 123.814 49.5163 124.093 50.0038C124.371 50.4913 124.511 51.0833 124.511 51.7449C124.511 52.4065 124.371 52.9637 124.093 53.486C123.814 54.0083 123.396 54.3566 122.908 54.6351C122.42 54.9137 121.863 55.053 121.271 55.053C120.679 55.0182 120.156 54.8789 119.668 54.6003ZM122.351 53.8342C122.699 53.6601 122.943 53.3816 123.152 53.0333C123.361 52.6851 123.466 52.2324 123.466 51.7449C123.466 51.2574 123.361 50.8047 123.152 50.4565C122.943 50.1083 122.699 49.8297 122.351 49.6556C122.037 49.4815 121.689 49.4119 121.306 49.4119C120.922 49.4119 120.574 49.4815 120.261 49.6556C119.947 49.8297 119.668 50.1083 119.494 50.4565C119.285 50.8047 119.215 51.2574 119.215 51.7449C119.215 52.2673 119.32 52.6851 119.494 53.0682C119.668 53.4164 119.947 53.6949 120.261 53.8691C120.574 54.0432 120.922 54.1128 121.306 54.1128C121.689 54.1128 122.002 54.0083 122.351 53.8342Z" fill="white"/>
<path d="M130.886 49.1683C131.374 49.621 131.618 50.3174 131.618 51.1879V54.9139H130.573V51.3272C130.573 50.7004 130.399 50.2129 130.085 49.8647C129.772 49.5165 129.354 49.3772 128.796 49.3772C128.239 49.3772 127.786 49.5513 127.472 49.8995C127.159 50.2477 126.985 50.7353 126.985 51.4317V54.9139H125.939V48.5763H126.985V49.4817C127.194 49.1683 127.472 48.8897 127.821 48.7156C128.169 48.5415 128.587 48.437 129.005 48.437C129.806 48.4718 130.399 48.6808 130.886 49.1683Z" fill="white"/>
<path d="M133.325 50.0042C133.603 49.5167 133.952 49.1337 134.405 48.8551C134.857 48.5765 135.38 48.4373 135.937 48.4373C136.495 48.4373 136.983 48.5417 137.401 48.7855C137.819 49.0292 138.097 49.3426 138.306 49.6908V48.5417H139.386V54.9141H138.306V53.7302C138.097 54.1132 137.784 54.3918 137.366 54.6355C136.948 54.8793 136.46 54.9838 135.937 54.9838C135.38 54.9838 134.857 54.8445 134.405 54.5659C133.952 54.2873 133.603 53.9043 133.325 53.382C133.046 52.8596 132.941 52.3025 132.941 51.6757C132.941 51.0837 133.081 50.4917 133.325 50.0042ZM138.028 50.4917C137.819 50.1435 137.575 49.865 137.261 49.6908C136.948 49.5167 136.565 49.4123 136.181 49.4123C135.798 49.4123 135.415 49.5167 135.101 49.6908C134.788 49.865 134.509 50.1435 134.335 50.4917C134.126 50.84 134.056 51.2578 134.056 51.7453C134.056 52.2328 134.161 52.6507 134.335 52.9989C134.544 53.3471 134.788 53.6257 135.101 53.8346C135.415 54.0087 135.798 54.1132 136.181 54.1132C136.565 54.1132 136.948 54.0087 137.261 53.8346C137.575 53.6605 137.854 53.382 138.028 52.9989C138.237 52.6507 138.306 52.2328 138.306 51.7453C138.306 51.2578 138.237 50.84 138.028 50.4917Z" fill="white"/>
<path d="M142.208 46.3474V54.9136H141.163V46.3474H142.208Z" fill="white"/>
<path d="M155.307 46.905V54.914H154.262V48.9247L151.615 54.914H150.883L148.2 48.9247V54.914H147.155V46.905H148.305L151.266 53.5212L154.227 46.905H155.307Z" fill="white"/>
<path d="M162.832 52.1284H157.746C157.781 52.7552 157.99 53.2427 158.373 53.5909C158.756 53.9391 159.244 54.1132 159.801 54.1132C160.254 54.1132 160.638 54.0087 160.951 53.7998C161.265 53.5909 161.474 53.3123 161.578 52.9641H162.728C162.554 53.5909 162.205 54.0784 161.718 54.4614C161.195 54.8445 160.568 55.0186 159.801 55.0186C159.209 55.0186 158.652 54.8793 158.199 54.6007C157.711 54.3221 157.363 53.9391 157.084 53.4516C156.805 52.9641 156.666 52.3721 156.666 51.7105C156.666 51.0489 156.805 50.4917 157.049 49.9694C157.328 49.4819 157.676 49.0989 158.164 48.8203C158.652 48.5417 159.174 48.4373 159.801 48.4373C160.394 48.4373 160.951 48.5765 161.404 48.8203C161.857 49.0989 162.24 49.4471 162.484 49.8998C162.728 50.3525 162.867 50.8748 162.867 51.4668C162.867 51.7105 162.867 51.9194 162.832 52.1284ZM161.508 50.248C161.334 49.9694 161.09 49.7257 160.777 49.5864C160.463 49.4471 160.15 49.3774 159.767 49.3774C159.244 49.3774 158.791 49.5516 158.408 49.8998C158.025 50.248 157.816 50.7007 157.781 51.3275H161.787C161.787 50.8748 161.683 50.5266 161.508 50.248Z" fill="white"/>
<path d="M164.261 50.0039C164.54 49.5164 164.888 49.1334 165.341 48.8548C165.794 48.5763 166.317 48.437 166.874 48.437C167.362 48.437 167.815 48.5414 168.268 48.7852C168.72 49.0289 168.999 49.3075 169.243 49.6906V46.3477H170.323V54.9138H169.243V53.7299C169.034 54.1129 168.72 54.4263 168.302 54.6701C167.884 54.9138 167.431 55.0183 166.874 55.0183C166.317 55.0183 165.794 54.879 165.341 54.6004C164.888 54.3219 164.505 53.9388 164.261 53.4165C163.982 52.929 163.878 52.337 163.878 51.7102C163.878 51.0834 163.982 50.4914 164.261 50.0039ZM168.964 50.4915C168.755 50.1432 168.511 49.8647 168.198 49.6906C167.884 49.5164 167.501 49.412 167.118 49.412C166.735 49.412 166.351 49.5164 166.038 49.6906C165.724 49.8647 165.446 50.1432 165.271 50.4915C165.097 50.8397 164.993 51.2575 164.993 51.745C164.993 52.2325 165.097 52.6504 165.271 52.9986C165.48 53.3468 165.724 53.6254 166.038 53.8343C166.351 54.0085 166.735 54.1129 167.118 54.1129C167.501 54.1129 167.884 54.0085 168.198 53.8343C168.511 53.6602 168.79 53.3817 168.964 52.9986C169.173 52.6504 169.243 52.2325 169.243 51.745C169.243 51.2575 169.138 50.8397 168.964 50.4915Z" fill="white"/>
<path d="M172.135 47.3227C171.995 47.1834 171.926 47.0093 171.926 46.8003C171.926 46.5914 171.995 46.4173 172.135 46.278C172.274 46.1387 172.448 46.0691 172.657 46.0691C172.866 46.0691 173.006 46.1387 173.145 46.278C173.284 46.4173 173.354 46.5914 173.354 46.8003C173.354 47.0093 173.284 47.1834 173.145 47.3227C173.006 47.462 172.832 47.5316 172.657 47.5316C172.414 47.5316 172.274 47.462 172.135 47.3227ZM173.145 48.5763V54.9138H172.1V48.5763H173.145Z" fill="white"/>
<path d="M174.921 50.004C175.2 49.5165 175.548 49.1335 176.001 48.8549C176.454 48.5763 177.012 48.437 177.604 48.437C178.37 48.437 179.032 48.6111 179.52 48.9942C180.008 49.3772 180.356 49.8995 180.53 50.5611H179.381C179.276 50.1781 179.067 49.8647 178.753 49.6558C178.44 49.4468 178.057 49.3076 177.604 49.3076C177.012 49.3076 176.524 49.5165 176.141 49.9343C175.757 50.3522 175.583 50.9442 175.583 51.6754C175.583 52.4415 175.757 53.0335 176.141 53.4514C176.524 53.8692 177.012 54.0781 177.604 54.0781C178.057 54.0781 178.44 53.9737 178.753 53.7647C179.067 53.5558 179.276 53.2424 179.381 52.8246H180.53C180.356 53.4862 180.008 54.0085 179.52 54.3915C178.997 54.7746 178.37 54.9835 177.604 54.9835C177.012 54.9835 176.454 54.8442 176.001 54.5656C175.548 54.2871 175.165 53.904 174.921 53.4165C174.643 52.929 174.538 52.3371 174.538 51.6754C174.538 51.0835 174.677 50.4915 174.921 50.004Z" fill="white"/>
<path d="M181.958 50.0042C182.237 49.5167 182.586 49.1337 183.038 48.8551C183.491 48.5765 184.014 48.4373 184.571 48.4373C185.129 48.4373 185.616 48.5417 186.034 48.7855C186.453 49.0292 186.731 49.3426 186.94 49.6908V48.5417H188.02V54.9141H186.94V53.7302C186.731 54.1132 186.418 54.3918 186 54.6355C185.582 54.8793 185.094 54.9838 184.571 54.9838C184.014 54.9838 183.491 54.8445 183.038 54.5659C182.586 54.2873 182.237 53.9043 181.958 53.382C181.68 52.8944 181.575 52.3025 181.575 51.6757C181.575 51.0837 181.715 50.4917 181.958 50.0042ZM186.662 50.4917C186.453 50.1435 186.209 49.865 185.895 49.6908C185.582 49.5167 185.198 49.4123 184.815 49.4123C184.432 49.4123 184.049 49.5167 183.735 49.6908C183.422 49.865 183.143 50.1435 182.969 50.4917C182.795 50.84 182.69 51.2578 182.69 51.7453C182.69 52.2328 182.795 52.6507 182.969 52.9989C183.178 53.3471 183.422 53.6257 183.735 53.8346C184.049 54.0087 184.432 54.1132 184.815 54.1132C185.198 54.1132 185.582 54.0087 185.895 53.8346C186.209 53.6605 186.487 53.382 186.662 52.9989C186.871 52.6507 186.94 52.2328 186.94 51.7453C186.94 51.2578 186.836 50.84 186.662 50.4917Z" fill="white"/>
<path d="M190.842 46.3474V54.9136H189.797V46.3474H190.842Z" fill="white"/>
<path d="M202.095 54.9139H201.05L196.8 48.5067V54.9139H195.755V46.8352H196.8L201.05 53.2424V46.8352H202.095V54.9139Z" fill="white"/>
<path d="M209.62 52.1284H204.534C204.569 52.7552 204.778 53.2427 205.161 53.5909C205.544 53.9391 206.032 54.1132 206.59 54.1132C207.042 54.1132 207.426 54.0087 207.739 53.7998C208.053 53.5909 208.262 53.3123 208.366 52.9641H209.516C209.342 53.5909 208.993 54.0784 208.506 54.4614C207.983 54.8445 207.356 55.0186 206.59 55.0186C205.997 55.0186 205.44 54.8793 204.987 54.6007C204.499 54.3221 204.151 53.9391 203.872 53.4516C203.593 52.9641 203.454 52.3721 203.454 51.7105C203.454 51.0489 203.593 50.4917 203.837 49.9694C204.116 49.4819 204.464 49.0989 204.952 48.8203C205.44 48.5417 205.962 48.4373 206.59 48.4373C207.182 48.4373 207.739 48.5765 208.192 48.8203C208.645 49.0989 209.028 49.4471 209.272 49.8998C209.516 50.3525 209.655 50.8748 209.655 51.4668C209.655 51.7105 209.655 51.9194 209.62 52.1284ZM208.297 50.248C208.122 49.9694 207.879 49.7257 207.565 49.5864C207.251 49.4471 206.938 49.3774 206.555 49.3774C206.032 49.3774 205.579 49.5516 205.196 49.8998C204.813 50.248 204.604 50.7007 204.569 51.3275H208.575C208.575 50.8748 208.506 50.5266 208.297 50.248Z" fill="white"/>
<path d="M212.337 49.4467V53.1726C212.337 53.486 212.407 53.695 212.546 53.8343C212.686 53.9735 212.895 54.0084 213.243 54.0084H214.01V54.9137H213.069C212.477 54.9137 212.059 54.7744 211.745 54.4959C211.466 54.2173 211.292 53.7994 211.292 53.1726V49.4467H210.456V48.5762H211.292V46.9744H212.337V48.5762H214.01V49.4467H212.337Z" fill="white"/>
<path d="M223.729 48.5762L221.744 54.9137H220.664L219.131 49.8646L217.598 54.9137H216.518L214.532 48.5762H215.612L217.075 53.9039L218.643 48.5762H219.723L221.256 53.9039L222.684 48.5762H223.729Z" fill="white"/>
<path d="M225.924 54.6003C225.436 54.3217 225.053 53.9387 224.774 53.4512C224.496 52.9637 224.356 52.3717 224.356 51.7101C224.356 51.0485 224.496 50.4913 224.774 50.0038C225.053 49.5163 225.436 49.1333 225.924 48.8547C226.412 48.5761 226.969 48.4717 227.562 48.4717C228.154 48.4717 228.711 48.611 229.199 48.8547C229.687 49.1333 230.07 49.5163 230.349 50.0038C230.627 50.4913 230.767 51.0833 230.767 51.7449C230.767 52.4065 230.627 52.9637 230.349 53.486C230.07 54.0083 229.652 54.3566 229.164 54.6351C228.676 54.9137 228.119 55.053 227.527 55.053C226.934 55.0182 226.412 54.8789 225.924 54.6003ZM228.607 53.8342C228.955 53.6601 229.199 53.3816 229.408 53.0333C229.617 52.6851 229.721 52.2324 229.721 51.7449C229.721 51.2574 229.617 50.8047 229.408 50.4565C229.199 50.1083 228.955 49.8297 228.607 49.6556C228.293 49.4815 227.945 49.4119 227.562 49.4119C227.178 49.4119 226.83 49.4815 226.516 49.6556C226.203 49.8297 225.924 50.1083 225.75 50.4565C225.541 50.8047 225.471 51.2574 225.471 51.7449C225.471 52.2673 225.576 52.6851 225.75 53.0682C225.924 53.4164 226.203 53.6949 226.516 53.8691C226.83 54.0432 227.178 54.1128 227.562 54.1128C227.91 54.078 228.258 54.0083 228.607 53.8342Z" fill="white"/>
<path d="M234.042 48.7504C234.39 48.5415 234.808 48.437 235.296 48.437V49.5165H235.017C233.833 49.5165 233.24 50.1433 233.24 51.4317V54.879H232.195V48.5415H233.24V49.5861C233.415 49.2379 233.693 48.9593 234.042 48.7504Z" fill="white"/>
<path d="M240.033 54.9136L237.56 52.1278V54.9136H236.515V46.3474H237.56V51.3966L239.998 48.576H241.462L238.466 51.7448L241.462 54.9136H240.033Z" fill="white"/>
<path d="M70.7214 8.91431H76.4348V28.2752C76.4348 29.9467 76.5741 31.1306 76.8877 31.827C77.1664 32.5235 77.6541 33.0806 78.316 33.4985C78.978 33.9164 79.8141 34.1253 80.7547 34.1253C81.765 34.1253 82.6359 33.8815 83.3675 33.4288C84.0991 32.9762 84.5869 32.3842 84.8656 31.6878C85.1443 30.9913 85.2836 29.6333 85.2836 27.6136V8.91431H90.9971V26.7431C90.9971 29.7377 90.8229 31.827 90.4745 33.011C90.1261 34.1949 89.499 35.3092 88.5236 36.3887C87.5829 37.4682 86.4681 38.2691 85.214 38.7914C83.9598 39.3137 82.4966 39.5575 80.8592 39.5575C78.6993 39.5575 76.7832 39.07 75.1806 38.0601C73.5781 37.0503 72.4284 35.8316 71.7317 34.2994C71.0349 32.8021 70.6865 30.2601 70.6865 26.7082V8.91431H70.7214Z" fill="white"/>
<path d="M96.1878 16.7143H101.762V18.9777C103.016 17.933 104.166 17.167 105.176 16.7491C106.186 16.3312 107.231 16.1223 108.311 16.1223C110.506 16.1223 112.353 16.8884 113.886 18.4206C115.175 19.709 115.802 21.659 115.802 24.201V38.8261H110.297V29.1457C110.297 26.4992 110.193 24.7581 109.949 23.8876C109.705 23.017 109.287 22.3554 108.695 21.9027C108.102 21.45 107.371 21.2063 106.5 21.2063C105.385 21.2063 104.41 21.5893 103.608 22.3206C102.807 23.0867 102.25 24.0965 101.936 25.4546C101.762 26.151 101.692 27.6483 101.692 29.9466V38.8261H96.1182V16.7143H96.1878Z" fill="white"/>
<path d="M123.361 7.59106C124.337 7.59106 125.173 7.93928 125.869 8.63572C126.566 9.33215 126.915 10.2027 126.915 11.2125C126.915 12.1875 126.566 13.0581 125.869 13.7545C125.173 14.451 124.337 14.7992 123.396 14.7992C122.42 14.7992 121.55 14.451 120.853 13.7197C120.156 13.0233 119.808 12.1527 119.808 11.1081C119.808 10.1331 120.156 9.29733 120.853 8.6009C121.55 7.93928 122.386 7.59106 123.361 7.59106ZM120.574 16.7144H126.148V38.861H120.574V16.7144Z" fill="white"/>
<path d="M128.831 16.7144H134.51L140.119 29.7725L145.693 16.7144H151.336L141.895 38.861H138.307L128.831 16.7144Z" fill="white"/>
<path d="M176.733 29.3894H158.896C159.14 30.9564 159.837 32.21 160.951 33.1502C162.066 34.0904 163.495 34.543 165.236 34.543C167.327 34.543 169.103 33.8118 170.602 32.3493L175.27 34.543C174.085 36.2145 172.692 37.4333 171.089 38.1993C169.452 39.0002 167.536 39.3833 165.271 39.3833C161.788 39.3833 158.966 38.3038 156.771 36.11C154.576 33.9163 153.496 31.1653 153.496 27.8921C153.496 24.5144 154.576 21.6938 156.771 19.4652C158.966 17.2366 161.683 16.1223 164.958 16.1223C168.442 16.1223 171.298 17.2366 173.458 19.4652C175.653 21.6938 176.733 24.6537 176.733 28.3099V29.3894ZM171.194 25.0019C170.811 23.7831 170.114 22.7733 169.034 22.0072C167.954 21.2411 166.7 20.8581 165.271 20.8581C163.738 20.8581 162.345 21.2759 161.195 22.1465C160.464 22.7036 159.767 23.6438 159.14 25.0019H171.194V25.0019Z" fill="white"/>
<path d="M179.938 16.7143H184.711V19.5C185.234 18.3857 185.896 17.55 186.767 16.9929C187.638 16.4357 188.543 16.1223 189.589 16.1223C190.32 16.1223 191.052 16.2964 191.853 16.6795L190.076 21.4849C189.414 21.1715 188.892 20.9974 188.474 20.9974C187.603 20.9974 186.906 21.5197 186.314 22.5992C185.722 23.6786 185.443 25.7331 185.443 28.8323L185.478 29.9117V38.8609H179.973V16.7143H179.938Z" fill="white"/>
<path d="M208.122 19.6909L204.673 23.1382C203.28 21.7454 201.991 21.0489 200.876 21.0489C200.249 21.0489 199.761 21.1882 199.412 21.432C199.064 21.7105 198.89 22.0239 198.89 22.407C198.89 22.7204 198.994 22.9641 199.238 23.2427C199.447 23.4864 200.005 23.8347 200.911 24.2873L202.931 25.2972C205.091 26.3418 206.554 27.4213 207.356 28.5356C208.157 29.6499 208.54 30.9383 208.54 32.4008C208.54 34.3508 207.808 36.0223 206.38 37.3107C204.952 38.6339 203.001 39.2955 200.562 39.2955C197.322 39.2955 194.744 38.042 192.828 35.5L196.242 31.774C196.904 32.5401 197.671 33.1321 198.542 33.6196C199.412 34.0723 200.179 34.316 200.876 34.316C201.607 34.316 202.2 34.1419 202.652 33.7937C203.105 33.4455 203.314 33.0276 203.314 32.5749C203.314 31.7044 202.513 30.9035 200.876 30.0678L198.994 29.1276C195.406 27.3168 193.629 25.0534 193.629 22.3373C193.629 20.5962 194.291 19.0989 195.65 17.8453C197.009 16.5917 198.716 15.9998 200.841 15.9998C202.269 15.9998 203.628 16.3132 204.917 16.9399C206.171 17.6016 207.251 18.5069 208.122 19.6909Z" fill="white"/>
<path d="M251.864 16.9998H257.543L263.152 30.0579L268.726 16.9998H274.37L264.928 39.1464H261.34L251.864 16.9998Z" fill="white"/>
<path d="M223.75 34.5898V39.4998H220.846C218.776 39.4998 217.163 38.9918 216.006 37.976C214.848 36.9376 214.27 35.2558 214.27 32.9306V25.4133H212V20.6049H214.27V15.9998H219.978V20.6049H223.717V25.4133H219.978V32.9983C219.978 33.5627 220.112 33.969 220.379 34.2173C220.646 34.4657 221.091 34.5898 221.714 34.5898H223.75Z" fill="white"/>
<path d="M238.128 34.3339C234.505 34.3339 231.544 31.3741 231.544 27.7526C231.544 24.1311 234.47 21.1365 238.128 21.1365C241.751 21.1365 244.712 24.0963 244.712 27.7178C244.712 28.1705 244.678 28.6232 244.573 29.041L248.614 32.7321C249.346 31.2 249.764 29.4937 249.764 27.683C249.764 21.2758 244.538 16.0525 238.128 16.0525C231.718 16.0525 226.492 21.2758 226.492 27.683C226.492 34.0902 231.718 39.3134 238.128 39.3134C239.974 39.3134 241.716 38.8956 243.249 38.1295L238.999 34.2295C238.72 34.2991 238.407 34.3339 238.128 34.3339Z" fill="white"/>
<path d="M238.128 32.6971C240.88 32.6971 243.11 30.4677 243.11 27.7176C243.11 24.9674 240.88 22.738 238.128 22.738C235.377 22.738 233.146 24.9674 233.146 27.7176C233.146 30.4677 235.377 32.6971 238.128 32.6971Z" fill="white"/>
<path d="M244.121 36.3188C245.448 36.3188 246.524 35.2431 246.524 33.9161C246.524 32.5892 245.448 31.5134 244.121 31.5134C242.793 31.5134 241.717 32.5892 241.717 33.9161C241.717 35.2431 242.793 36.3188 244.121 36.3188Z" fill="white"/>
</svg>
