<svg width="51" height="51" viewBox="0 0 51 51" fill="none" xmlns="http://www.w3.org/2000/svg">
<g clip-path="url(#clip0_1006_3475)">
<path d="M50.1206 14.3833C49.9491 15.4247 49.7653 16.4661 49.4346 17.4707C48.7607 19.4799 47.6213 21.1707 46.1756 22.6899C45.5998 23.2902 45.0362 23.8905 44.4849 24.5276C44.2276 24.8216 44.0071 24.8951 43.6396 24.7481C41.9611 24.0375 40.1969 23.7435 38.3959 23.7312C36.1049 23.719 33.9118 24.2458 31.8536 25.3117C30.9715 25.7772 30.1261 26.3041 29.3542 26.9289C29.097 27.1372 28.9254 27.1127 28.6927 26.8799C24.7722 22.9471 20.8394 19.0144 16.9067 15.0939C16.6494 14.8366 16.6616 14.6773 16.9067 14.42C20.4596 10.8793 24.0003 7.31414 27.5655 3.78569C29.685 1.69067 32.2456 0.453263 35.1982 0.0734649C35.2717 0.0612133 35.3575 0.0367102 35.431 0.012207C36.4111 0.012207 37.3913 0.012207 38.3714 0.012207C38.4817 0.0367102 38.5919 0.0734648 38.7022 0.0857164C43.9459 0.992332 47.5233 3.9082 49.3978 8.90684C49.7776 9.92372 49.9246 10.9896 50.1084 12.0432C50.1206 12.8151 50.1206 13.5992 50.1206 14.3833Z" fill="white"/>
<path d="M50.1212 39.5236C49.9007 40.8223 49.6312 42.1087 49.0308 43.3093C47.2421 46.9113 44.3752 49.0921 40.4425 49.8884C39.7564 50.0232 39.7441 49.9987 39.7441 49.2758C39.7441 41.9862 39.7441 34.6965 39.7441 27.4191C39.7441 26.684 39.7564 26.6717 40.4915 26.8187C45.5269 27.7621 49.3249 31.7316 50.0355 36.8038C50.0477 36.9263 50.0845 37.061 50.109 37.1836C50.1212 37.9554 50.1212 38.7395 50.1212 39.5236Z" fill="white"/>
<path d="M13.3416 50.1211C6.93401 50.1089 1.3963 45.5881 0.244657 39.303C-0.588449 34.7577 0.673462 30.7637 3.89562 27.468C7.30156 23.9885 10.781 20.5704 14.2114 17.1154C14.5055 16.8214 14.677 16.8459 14.9588 17.1277C18.8425 21.0237 22.7385 24.9319 26.6468 28.8034C26.9898 29.1465 26.9163 29.367 26.6713 29.71C24.6865 32.3564 23.6942 35.3335 23.7432 38.6414C23.7677 40.3444 24.0739 42.0106 24.7355 43.5911C24.8948 43.9831 24.8458 44.2404 24.5395 44.5344C23.4859 45.5268 22.5303 46.6294 21.3664 47.4993C18.9773 49.2635 16.2942 50.1211 13.3416 50.1211Z" fill="white"/>
<path d="M36.9381 38.3474C36.9381 42.0106 36.9381 45.6739 36.9381 49.3493C36.9381 50.0109 36.9136 50.0232 36.2765 49.9006C31.4371 49.0185 27.6759 45.3676 26.757 40.5159C25.7034 34.9292 28.7785 29.465 34.1079 27.4068C34.8063 27.1372 35.5291 26.9412 36.2642 26.7942C36.9136 26.6717 36.9258 26.6962 36.9258 27.3455C36.9381 31.0087 36.9381 34.6719 36.9381 38.3474Z" fill="white"/>
</g>
<defs>
<clipPath id="clip0_1006_3475">
<rect width="50.1211" height="50.1211" fill="white"/>
</clipPath>
</defs>
</svg>
