<svg width="57" height="56" viewBox="0 0 57 56" fill="none" xmlns="http://www.w3.org/2000/svg">
<g clip-path="url(#clip0_1006_3484)">
<path d="M30.3584 55.979C30.3294 55.979 30.2859 55.979 30.2569 55.979C30.1554 54.4997 30.2424 53.0204 30.2134 51.5412C30.2134 51.2366 30.1844 50.9321 30.0974 50.6275C29.8799 49.9604 29.3288 49.5688 28.6326 49.5688C27.922 49.5688 27.3709 49.9604 27.1679 50.6275C27.0663 50.9176 27.0518 51.2221 27.0518 51.5412C27.0373 53.0204 27.1099 54.4997 27.0083 55.979C26.9793 55.979 26.9358 55.979 26.9068 55.979C23.2231 55.3554 20.1486 53.586 17.5091 51.0046C12.5637 46.1752 9.60516 40.2291 7.69081 33.6739C7.6473 33.5434 7.58929 33.3984 7.73432 33.2098C7.89385 33.3113 8.05338 33.4129 8.21291 33.5144C9.09757 34.1235 10.0112 34.6746 10.9829 35.1242C11.563 35.3997 12.1576 35.3562 12.6652 34.9501C13.1728 34.5441 13.2888 33.993 13.1873 33.3839C13.0858 32.7892 12.6507 32.4702 12.1576 32.2091C10.1708 31.2085 8.40144 29.9032 6.89317 28.2499C6.67563 28.0179 6.50159 27.7858 6.48709 27.4523C6.45809 27.0317 6.40008 26.6256 6.38557 26.205C6.12453 21.8978 6.76264 17.721 8.58998 13.7763C11.592 7.35161 16.3634 2.9283 23.2667 0.95594C24.4559 0.622379 25.6741 0.46285 26.8778 0.288818C26.9068 0.288818 26.9503 0.288818 26.9793 0.288818C27.0809 1.76809 27.0083 3.26186 27.0228 4.74113C27.0373 5.97386 27.6174 6.7425 28.5891 6.7715C29.5753 6.786 30.1844 6.00286 30.1989 4.74113C30.2134 3.26186 30.1409 1.76809 30.2424 0.288818C30.2714 0.288818 30.3149 0.288818 30.3439 0.288818C31.8377 0.491855 33.317 0.709395 34.7382 1.17348C41.9896 3.58092 46.7174 8.56983 49.3714 15.6326C50.7347 19.2728 51.1262 23.0435 50.8072 26.9012C50.7492 27.6118 50.5026 28.1194 50.024 28.6125C48.5303 30.1353 46.8044 31.3535 44.9046 32.3252C44.0634 32.7602 43.7734 33.6594 44.165 34.4425C44.542 35.2112 45.4557 35.5012 46.3114 35.0952C47.2685 34.6456 48.1532 34.0945 49.0234 33.5144C49.1829 33.4129 49.3279 33.2533 49.5454 33.2388C49.6615 33.4274 49.56 33.5869 49.5164 33.7609C48.1967 38.4018 46.2533 42.7526 43.4253 46.6683C40.1622 51.2801 36.1885 54.9638 30.3584 55.979ZM28.3861 46.0447C30.6195 46.0447 32.6064 45.2615 34.0131 43.8838C34.7673 43.1586 34.8398 42.2595 34.2162 41.5633C33.6215 40.9107 32.6499 40.9107 31.8957 41.5779C29.8799 43.3327 27.3854 43.3472 25.355 41.5924C24.5864 40.9252 23.6292 40.9107 23.0346 41.5488C22.3965 42.245 22.469 43.1586 23.2522 43.8983C24.7604 45.3195 26.5588 45.9867 28.3861 46.0447ZM18.1037 27.2347C19.6265 27.1767 21.0332 26.6691 22.179 25.5669C22.8461 24.9288 22.9331 23.9716 22.382 23.319C21.8309 22.6809 20.8592 22.6374 20.1341 23.203C18.6548 24.3777 17.4366 24.3777 15.9863 23.203C15.2757 22.6229 14.304 22.6809 13.7384 23.319C13.1583 23.9861 13.2308 24.8853 13.927 25.5524C15.0872 26.6546 16.4794 27.1622 18.1037 27.2347ZM39.1035 27.2347C40.7568 27.1767 42.1636 26.6691 43.3238 25.5379C44.0054 24.8708 44.0634 23.9571 43.4688 23.3045C42.9032 22.6954 41.9026 22.5939 41.2789 23.203C40.1622 24.3052 38.2914 24.3487 37.1167 23.232C36.4351 22.5939 35.4344 22.6664 34.8833 23.3045C34.3177 23.9426 34.3902 24.8998 35.0573 25.5524C36.1885 26.6546 37.5953 27.1477 39.1035 27.2347ZM27.0373 33.4564C27.0373 34.5296 27.0228 35.5883 27.0518 36.6615C27.0809 37.6041 27.7625 38.2858 28.6036 38.3003C29.4448 38.3148 30.1844 37.6331 30.1989 36.705C30.2279 34.5441 30.2424 32.3977 30.1989 30.2368C30.1699 29.1781 29.3868 28.569 28.3861 28.685C27.6029 28.7865 27.0663 29.4391 27.0518 30.3963C27.0228 31.4405 27.0373 32.4557 27.0373 33.4564ZM27.0373 13.1092C27.0373 13.5442 27.0083 13.9793 27.0373 14.4144C27.0954 15.3426 27.7915 16.0242 28.6326 16.0097C29.4593 15.9952 30.1409 15.3426 30.1844 14.4289C30.2279 13.5442 30.2279 12.6596 30.1844 11.7749C30.1409 10.7887 29.4883 10.1941 28.6036 10.1941C27.719 10.1941 27.0954 10.8177 27.0373 11.8039C27.0228 12.239 27.0373 12.6741 27.0373 13.1092ZM30.1989 22.3328C30.1989 21.9123 30.2134 21.4917 30.1989 21.0856C30.1409 20.0704 29.5173 19.4468 28.6181 19.4468C27.7045 19.4468 27.0809 20.0849 27.0518 21.1001C27.0228 21.9268 27.0228 22.7679 27.0518 23.5946C27.0809 24.5662 27.777 25.2624 28.6326 25.2624C29.4883 25.2624 30.1699 24.5517 30.1989 23.5801C30.2134 23.1595 30.1989 22.7389 30.1989 22.3328ZM39.5531 34.138C38.7265 34.312 37.6388 34.4861 36.5801 34.7761C35.8695 34.9646 35.4924 35.7913 35.6374 36.4729C35.7969 37.2416 36.4641 37.8362 37.2327 37.7492C38.2914 37.6331 39.3501 37.4446 40.3653 37.1255C41.0759 36.908 41.511 36.0959 41.3805 35.3997C41.2209 34.6601 40.5973 34.1525 39.5531 34.138ZM17.7121 34.1525C16.6534 34.138 16.0008 34.6601 15.8558 35.4432C15.7253 36.1974 16.2184 36.995 17.0015 37.1835C17.9587 37.4156 18.9449 37.6186 19.9165 37.7637C20.6852 37.8797 21.4103 37.2996 21.5843 36.5164C21.7439 35.8058 21.3378 34.9791 20.6127 34.7906C19.5975 34.4861 18.5533 34.3265 17.7121 34.1525Z" fill="white"/>
<path d="M0.831055 28.6849C1.13561 27.4667 1.67221 26.379 2.64389 25.5523C2.75991 25.4508 2.89043 25.2768 3.04996 25.3348C3.253 25.4073 3.22399 25.6394 3.22399 25.8134C3.31101 28.7284 3.86211 31.5564 4.60174 34.3554C4.64525 34.515 4.74677 34.689 4.61625 34.8195C4.45672 34.9646 4.26818 34.8195 4.12316 34.7615C2.60038 34.0944 1.57069 32.9632 1.03409 31.3969C0.961578 31.1939 0.903568 30.9908 0.831055 30.7733C0.831055 30.0482 0.831055 29.3665 0.831055 28.6849Z" fill="white"/>
<path d="M56.4627 29.9758C56.3757 32.0061 55.3025 33.6884 53.1997 34.6891C53.0256 34.7761 52.8081 34.9357 52.6486 34.8051C52.46 34.6746 52.6195 34.4426 52.6631 34.254C53.3882 31.484 53.9248 28.685 54.0118 25.8135C54.0118 25.6395 53.9828 25.4074 54.1568 25.3204C54.3744 25.2189 54.5049 25.4509 54.6499 25.5814C55.8391 26.6837 56.4482 28.0469 56.4627 29.9758Z" fill="white"/>
</g>
<defs>
<clipPath id="clip0_1006_3484">
<rect width="55.6322" height="55.6902" fill="white" transform="translate(0.831055 0.288818)"/>
</clipPath>
</defs>
</svg>
