<svg width="53" height="56" viewBox="0 0 53 56" fill="none" xmlns="http://www.w3.org/2000/svg">
<g clip-path="url(#clip0_1006_3465)">
<path d="M30.3915 55.6902C29.1723 55.2693 28.287 54.5146 27.9386 53.2229C27.8661 52.9326 27.8516 52.6568 27.8516 52.3665C27.8516 49.0138 27.8516 45.6611 27.8516 42.3229C27.8516 41.6843 27.8516 41.6843 28.4321 41.9455C29.1288 42.2648 29.8545 42.468 30.6237 42.5261C30.9721 42.5551 31.1172 42.439 31.1172 42.0761C31.1027 41.394 31.0882 40.6973 31.1172 40.0151C31.1317 39.5942 30.9866 39.4201 30.5657 39.333C29.1433 39.0572 28.2725 38.1719 27.9241 36.7785C27.8661 36.5318 27.8516 36.2705 27.8516 36.0238C27.8516 32.1486 27.8516 28.2733 27.8516 24.3981C27.8516 23.7014 27.8516 23.7014 28.5047 23.9772C29.1723 24.2675 29.869 24.4707 30.5947 24.5142C30.9576 24.5287 31.1317 24.4271 31.1172 24.0352C31.1027 23.3095 31.1027 22.5838 31.1172 21.8581C31.1172 21.5388 31.0011 21.4372 30.6963 21.3647C28.8095 20.9438 27.8661 19.7391 27.8516 17.8233C27.8516 13.1207 27.8516 8.40368 27.8516 3.70115C27.8516 1.14669 29.6223 -0.348252 32.1622 0.0871678C35.1231 0.580643 37.3147 2.84483 37.7066 5.83471C37.7791 6.38624 37.9533 6.58943 38.5339 6.57492C43.6138 6.56041 47.6777 10.7114 47.5761 15.7768C47.518 18.7667 44.949 21.3356 41.9592 21.3937C41.2915 21.4082 40.6239 21.4082 39.9562 21.3937C39.5934 21.3792 39.4337 21.4953 39.4337 21.8872C39.4628 22.6129 39.4482 23.3386 39.4337 24.0643C39.4337 24.2965 39.4773 24.4997 39.7675 24.5142C42.1624 24.6158 44.5136 24.5432 46.6181 23.1354C47.6196 22.4532 48.505 21.6695 49.1581 20.639C49.4339 20.2181 49.608 20.2616 49.9128 20.6099C52.743 23.9772 53.2946 29.1297 51.2481 33.0629C50.8562 33.8032 50.4063 34.4998 49.8983 35.153C49.6225 35.5158 49.4339 35.4868 49.1726 35.1094C47.7357 33.0194 45.7618 31.7567 43.2654 31.3213C42.1188 31.1181 40.9577 31.2342 39.7966 31.2342C39.5498 31.2342 39.4482 31.3793 39.4482 31.6115C39.4482 32.3953 39.4628 33.1645 39.4482 33.9483C39.4482 34.3111 39.6659 34.3402 39.9417 34.3547C40.8416 34.3837 41.756 34.2676 42.6558 34.4273C45.8489 34.9933 47.8954 37.7219 47.5761 40.9295C47.1552 45.0225 44.2524 48.2155 40.232 49.0283C39.695 49.1299 39.158 49.2025 38.6209 49.188C37.8227 49.1735 37.8227 49.188 37.7211 49.9572C37.4308 52.0763 36.3422 53.7018 34.528 54.8194C33.8313 55.2548 33.0476 55.4871 32.2493 55.6757C31.6252 55.6902 31.0011 55.6902 30.3915 55.6902Z" fill="white"/>
<path d="M20.29 55.6902C18.2871 55.2547 16.6761 54.2243 15.631 52.4245C15.1666 51.6117 14.8618 50.7409 14.7892 49.812C14.7602 49.333 14.557 49.1879 14.0635 49.1879C9.65129 49.1879 6.00828 46.227 5.10841 41.9599C4.93424 41.1472 4.8907 40.3053 4.94876 39.478C4.9923 38.883 5.06487 38.8249 5.64543 38.9555C9.20135 39.7393 12.4235 39.0136 15.3263 36.822C15.7326 36.5172 15.7762 36.314 15.4133 35.9511C14.9489 35.4867 14.528 34.9932 14.1071 34.4998C13.8313 34.1659 13.6281 34.1224 13.2653 34.4127C11.8139 35.5738 10.1157 36.1689 8.27246 36.1253C5.16647 36.0673 2.72812 34.7029 1.14609 32.0033C-0.493989 29.1876 -0.218224 26.2703 0.957409 23.382C1.77019 21.3791 3.10548 19.739 4.8907 18.5053C5.21001 18.2731 5.25355 18.0554 5.18098 17.6926C4.10694 12.5546 7.14037 7.79402 12.1912 6.7345C14.6731 6.21199 16.8647 6.70547 18.5484 8.76645C18.737 8.99868 18.8967 8.99868 19.1434 8.83902C19.7385 8.41812 20.3336 8.01173 20.9577 7.63436C21.3205 7.41665 21.3786 7.22797 21.0883 6.87964C19.8111 5.2831 18.2 4.20906 16.2261 3.68656C15.5295 3.49788 15.5149 3.48336 15.9358 2.88829C17.3437 0.914387 19.2595 -0.0725641 21.6979 0.0290338C23.2654 0.101604 24.6442 1.553 24.6733 3.14954C24.7023 4.51386 24.6878 5.86366 24.6878 7.22797C24.6878 12.4385 24.6878 17.649 24.6878 22.874C24.6878 24.877 23.1783 26.3284 21.1899 26.2703C19.7095 26.2268 18.3887 25.0947 18.1275 23.5852C18.0404 23.1208 17.8662 22.9756 17.4163 23.0047C16.7631 23.0337 16.11 23.0337 15.4569 23.0047C15.036 22.9902 14.8763 23.1208 14.9053 23.5707C15.065 26.3429 17.6195 29.028 20.3771 29.3763C21.6689 29.536 22.9026 29.3763 24.0782 28.8538C24.6587 28.5926 24.6733 28.5926 24.6733 29.2312C24.6733 32.9613 24.6733 36.6914 24.6733 40.4215C24.6733 44.2386 24.6297 48.0558 24.6878 51.8875C24.7168 53.7888 23.8895 55.1241 22.1333 55.7047C21.5237 55.6902 20.8996 55.6902 20.29 55.6902Z" fill="white"/>
</g>
<defs>
<clipPath id="clip0_1006_3465">
<rect width="52.4826" height="55.6902" fill="white"/>
</clipPath>
</defs>
</svg>
