<svg width="65" height="52" viewBox="0 0 65 52" fill="none" xmlns="http://www.w3.org/2000/svg">
<g clip-path="url(#clip0_1006_3499)">
<path d="M23.9402 32.2265C24.0201 29.3113 24.3196 26.6358 25.2181 24.0401C26.3362 20.7855 25.3978 18.1099 22.5225 16.1931C20.5059 14.8354 19.0084 13.1182 18.5891 10.6224C18.4293 9.58409 18.5491 8.58575 18.8886 7.60737C19.0882 7.0483 18.9085 6.90854 18.3894 6.84863C14.3561 6.48923 10.5824 5.33115 7.10812 3.1947C6.02991 2.53579 4.91177 2.55576 3.87349 3.27457C2.83522 3.97341 2.59562 5.01168 2.79528 6.16976C2.91509 6.90854 3.05485 7.64731 3.51409 8.26628C4.03323 8.98509 4.45253 9.12486 5.29114 8.86529C6.54905 8.48592 7.76703 8.72552 8.92511 9.22469C12.1797 10.6224 14.8952 14.6157 14.8752 17.9103C14.8553 20.6857 12.7587 22.3429 10.0433 21.664C7.18799 20.9852 5.31111 19.0284 3.89346 16.5925C3.03489 15.0949 2.57565 13.4776 2.85518 11.7205C2.89512 11.461 2.83522 11.3012 2.61558 11.1415C0.878466 9.96346 0.319394 8.20638 0.0598247 6.22966C-0.319546 3.57407 1.25784 1.25792 3.49412 0.399341C5.23124 -0.259565 6.92842 -0.0998301 8.52577 0.878546C10.9617 2.37606 13.5974 3.3145 16.3927 3.85361C17.8104 4.11318 19.248 4.25294 20.7056 4.29288C21.0051 4.31284 21.2247 4.19304 21.4443 4.01334C24.2597 1.71715 27.5742 0.778711 31.1482 0.638943C34.1432 0.519142 37.0185 0.958413 39.7539 2.19636C40.7323 2.63563 41.6508 3.1947 42.4694 3.89354C42.8089 4.19304 43.1483 4.31284 43.6275 4.29288C47.9204 4.13314 51.9138 3.05493 55.6476 0.858579C59.2416 -1.27787 63.6143 0.818645 64.0137 4.93182C64.2333 7.28791 63.6543 9.56413 61.5378 11.0816C61.3381 11.2413 61.1584 11.3811 61.1983 11.6806C61.5977 14.5159 60.3597 16.7722 58.6026 18.8088C57.5843 19.9868 56.3464 20.9053 54.8688 21.4644C54.0103 21.8038 53.1118 21.8837 52.2133 21.7838C50.576 21.5842 49.338 20.1066 49.2182 18.3495C49.1184 16.7322 49.5577 15.2347 50.3563 13.857C51.7939 11.3811 53.7108 9.46429 56.6259 8.80539C57.3647 8.62568 58.1434 8.62568 58.8423 8.90522C59.601 9.22469 60.1401 8.92519 60.5195 8.36612C61.2982 7.18807 61.5977 5.89023 61.1784 4.53248C60.6792 2.91516 58.6026 2.23629 57.0053 3.1947C54.5693 4.67225 51.9736 5.71052 49.1983 6.3295C48.0601 6.5691 46.9021 6.78873 45.724 6.8686C45.2249 6.90854 45.0052 7.00837 45.1849 7.60737C46.1633 10.6623 45.125 13.1182 42.8887 15.1948C42.4095 15.634 41.8704 15.9935 41.3313 16.3529C38.8155 18.05 37.8371 20.7855 38.7556 23.6607C39.1949 25.0185 39.5543 26.3762 39.7939 27.7739C39.8937 28.3529 39.734 28.5726 39.1549 28.6724C33.3645 29.6907 29.3113 34.6824 29.5708 40.5327C29.7306 44.1068 31.308 47.0219 34.1632 49.2383C34.8221 49.7574 34.8221 49.8173 34.1832 50.3165C32.5659 51.5544 31.5675 51.5744 29.9502 50.3165C28.253 48.9787 27.2347 47.1417 26.436 45.185C24.9785 41.591 24.3196 37.8372 24.08 33.9836C24.0201 33.3247 23.9602 32.6857 23.9402 32.2265Z" fill="white"/>
<path d="M41.0712 49.1584C36.0395 49.1584 31.9663 45.1052 31.9064 40.0336C31.8465 35.1018 36.1394 30.8289 41.151 30.8488C46.1228 30.8688 50.3558 35.1217 50.3158 40.0336C50.2559 45.1251 46.1627 49.1584 41.0712 49.1584ZM41.171 44.1068C41.2708 44.0669 41.4505 44.0469 41.6103 43.967C42.2492 43.6476 42.3291 43.0685 42.3291 42.4496C42.3291 41.2116 42.3291 41.2116 43.587 41.1917C43.6269 41.1917 43.6868 41.1917 43.7268 41.1917C44.6652 41.1717 45.1644 40.7524 45.1444 40.0336C45.1244 39.2948 44.6053 38.8555 43.7068 38.8555C42.1494 38.8356 42.2891 38.9554 42.2891 37.4579C42.2891 37.4379 42.2891 37.4179 42.2891 37.378C42.2492 36.5394 41.8299 36.0402 41.1311 36.0003C40.4322 35.9803 39.993 36.4395 39.8732 37.2782C39.8133 37.7574 40.0728 38.3564 39.6935 38.6958C39.3141 39.0153 38.735 38.7956 38.2359 38.8356C37.537 38.8955 37.0179 39.3946 37.0179 40.0136C37.0179 40.6725 37.4771 41.1118 38.2159 41.1717C38.7151 41.2116 39.2941 40.992 39.6735 41.3314C40.0728 41.6709 39.8133 42.2699 39.8532 42.7491C39.993 43.5677 40.4522 44.1068 41.171 44.1068Z" fill="white"/>
</g>
<defs>
<clipPath id="clip0_1006_3499">
<rect width="64.0537" height="51.2349" fill="white"/>
</clipPath>
</defs>
</svg>
