<svg width="38" height="18" viewBox="0 0 38 18" fill="none" xmlns="http://www.w3.org/2000/svg">
<path d="M37.0095 9.42761C36.865 9.73629 36.6626 9.99674 36.4121 10.2379C34.0129 12.6302 31.6137 15.0128 29.2241 17.4147C28.8965 17.7427 28.5496 17.9839 28.0582 17.9935C27.4319 18.0032 26.9598 17.7331 26.6803 17.1736C26.3816 16.5852 26.4876 16.0257 26.902 15.5241C27.0754 15.3119 27.2874 15.1286 27.4801 14.9356C28.935 13.4887 30.3803 12.0514 31.8353 10.6045C31.8546 10.5852 31.8738 10.5466 31.9027 10.508C31.7582 10.4308 31.6137 10.4694 31.4788 10.4694C21.5543 10.4694 11.6395 10.4598 1.71498 10.4791C0.886336 10.4791 0.327482 10.18 -0.00012207 9.42761C-0.00012207 9.13822 -0.00012207 8.84883 -0.00012207 8.55944C0.337118 7.81668 0.895972 7.51764 1.72462 7.51764C11.6298 7.53693 21.5447 7.52729 31.4499 7.52729C31.5944 7.52729 31.7389 7.52729 31.8835 7.52729C31.922 7.38259 31.8064 7.35365 31.7486 7.29578C30.1587 5.71378 28.5593 4.14143 26.9887 2.54979C26.1504 1.70092 26.5165 0.331145 27.6343 0.0514023C28.2316 -0.102939 28.7423 0.0996338 29.1759 0.533717C30.5441 1.90349 31.922 3.27327 33.2902 4.64304C34.3309 5.68484 35.3715 6.72664 36.4121 7.7588C36.653 7.99996 36.865 8.26041 36.9999 8.56909C37.0095 8.84883 37.0095 9.13822 37.0095 9.42761Z" fill="black"/>
</svg>
