<svg width="38" height="18" viewBox="0 0 38 18" fill="none" xmlns="http://www.w3.org/2000/svg">
<path d="M8.50384e-06 8.56653C0.14454 8.25785 0.346885 7.9974 0.597405 7.75624C2.99662 5.36396 5.39584 2.98132 7.78542 0.579393C8.11303 0.251418 8.4599 0.0102609 8.95131 0.00061457C9.57761 -0.00903173 10.0497 0.261065 10.3292 0.82055C10.6279 1.40897 10.5219 1.96846 10.1076 2.47007C9.93412 2.68229 9.72214 2.86557 9.52943 3.05849C8.07449 4.50544 6.62918 5.94274 5.17423 7.38968C5.15496 7.40898 5.13569 7.44756 5.10678 7.48615C5.25131 7.56332 5.39584 7.52473 5.53074 7.52473C15.4552 7.52473 25.3701 7.53438 35.2945 7.51509C36.1232 7.51509 36.682 7.81412 37.0096 8.56653C37.0096 8.85592 37.0096 9.14531 37.0096 9.4347C36.6724 10.1775 36.1135 10.4765 35.2849 10.4765C25.3797 10.4572 15.4649 10.4669 5.55964 10.4669C5.41511 10.4669 5.27058 10.4669 5.12605 10.4669C5.08751 10.6115 5.20313 10.6405 5.26095 10.6984C6.85079 12.2804 8.45027 13.8527 10.0208 15.4443C10.8591 16.2932 10.493 17.663 9.37527 17.9427C8.77787 18.0971 8.26719 17.8945 7.8336 17.4604C6.46537 16.0906 5.08751 14.7209 3.71928 13.3511C2.67865 12.3093 1.63803 11.2675 0.597405 10.2353C0.35652 9.99419 0.14454 9.73373 0.00964451 9.42505C9.0918e-06 9.14531 8.50384e-06 8.85592 8.50384e-06 8.56653Z" fill="#808080"/>
</svg>
