<svg width="12" height="7" viewBox="0 0 12 7" fill="none" xmlns="http://www.w3.org/2000/svg">
<path d="M0.218726 0.21875C0.364559 0.0729167 0.537226 0 0.736726 0C0.935837 0 1.10831 0.0729167 1.25414 0.21875L5.52706 4.49167L9.81456 0.204167C9.95067 0.0680555 10.1208 0 10.325 0C10.5291 0 10.7041 0.0729167 10.85 0.21875C10.9958 0.364583 11.0687 0.53725 11.0687 0.73675C11.0687 0.935861 10.9958 1.10833 10.85 1.25417L5.93539 6.15417C5.87706 6.2125 5.81386 6.25392 5.74581 6.27842C5.67775 6.30253 5.60484 6.31458 5.52706 6.31458C5.44928 6.31458 5.37636 6.30253 5.30831 6.27842C5.24025 6.25392 5.17706 6.2125 5.11873 6.15417L0.204143 1.23958C0.0680315 1.10347 -2.42596e-05 0.935861 -2.42596e-05 0.73675C-2.42596e-05 0.53725 0.0728924 0.364583 0.218726 0.21875Z" fill="black"/>
</svg>
