<svg width="26" height="41" viewBox="0 0 26 41" fill="none" xmlns="http://www.w3.org/2000/svg">
<path d="M12.7777 40.8889C9.38878 40.8889 6.1387 39.5427 3.7424 37.1464C1.3461 34.7501 -0.00012207 31.5 -0.00012207 28.1111V12.7778C-0.00012207 9.3889 1.3461 6.13882 3.7424 3.74252C6.1387 1.34623 9.38878 0 12.7777 0C16.1665 0 19.4166 1.34623 21.8129 3.74252C24.2092 6.13882 25.5554 9.3889 25.5554 12.7778V28.1111C25.5554 29.7891 25.2249 31.4507 24.5828 33.001C23.9406 34.5512 22.9994 35.9598 21.8129 37.1464C20.6264 38.3329 19.2178 39.2741 17.6675 39.9162C16.1172 40.5584 14.4557 40.8889 12.7777 40.8889ZM12.7777 2.55556C10.0666 2.55556 7.46649 3.63254 5.54945 5.54958C3.63241 7.46661 2.55543 10.0667 2.55543 12.7778V28.1111C2.55543 30.8222 3.63241 33.4223 5.54945 35.3393C7.46649 37.2564 10.0666 38.3333 12.7777 38.3333C15.4888 38.3333 18.0888 37.2564 20.0059 35.3393C21.9229 33.4223 22.9999 30.8222 22.9999 28.1111V12.7778C22.9999 10.0667 21.9229 7.46661 20.0059 5.54958C18.0888 3.63254 15.4888 2.55556 12.7777 2.55556Z" fill="black"/>
</svg>
