<svg width="60" height="60" viewBox="0 0 60 60" fill="none" xmlns="http://www.w3.org/2000/svg">
<circle cx="30" cy="30" r="30" fill="#52CE5F"/>
<path d="M16.006 45L18.034 37.548C16.6977 35.2573 15.9957 32.652 16 30C16 21.7155 22.7155 15 31 15C39.2845 15 46 21.7155 46 30C46 38.2845 39.2845 45 31 45C28.3492 45.0043 25.745 44.3028 23.455 42.9675L16.006 45ZM25.5865 22.962C25.3928 22.974 25.2035 23.025 25.03 23.112C24.8673 23.2041 24.7188 23.3193 24.589 23.454C24.409 23.6235 24.307 23.7705 24.1975 23.913C23.6431 24.6345 23.3449 25.5201 23.35 26.43C23.353 27.165 23.545 27.8805 23.845 28.5495C24.4585 29.9025 25.468 31.335 26.8015 32.6625C27.1225 32.982 27.436 33.303 27.7735 33.6015C29.4286 35.0587 31.4009 36.1096 33.5335 36.6705L34.387 36.801C34.6645 36.816 34.942 36.795 35.221 36.7815C35.6579 36.7589 36.0844 36.6407 36.4705 36.435C36.667 36.3338 36.8587 36.2237 37.045 36.105C37.045 36.105 37.1095 36.063 37.2325 35.97C37.435 35.82 37.5595 35.7135 37.7275 35.538C37.852 35.409 37.96 35.2575 38.0425 35.085C38.1595 34.8405 38.2765 34.374 38.3245 33.9855C38.3605 33.6885 38.35 33.5265 38.3455 33.426C38.3395 33.2655 38.206 33.099 38.0605 33.0285L37.1875 32.637C37.1875 32.637 35.8825 32.0685 35.086 31.7055C35.002 31.6689 34.912 31.648 34.8205 31.644C34.7179 31.6335 34.6142 31.645 34.5164 31.6779C34.4186 31.7107 34.329 31.7641 34.2535 31.8345V31.8315C34.246 31.8315 34.1455 31.917 33.061 33.231C32.9988 33.3146 32.913 33.3779 32.8147 33.4126C32.7164 33.4473 32.61 33.452 32.509 33.426C32.4113 33.3999 32.3155 33.3668 32.2225 33.327C32.0365 33.249 31.972 33.219 31.8445 33.1635L31.837 33.1605C30.9789 32.7858 30.1844 32.2798 29.482 31.6605C29.293 31.4955 29.1175 31.3155 28.9375 31.1415C28.3474 30.5764 27.8331 29.937 27.4075 29.2395L27.319 29.097C27.2555 29.0012 27.2041 28.898 27.166 28.7895C27.109 28.569 27.2575 28.392 27.2575 28.392C27.2575 28.392 27.622 27.993 27.7915 27.777C27.9327 27.5975 28.0643 27.4107 28.186 27.2175C28.363 26.9325 28.4185 26.64 28.3255 26.4135C27.9055 25.3875 27.4705 24.366 27.0235 23.352C26.935 23.151 26.6725 23.007 26.434 22.9785C26.353 22.9695 26.272 22.9605 26.191 22.9545C25.9896 22.9445 25.7877 22.9465 25.5865 22.9605V22.962Z" fill="white"/>
</svg>
